<svg xmlns="http://www.w3.org/2000/svg" viewBox="0 0 800 600"><defs><style>.cls-1,.cls-14,.cls-17,.cls-2,.cls-26,.cls-31,.cls-33,.cls-34,.cls-38,.cls-4{fill:none;}.cls-1,.cls-2,.cls-34,.cls-4,.cls-5,.cls-6{stroke:#ddd;}.cls-1,.cls-14,.cls-17,.cls-26,.cls-31,.cls-33,.cls-34,.cls-35,.cls-38,.cls-39,.cls-4,.cls-6{stroke-linecap:round;stroke-linejoin:round;}.cls-2,.cls-5{stroke-miterlimit:10;}.cls-2,.cls-4{stroke-width:2px;}.cls-3{fill:#ededed;}.cls-21,.cls-5{fill:#ddd;}.cls-13,.cls-6{fill:#f9f9f9;}.cls-7{fill:#b25e47;}.cls-8{fill:#914839;}.cls-9{fill:#c3dcf8;}.cls-10{fill:#d0e5f7;}.cls-11{fill:#683f1d;}.cls-12,.cls-39{fill:#fff;}.cls-14{stroke:#83addf;}.cls-14,.cls-17,.cls-26,.cls-31,.cls-33,.cls-35,.cls-38,.cls-39{stroke-width:0.75px;}.cls-15{fill:#fed81d;}.cls-16{fill:#a7caf0;}.cls-17{stroke:#934735;}.cls-18{fill:#7f542d;}.cls-19{fill:#704725;}.cls-20{fill:#a0503d;}.cls-22{fill:#93bee5;}.cls-23{fill:#83addf;}.cls-24{fill:#604730;}.cls-25{fill:#473526;}.cls-26{stroke:#896442;}.cls-27{fill:#ffe05c;}.cls-28{fill:#fcc71f;}.cls-29,.cls-35{fill:#febd9d;}.cls-30{fill:#f4a789;}.cls-31{stroke:#f7ad2b;}.cls-32{fill:#f7ad2b;}.cls-33,.cls-35,.cls-39{stroke:#ef8a66;}.cls-34{stroke-width:3px;}.cls-36{fill:#bf8228;}.cls-37{fill:#b57724;}.cls-38{stroke:#9b621f;}.cls-40{fill:#f4af90;}</style></defs><g id="background"><rect class="cls-1" x="167.62" y="117.61" width="479.19" height="352.09"/><rect class="cls-2" x="152.69" y="469.7" width="509.05" height="16.88"/><rect class="cls-3" x="501.48" y="304.68" width="32.77" height="78.3"/><rect class="cls-3" x="587.55" y="219.26" width="32.77" height="163.71"/><polyline class="cls-2" points="634.51 382.97 462.61 382.97 462.61 163.02"/><rect class="cls-1" x="544.52" y="283.84" width="32.77" height="99.13"/><path class="cls-4" d="M281.34,201.26c-.1-1.69-.26-3.37-.48-5m-34.06,0c-.21,1.65-.37,3.33-.47,5"/><path class="cls-4" d="M307.08,192.56a178.93,178.93,0,0,1-26.22,3.68c-2-15.83-8.94-29.45-17-29.45s-15,13.62-17,29.45a179,179,0,0,1-26.21-3.68l-1.32,113.16c10,2.93,18.64,6.35,33,7.61v.17c4.2.24,8,.34,11.58.33s7.38-.09,11.59-.33v-.17c14.34-1.26,23-4.68,33-7.61Zm-43.25-19.39c5.63,0,10.35,10.46,11,21.71H252.81C253.48,183.63,258.21,173.17,263.83,173.17Z"/><rect class="cls-2" x="152.69" y="100.73" width="509.05" height="16.88"/><polyline class="cls-1" points="495.36 287.22 519.84 259.44 540.75 255.34 558.38 223.59 584.69 213.24 611.33 188.32"/><polygon class="cls-3" points="619.2 181.92 599.15 187.52 611.51 201.26 619.2 181.92"/><path class="cls-5" d="M358.3,209.7l-9.15-12.6a2,2,0,0,0-3.26,0l-9.15,12.6a2,2,0,0,0,1.63,3.2h2a2,2,0,0,1,2,2V226.2a2,2,0,0,0,2,2h6.2a2,2,0,0,0,2-2V214.92a2,2,0,0,1,2-2h2A2,2,0,0,0,358.3,209.7Z"/><path class="cls-4" d="M371.13,278.21l-14.81-14.78a5.71,5.71,0,0,1,.17-8.24l28-25.7a5.74,5.74,0,0,1,3.75-1.5l12.71-.26a5.7,5.7,0,0,1,5.82,5.81l-.24,12.72A5.63,5.63,0,0,1,405,250l-25.65,28A5.71,5.71,0,0,1,371.13,278.21Z"/><path class="cls-3" d="M383.8,259.55a5.56,5.56,0,0,1-2.89,1.68,4.92,4.92,0,0,1-3.2-.67L375.27,263a.36.36,0,0,1-.26.11.34.34,0,0,1-.25-.11l-3.24-3.24a.34.34,0,0,1,0-.5l2.18-2.19c-.58-.63-1.09-1.22-1.52-1.77a.39.39,0,0,1-.06-.26.39.39,0,0,1,.12-.25l2.86-2.36a.34.34,0,0,1,.29-.08.41.41,0,0,1,.26.17c.15.25.31.49.48.73s.41.56.71.93a8.77,8.77,0,0,0,.87,1,2.84,2.84,0,0,0,.91.68,1.3,1.3,0,0,0,.78.14,2,2,0,0,0,.54-.16,1.38,1.38,0,0,0,.32-.22,1.19,1.19,0,0,0,.24-.35,2.7,2.7,0,0,0,.2-.61,2.24,2.24,0,0,0-.07-1,4.48,4.48,0,0,0-.57-1.29,5.83,5.83,0,0,1-.71-1.7,7.22,7.22,0,0,1-.2-1.94,5.36,5.36,0,0,1,.5-2.1,6.64,6.64,0,0,1,1.39-2,5,5,0,0,1,2.82-1.51,5.48,5.48,0,0,1,3.19.58l2.51-2.52a.36.36,0,0,1,.26-.11.32.32,0,0,1,.26.1l3.24,3.23a.39.39,0,0,1,0,.54l-2.17,2.18c.55.61,1.08,1.22,1.58,1.85a.42.42,0,0,1,.07.26.32.32,0,0,1-.13.24l-2.86,2.36a.36.36,0,0,1-.29.07.29.29,0,0,1-.24-.15,17.09,17.09,0,0,0-2.15-2.75,2.78,2.78,0,0,0-.89-.67,1.36,1.36,0,0,0-.8-.14,2.25,2.25,0,0,0-.54.15,1.2,1.2,0,0,0-.33.23,1.18,1.18,0,0,0-.23.34,2.32,2.32,0,0,0-.19.61,2.3,2.3,0,0,0,.08,1,4.48,4.48,0,0,0,.57,1.29,6.74,6.74,0,0,1,.69,1.7,6.87,6.87,0,0,1,.21,1.95,5.47,5.47,0,0,1-.51,2.09A6.86,6.86,0,0,1,383.8,259.55Z"/><path class="cls-6" d="M420.5,290.87v7.81c0,1.64,4.72,3,10.55,3s10.56-1.33,10.56-3v-7.81Z"/><path class="cls-6" d="M420.5,283.26v7.81c0,1.64,4.72,3,10.55,3s10.56-1.33,10.56-3v-7.81Z"/><path class="cls-6" d="M420.5,275.65v7.81c0,1.64,4.72,3,10.55,3s10.56-1.33,10.56-3v-7.81Z"/><path class="cls-6" d="M420.5,268v7.81c0,1.64,4.72,3,10.55,3s10.56-1.33,10.56-3V268Z"/><path class="cls-6" d="M420.5,260.44v7.81c0,1.64,4.72,3,10.55,3s10.56-1.33,10.56-3v-7.81Z"/><path class="cls-6" d="M420.5,252.83v7.81c0,1.64,4.72,3,10.55,3s10.56-1.33,10.56-3v-7.81Z"/><path class="cls-6" d="M441.61,252.83c0,1.64-4.73,3-10.56,3s-10.55-1.33-10.55-3,4.72-3,10.55-3S441.61,251.19,441.61,252.83Z"/><path class="cls-6" d="M399.08,295.1v7.81c0,1.64,4.73,3,10.55,3s10.56-1.33,10.56-3V295.1Z"/><path class="cls-6" d="M399.08,287.49v7.81c0,1.64,4.73,3,10.55,3s10.56-1.33,10.56-3v-7.81Z"/><path class="cls-6" d="M399.08,279.88v7.81c0,1.64,4.73,3,10.55,3s10.56-1.33,10.56-3v-7.81Z"/><path class="cls-6" d="M399.08,272.27v7.81c0,1.64,4.73,3,10.55,3s10.56-1.33,10.56-3v-7.81Z"/><path class="cls-6" d="M420.19,272.27c0,1.65-4.73,3-10.56,3s-10.55-1.33-10.55-3,4.73-3,10.55-3S420.19,270.63,420.19,272.27Z"/></g><g id="Girl"><g id="body"><path class="cls-7" d="M175.26,345.42c0,6.09-6,15.24-15.77,13.77s-21.6-8.89-20.15-26.23c.42-5.06,6.2-36.7,7.13-43.7,1.45-10.81,28.57-19.87,27.38,7.86,0,.84-.07,1.66-.1,2.48-.2,5.92-.21,11.35-.1,16.27C174,330.45,175.26,340.54,175.26,345.42Z"/><path class="cls-8" d="M173.65,315.87c-8.46-.06-15-5.84-14.09-15.43l14.19-.84C173.55,305.52,173.54,311,173.65,315.87Z"/><path class="cls-9" d="M227.66,427.56l4.84,71.71H186.77l8.29-80.55-11-29.38-19.62-37.73a104.41,104.41,0,0,0,3.27-13.4l0,0,8.73-15.57a44.75,44.75,0,0,1,4.38-1.76l.19-.06.18,0c5.31-1.8,14.37-4,23.52-2.35,7.65,1.39,14,4.33,19.11,12.4,5.73,9.07,9.86,24.62,12.42,51.73C238.94,410.73,231.83,423.23,227.66,427.56Z"/><path class="cls-10" d="M223.85,330.78c-7.49,3.27-14.21,9.68-17.56,21.52A89.37,89.37,0,0,1,199.2,370a66.18,66.18,0,0,1-15.13,19.38l-19.62-37.73a104.41,104.41,0,0,0,3.27-13.4l0,0c.36-.79,6.12-13.43,7.52-15.93h0c2.6-.62,4.56-1.11,5.59-1.39l.19-.06.18,0c5.31-1.8,14.37-4,23.52-2.35C212.39,319.77,218.75,322.71,223.85,330.78Z"/><polygon class="cls-11" points="208.87 499.27 134.15 499.27 134.15 473.2 207.29 473.2 208.87 499.27"/><path class="cls-12" d="M202.87,473.2H137.23s-12.72-62.9-10.38-106.44c.66-12.4,2.54-23.23,6.29-30.59a22.94,22.94,0,0,1,4.09-5.85c1.58-.28,3.32-.6,5.17-1,3,3.39,8.84,8.11,17.09,12.9,0,0,2.94,8.32,5,9.35s3.27-13.4,3.27-13.4l0,0c.36-.79,6.12-13.43,7.52-15.93h0c2.77-.66,4.82-1.17,5.78-1.45l.18,0s1,3.43,2.63,8.45c2.6,8,6.77,20.05,11,28.67A63.47,63.47,0,0,1,199.2,370c3,11.75,3.28,25.91.48,44.39-.2,1.33-.37,2.68-.51,4C196.58,443.06,202.87,473.2,202.87,473.2Z"/><path class="cls-13" d="M199.2,370a66.18,66.18,0,0,1-15.13,19.38c-12.66,10.7-27.75,12.1-39.63-3.65-3-4-5.87-7.52-8.7-10.61a67.85,67.85,0,0,0-8.89-8.32c.66-12.4,2.54-23.23,6.29-30.59a22.94,22.94,0,0,1,4.09-5.85c1.58-.28,3.32-.6,5.17-1,3,3.39,8.84,8.11,17.09,12.9,0,0,2.94,8.32,5,9.35a104.41,104.41,0,0,0,3.27-13.4l0,0c.36-.79,6.12-13.43,7.52-15.93h0c2.77-.66,4.82-1.17,5.78-1.45l.18,0s1,3.43,2.63,8.45c2.6,8,6.77,20.05,11,28.67A63.47,63.47,0,0,1,199.2,370Z"/><path class="cls-14" d="M189.79,346.08c1.6,4.16,3.31,8.25,5,11.77A63.47,63.47,0,0,1,199.2,370a87.93,87.93,0,0,1,2.38,24.52"/><path class="cls-9" d="M147.08,499.27H97.76c-.16-17.89-.49-31.6-1.48-43.33a161,161,0,0,0-7.94-39.7c-7.44-22.33-6.9-42.19-2.48-56.59,2.53-8.28,6.35-14.75,10.68-18.87a14.83,14.83,0,0,1,3.26-2.24h0c11.21-5.9,37.41-8.22,37.41-8.22-3.24,6.77-2.91,25-1.49,44.76,1.59,22,4.52,46,5.34,58.09.59,8.76,2,24.23,3.47,40C145.41,482.18,146.29,491.26,147.08,499.27Z"/><path class="cls-10" d="M135.74,375.08a67.85,67.85,0,0,0-8.89-8.32c-.7-.54-1.41-1.06-2.12-1.53-10.32-7.07-21.74-8.7-38.87-5.58-1.93.34-3.93.76-6,1.23,6.91-12.09,13.92-21,20-22.34h0c11.21-5.9,37.41-8.22,37.41-8.22C134,337.09,134.32,355.31,135.74,375.08Z"/><path class="cls-15" d="M159.49,342.26c-10.21-2.86-18.24,11.36-18.24,11.36a40.34,40.34,0,0,1-8.11-17.45,17,17,0,0,1-.37-5.37c.64-4.21,6-7.5,7.5-4.39a13.64,13.64,0,0,0,2.13,2.95C145.43,332.75,151.24,337.47,159.49,342.26Z"/><path class="cls-15" d="M183.85,329.18c-.17,6.23-.73,13.23-.73,13.23-7.53-5.87-11.71-6-15.4-4.2L173.85,322c2.33-4.15,9.56-4.51,9.94.41C183.92,324.13,183.92,326.59,183.85,329.18Z"/><path class="cls-1" d="M159.49,342.26s2.94,8.32,5,9.35c.66-2.2,3.27-13.4,3.27-13.4"/><path class="cls-1" d="M164.45,351.61s8.23,19.75,12,32.88,6.36,25.58,5.53,42.44-2.63,32.21-2.21,34,6.08,6.55-2.21,12.26"/></g><g id="hand"><path class="cls-9" d="M217,435.38c-8.14-.41-16.67-9.95-23.64-20.46a200.74,200.74,0,0,1-15.05-27.87l11.59-16.48c15.29,9.46,38.55,24.47,44.89,34.48a12.8,12.8,0,0,1,1.17,2.25C240.58,419.32,238,436.43,217,435.38Z"/><path class="cls-16" d="M217,435.38c-8.14-.41-16.67-9.95-23.64-20.46,6.49-1.45,15.08,2.25,16.79,8.09,3.1,10.59,27.68,5.58,24.64-18a12.8,12.8,0,0,1,1.17,2.25C240.58,419.32,238,436.43,217,435.38Z"/><path class="cls-14" d="M235.93,407.3a12.8,12.8,0,0,0-1.17-2.25c-6.34-10-29.6-25-44.89-34.48l-11.59,16.48a200.74,200.74,0,0,0,15.05,27.87c7,10.51,15.5,20.05,23.64,20.46"/><path class="cls-11" d="M167.38,376.66,163,384l5.13-.46s37.56-32.1,38.14-33.2-2.57-4.57-3.61-4.19S167.38,376.66,167.38,376.66Z"/><path class="cls-7" d="M167.38,376.66c.72-4.19.64-5.64,1.29-6.52s7.32-5.88,8.93-6.44,5.72,1.45,5.72,1.45,3.14.4,5.07.72,1.79,4.89,3.05,5.67,2.83.36,3.8,2.38-.73,3.38,0,4.67,2.57,2.09,2,4.35-1.69,2.25-1.37,3.54,1.61,4.83-2.66,6.2-7.39,2.36-9.74,1.45-5.14-2.5-5.54-4c0,0-5-.74-7.1-4.77,0,0-5.39-1.61-1.45-4.34,0,0-1.93-1.94-.72-3.55Z"/><path class="cls-17" d="M183.48,394.13c-2.35-.92-5.14-2.5-5.54-4,0,0-5-.74-7.1-4.77,0,0-5.39-1.61-1.45-4.34,0,0-1.93-1.94-.72-3.55l-1.29-.8c.72-4.19.64-5.64,1.29-6.52"/><path class="cls-17" d="M168.67,377.46c5.38-4.9,15-12,18.5-11.78"/><path class="cls-17" d="M169.39,381c8.13-.37,14.94-3.91,19.68-7.31"/><path class="cls-17" d="M170.84,385.35c3.72,1.55,17.69-2.44,21.14-5.82"/><path class="cls-17" d="M177.94,390.12c1.9.37,9.29-.27,13.09-2.82"/></g><g id="upper_hand" data-name="upper hand"><path class="cls-9" d="M124.73,365.23a69.2,69.2,0,0,1-2.35,15l-.95,3.61c-.15.59-.31,1.19-.48,1.81q-.67,2.52-1.42,5.27l-.3,1.09c-.6,2.17-1.24,4.45-1.91,6.79-.22.79-.45,1.58-.68,2.37-1.62,5.58-3.43,11.52-5.41,17.54-.28.86-.57,1.73-.86,2.59-1.4,4.14-2.87,8.31-4.42,12.42-.33.88-.66,1.75-1,2.61l-1,2.58c-.27.68-.54,1.35-.82,2-2.15,5.26-4.44,10.32-6.83,15l-.25.48c-7.93,15.24-17.09,25.93-27,24.81-8.27-.92-13.79-4.19-17.4-8.59l0,0c-5.38-6.61-6.44-15.76-5.92-23.36a51.07,51.07,0,0,1,1.07-7.61c1.85-8.37,17.24-53,33.14-80.75,6.91-12.09,13.92-21,20-22.34h0C114.12,335.38,125.45,345,124.73,365.23Z"/><path class="cls-10" d="M124.73,365.23c-10.32-7.07-21.74-8.7-38.87-5.58-1.93.34-3.93.76-6,1.23,6.91-12.09,13.92-21,20-22.34h0C114.12,335.38,125.45,345,124.73,365.23Z"/><path class="cls-14" d="M124.73,365.23a69.2,69.2,0,0,1-2.35,15c-4.79,18.32-14,52.21-26.1,75.66"/><path class="cls-16" d="M96,456.42c-7.93,15.24-17.09,25.93-27,24.81-8.27-.92-13.79-4.19-17.4-8.59l0,0c-5.38-6.61-6.44-15.76-5.92-23.36a12,12,0,0,1,3.59,1.3c5.21,2.87,8.63,9.27,12.64,13.93C71,475,82.46,457.5,96,456.42Z"/></g><g id="head"><path class="cls-18" d="M147.92,249.22l-13.36,14.59c-16.21-2.09-20.81-13-18.14-22.32.1-.33.21-.67.34-1,3.78-9.06,22.48-14.41,29.11.78A27.76,27.76,0,0,1,147.92,249.22Z"/><path class="cls-19" d="M147.92,249.22l-13.36,14.59c-16.21-2.09-20.81-13-18.14-22.32.1-.33.21-.67.34-1,2.71,11.05,10,15.59,13.71,8.37,3.34-6.45,10.13-8.92,15.4-7.59A27.76,27.76,0,0,1,147.92,249.22Z"/><path class="cls-18" d="M172,251.73s-18.16,36.2-31.17,31a15.68,15.68,0,0,1-7.1-5.6c-5.31-7.56-3.82-19.24,2.26-24.78a36.57,36.57,0,0,1,18-8.86c5.77-7.41,17.52-9.87,22-4.87.1.1.19.21.28.32C180.47,244.32,176.45,249.11,172,251.73Z"/><path class="cls-19" d="M172,251.73s-18.16,36.2-31.17,31a15.68,15.68,0,0,1-7.1-5.6c6,.34,10-1.12,10.72-5.94,1-6.72,2.47-20.83,2.47-20.83s21.79.68,29-11.74c.1.1.19.21.28.32C180.47,244.32,176.45,249.11,172,251.73Z"/><path class="cls-7" d="M176,305.17c-9.59,2.44-20.82-3.66-28.05-10.33-4,2-11.19-2.38-10.67-8.22.58-6.34,5.29-7.4,8.63-5.2a9.52,9.52,0,0,0,2.55-2.71,15.48,15.48,0,0,0,2.2-6.95c.94-9.56-3.72-21.44-3.72-21.44A24.72,24.72,0,0,0,172,251.73c.22,0,7,10.79,10.67,22,.42,1.29.8,2.58,1.12,3.87a49.13,49.13,0,0,1,1,5.25C186.34,293.41,184.22,303.07,176,305.17Z"/><path class="cls-11" d="M164.46,271.15a1.41,1.41,0,1,0,1.41-1.41A1.41,1.41,0,0,0,164.46,271.15Z"/><path class="cls-11" d="M173.85,268.51a1.41,1.41,0,1,0,1.41-1.41A1.41,1.41,0,0,0,173.85,268.51Z"/><circle class="cls-15" cx="149.28" cy="293.56" r="3.57"/><path class="cls-18" d="M154.41,265.33c.79,1.72,9.26-1.84,7.28-5.11C160.08,257.58,153.23,262.81,154.41,265.33Z"/><path class="cls-18" d="M168.46,258.8c-.3,2.38,6.43,1.95,6.38.24S168.85,255.68,168.46,258.8Z"/><path class="cls-17" d="M148.43,287.08c-3.68-3.08-6.53-1.41-7.35,1.19"/><path class="cls-17" d="M146,291c-2.84-1.24-1.53-5.41,1.93-4.35"/><path class="cls-17" d="M164.06,281.91a9.66,9.66,0,0,0,8.81,2.31"/><path class="cls-17" d="M170.57,267.1c0,4.6,2.9,6.66,5.41,7.2a2.68,2.68,0,0,1,1.7,3.72"/><path class="cls-20" d="M161.4,280c-1,2.49-5.05,3.19-9,1.56a10.65,10.65,0,0,1-4-2.82,15.48,15.48,0,0,0,2.2-6.95,10.21,10.21,0,0,1,5.56.76C160.1,274.15,162.43,277.48,161.4,280Z"/><path class="cls-20" d="M184.81,282.84c-2.05.34-3.86-.15-4.77-1.47-1.38-2-.21-5.27,2.62-7.65.42,1.29.8,2.58,1.12,3.87A49.13,49.13,0,0,1,184.81,282.84Z"/></g><g id="hand-2" data-name="hand"><polygon class="cls-6" points="169.74 464.47 106.41 464.47 89.43 373.7 152.77 373.7 169.74 464.47"/><path class="cls-21" d="M132.8,369.14H126a5.13,5.13,0,0,0-.09-.86,7.34,7.34,0,0,0-6.9-5.82,4.7,4.7,0,0,0-4.73,5.82,6.46,6.46,0,0,0,.24.86H107.7l1.85,9.9h25.1Z"/><ellipse class="cls-6" cx="120.09" cy="368.28" rx="2.97" ry="3.58" transform="translate(-233.04 209.06) rotate(-47.67)"/><path class="cls-7" d="M122.87,413.41c6-3.05,9.61-3.82,10.48-5.13s12.34-10.06,15.4-11.31,8.32,1.86,8.32,1.86,5-2.52,7.38-1.86,4.22,5.41.27,9.45c-2.72,2.79,2.78,3.89.63,7-1,1.42,1.42,2.08,1.09,5.25s-1.91,3.49-1.72,4.8,1,4.7-2.21,6-18.35,4.26-20.75,4.58-14.2,8.63-14.2,8.63Z"/><line class="cls-17" x1="157.07" y1="398.83" x2="148.31" y2="403"/><path class="cls-17" d="M148.75,397c3.06-1.25,8.32,1.86,8.32,1.86s5-2.52,7.38-1.86,4.22,5.41.27,9.45c-2.72,2.79,2.78,3.89.63,7-1,1.42,1.42,2.08,1.09,5.25s-1.91,3.49-1.72,4.8,1,4.7-2.21,6"/><path class="cls-9" d="M136.51,445.93c-9.51,7.34-18,13.38-25.51,18.27C74.42,488,59.55,484.72,51.59,472.64l0,0a.47.47,0,0,1-.06-.09c-5.44-8.35-5.63-15.59-2.27-22,8.18-15.57,37.45-26.06,63.12-35.21,4.93-1.76,9.72-3.47,14.21-5.15Z"/><path class="cls-16" d="M111,464.2C74.42,488,59.55,484.72,51.59,472.64l0,0a.47.47,0,0,1-.06-.09c-5.44-8.35-5.63-15.59-2.27-22,5.21,2.87,8.63,9.27,12.64,13.93C71,475,82.46,457.5,96,456.42c4-.33,8.17.77,12.51,4.43A8.11,8.11,0,0,1,111,464.2Z"/><path class="cls-14" d="M86.42,477.66A155.55,155.55,0,0,0,111,464.2c7.54-4.89,16-10.93,25.51-18.27l-9.95-35.75"/><path class="cls-14" d="M126.56,410.18c-22.11,8.31-51.7,17.17-67.84,29.74"/></g></g><g id="Man_L" data-name="Man L"><g id="body-2" data-name="body"><g id="body-3" data-name="body"><path class="cls-16" d="M754.47,345.05A35.26,35.26,0,0,1,750,362.39a.08.08,0,0,1,0,0,34.1,34.1,0,0,1-13,13A32.46,32.46,0,0,1,721,379.6a33.57,33.57,0,0,1-31.46-22.68,35.3,35.3,0,0,1-1.75-7.38,36.94,36.94,0,0,1-.28-4.49c0-19.07,15-34.54,33.49-34.54A33.6,33.6,0,0,1,752.39,333,35.57,35.57,0,0,1,754.47,345.05Z"/><path class="cls-9" d="M752.39,333a29.75,29.75,0,0,0-2.75-1.3,32.63,32.63,0,0,0-7.2-2.12c-8.84-1.57-17.94.5-27.48,4.65-8.66,3.76-17.68,9.24-27.19,15.27a36.94,36.94,0,0,1-.28-4.49c0-19.07,15-34.54,33.49-34.54A33.6,33.6,0,0,1,752.39,333Z"/><path class="cls-16" d="M742.87,341c-.53,5.49-2.8,18.23-5.94,34.39-.51,2.65-1,5.39-1.61,8.2-7.74,39.12-19.25,92.73-24.19,115.64H576l10.06-57.94s-33.71-7.58-40.54-20.34c-8.81-16.46-4-29.07,6.2-46.33,7.4-12.56,22.18-41.11,33.69-59.12,4.32-6.77,8.18-12,11-14.43,14.91-12.55,30.3-7.66,44.43-4,0,0,0,3,.16,7.87.09,3.95.22,9.14.4,15,.31,10.31.78,22.72,1.45,34.16.12,2,.24,4,.37,6,1,14.47,2.28,26.34,4.06,28.68.45.59,1.13.43,2-.35,2.53-2.32,6.66-10.06,11.26-19.95,1.39-3,2.81-6.13,4.25-9.39,7.82-17.76,16-38.61,19.77-48.26,1.19-3.06,1.93-5,2.06-5.35a.32.32,0,0,1,0-.06l2.74.37,5.9.81c5.13.7,12.15,1.68,20,2.83,2,.29,3.87.63,5.73,1.07,8.85,2.06,16.41,6,19.95,14.24a24.57,24.57,0,0,1,1.51,4.87A38.17,38.17,0,0,1,742.87,341Z"/><path class="cls-9" d="M742.44,329.62c-8.84-1.57-17.94.5-27.48,4.65-8.66,3.76-17.68,9.24-27.19,15.27l-3,1.91c-7.23,4.61-13.91,6.95-20,7.65C675.07,335.72,686,307,686.61,305.49a.32.32,0,0,1,0-.06l8.64,1.18c5.13.7,12.15,1.68,20,2.83,2,.29,3.87.63,5.73,1.07,8.85,2.06,16.41,6,19.95,14.24A24.57,24.57,0,0,1,742.44,329.62Z"/><path class="cls-14" d="M586.06,441.33c13.27,3.54,40.51,9.95,40.51,9.95"/><path class="cls-22" d="M601.67,348.45,595,394c-9.44-4.54-13.62-5.81-17.72-5.24h0c-.65-8.95,19.48-.7,15.41-18.76C590.21,359,595.19,351,601.67,348.45Z"/><polyline class="cls-14" points="595 394 601.67 348.45 602.76 340.99"/><path class="cls-14" d="M572.34,390.12c9.09-3.32,11.36-2,42.22,13.75"/><path class="cls-9" d="M640.84,297.11s.49,31,2,57c-10.49-6.33-17.41-17-20.29-23.59-4.26-9.71-12.34-21.66-37.16-15,4.32-6.77,8.18-12,11-14.43C611.32,288.56,626.71,293.45,640.84,297.11Z"/><path class="cls-23" d="M694.63,335.4c-.82,1.14-18.55,11.71-18.22,13.18s3.25,7.48,3.25,8.62c0,.72-10.9,14.29-19.72,23.36-5.09,5.26-9.49,9-10.67,7.88-2.71-2.58,21.33-64.69,29.07-84.44l8.29,1.43,8.64,1.18C694.53,320.87,695.35,334.4,694.63,335.4Z"/><path class="cls-12" d="M686.63,305.43a.32.32,0,0,0,0,.06c-.51,2-13.11,51.07-26.67,75.07-4.24,7.52-8.57,12.58-12.66,13-17.41,1.65-6.44-96.41-6.44-96.41,6.46,1.45,26.16,4.92,37.5,6.89Z"/><path class="cls-7" d="M683.36,301.11c-1.91,5.69-19.19,18.12-29.79,12.13-6.11-3.46-7.23-9.82-5.63-20.33.77-5.15,2.21-11.3,4-18.59.91-3.65,1.92-7.58,3-11.81,2.57-10.18,8.56-16.54,19.46-14.65s10.31,12.52,10,24S685.27,295.43,683.36,301.11Z"/><path class="cls-8" d="M669.45,272.5c-.82,10.67-5.52,22.27-21.51,20.41.77-5.15,2.21-11.3,4-18.59Z"/><path class="cls-11" d="M649.27,311.1c.45,10.4.56,13.65,1.57,14.2s5.59,1.79,6.82,1,8.26-12.38,8.26-12.38S657.55,308.19,649.27,311.1Z"/><path class="cls-11" d="M657,321.37c1.45,18.05,4.51,61,4.95,64.34s-13.25,17.47-14.63,15.72-8.37-14.64-8.37-18.46,12.66-62.33,12.66-62.33Z"/><path class="cls-15" d="M656.75,309.05c7.66-.79,25.25-11.76,27.54-13.24s5.34,8.66,5.08,10.66-22.56,16.76-22.56,16.76-5.54-11.21-10.45-11.34-12.26,11.34-12.26,11.34c-9.32-8.39-3.12-22.83,3.26-25.15C647.36,298.08,653.65,309.37,656.75,309.05Z"/></g><line class="cls-14" x1="637.34" y1="460.07" x2="630.5" y2="499.27"/></g><g id="head-2" data-name="head"><path class="cls-24" d="M693.74,231.85a13.22,13.22,0,0,1-11.35,5.86c-8-.13-15.68-6.47-15.68-6.47s-7-7.1-6.24-13.4a7.37,7.37,0,0,1,2.51-4.65c6-5.4,15.36-.37,18.81,5.41s4.49,5.74,8.45,5.79C693.68,224.43,695.19,228.35,693.74,231.85Z"/><path class="cls-25" d="M682.39,237.71c-8-.13-15.68-6.47-15.68-6.47s-7-7.1-6.24-13.4c7.85-1.86,17.4.34,23.41,6.46C688.67,229.18,685.64,234.33,682.39,237.71Z"/><path class="cls-26" d="M671.22,226.39c-4.78-6.15-3.94-13.17,1.13-15"/><path class="cls-26" d="M677.59,230c-4.78-6.14-3.94-13.17,1.13-15"/><path class="cls-7" d="M688.46,244.93a75.68,75.68,0,0,1-4.2,8A71.63,71.63,0,0,1,677,263.14c-5,5.78-11.52,10.85-19.11,11.5-18.22,1.56-17.37-11.31-16.79-15.21,0-.09,0-.17,0-.25s3.95-8.13,8.34-16.14a128.56,128.56,0,0,1,7.26-12c5.85-8.16,13.92-9.84,21.9-6.47S687.48,232.78,688.46,244.93Z"/><path class="cls-20" d="M684.26,253A71.63,71.63,0,0,1,677,263.14l-.52,0a8.1,8.1,0,1,1,7.81-10.2Z"/><path class="cls-20" d="M652.26,249.86a9.69,9.69,0,0,1-9.68,9.69,9.42,9.42,0,0,1-1.51-.12c0-.09,0-.17,0-.25s3.95-8.13,8.34-16.14A9.66,9.66,0,0,1,652.26,249.86Z"/><path class="cls-24" d="M690.83,253.49,688.1,256c-4.46,4.2-5.42,5.24-5.42,5.24-2.49-6.24-3.07-16.72,1.64-24.45s10.31-8,13.26-5.61a2.51,2.51,0,0,1,.69.87C700.4,236,697.51,247.29,690.83,253.49Z"/><path class="cls-25" d="M698.27,232.08c-5.5,1.52-10.14,10.53-10.17,23.95-4.46,4.2-5.42,5.24-5.42,5.24-2.49-6.24-3.07-16.72,1.64-24.45s10.31-8,13.26-5.61A2.51,2.51,0,0,1,698.27,232.08Z"/><path class="cls-7" d="M679.15,264c3.3,4.59,13.83,2,14.51-4.73s-5.29-10.37-10.58-7.34S678.16,262.63,679.15,264Z"/><path class="cls-26" d="M689.88,231c1,5.39,5.37,9.74,8.12,10.48"/><path class="cls-26" d="M685.27,235.39c1,4.8,4.46,11.15,11.15,10.7"/><path class="cls-11" d="M656.9,238.39a1.41,1.41,0,1,0,1.41-1.41A1.41,1.41,0,0,0,656.9,238.39Z"/><circle class="cls-11" cx="667.69" cy="242.16" r="1.41"/><path class="cls-24" d="M683.88,254.35c.1,1.54-4.21,7.16-4.58,8.91-1.29,6.18-1.36,9.26-8.24,13.83-7.54,5-22,9.49-29.3,3.71-2.83-2.23-4.4-6.53-4.4-11.56a29.36,29.36,0,0,1,9.19-20.77,82,82,0,0,1-3.28,9.63,61.78,61.78,0,0,1,4.71-5.63,13.07,13.07,0,0,1,6.36-1.21c1.25.34,8.58,3.38,8.87,4.77s-.87,6.17.67,6.51,8.29-.39,10-1.49,6.32-8.34,6.75-9.45c.27-.69,1.41-.06,2.26.89A3.47,3.47,0,0,1,683.88,254.35Z"/><path class="cls-17" d="M689.53,258.59c-1.71-4-6.09-3.88-8.48-.68"/><path class="cls-17" d="M682.2,256.72c4.72-1.17,6.8,5.81.5,5.8"/><path class="cls-24" d="M655.62,230.76c-.35,2,8.88,3.71,9,.72S656,228.63,655.62,230.76Z"/><path class="cls-24" d="M678.36,234.9c-.07,2-9.45,1.84-9-1.12S678.44,232.75,678.36,234.9Z"/><path class="cls-17" d="M655.43,256.59c5.72.92,8.25,0,9.74-2.42"/><path class="cls-17" d="M654.1,247.87c1.9-3.87,4.42-5.27,6.91-5.55a5.63,5.63,0,0,0,4.77-4.6"/><path class="cls-25" d="M683.88,254.35c.1,1.54-4.21,7.16-4.58,8.91-1.29,6.18-1.36,9.26-8.24,13.83-7.54,5-22,9.49-29.3,3.71-2.83-2.23-4.4-6.53-4.4-11.56,8,6.86,19.73,7.59,26.93,5.53,10.16-2.92,16.37-16.43,18.62-22.28A3.47,3.47,0,0,1,683.88,254.35Z"/><path class="cls-26" d="M638.62,261.27c10.57,9,25.13,1.88,26,1.25"/><path class="cls-26" d="M637.42,270.84c8.8,4.62,22.71,5.9,33.12-8.77"/><path class="cls-26" d="M648.36,283.37c2.17-3.12,7.87-4.48,13.85-6.14,11.64-3.25,13.43-8.07,14.56-19.48"/></g><g id="upper_hand-2" data-name="upper hand"><path class="cls-16" d="M683.57,443.37a14.64,14.64,0,0,1-1.38,6.18,19.27,19.27,0,0,1-4.83,6.34c-5.38,4.78-13.76,7.85-23.18,7.85a39.54,39.54,0,0,1-15.42-3,25.19,25.19,0,0,1-11.4-9,15.22,15.22,0,0,1-2.58-8.36,13.6,13.6,0,0,1,.24-2.55c1.21-6.77,7.22-12.51,15.61-15.53A40.11,40.11,0,0,1,654.18,423,38.56,38.56,0,0,1,671.57,427a26.71,26.71,0,0,1,6.36,4.42C681.48,434.74,683.57,438.88,683.57,443.37Z"/><path class="cls-22" d="M682.19,449.55a19.27,19.27,0,0,1-4.83,6.34c-5.38,4.78-13.76,7.85-23.18,7.85a39.54,39.54,0,0,1-15.42-3,25.19,25.19,0,0,1-11.4-9C648.34,457.21,671,452.6,682.19,449.55Z"/><path class="cls-16" d="M748.64,364.71c-4.52,7.4-19.85,27.92-34.94,47.51-12.73,16.51-25.29,32.35-31.05,39.08a24.4,24.4,0,0,1-5.29,4.59,31.38,31.38,0,0,1-24.13,4c-5.84-1.47-10.9-4.82-13.66-10.13a20,20,0,0,1-2.14-7.48c-.44-4.76.75-10.55,3.2-17,4.63-12.14,13.72-26.55,24.65-40.65,1.34-1.73,2.72-3.46,4.11-5.18q3.21-4,6.58-7.84c.78-.91,1.56-1.8,2.36-2.7.62-.7,1.24-1.4,1.87-2.09l2.15-2.37.12-.13,2.19-2.35c1.49-1.59,3-3.16,4.49-4.69l2-2c.73-.74,1.47-1.48,2.21-2.2a.94.94,0,0,1,.1-.1q2.34-2.31,4.67-4.48s0,0,0,0l.21-.19a197.18,197.18,0,0,1,16.57-14h0c6.1-4.52,11.61-7.79,16.07-9.36,7.52-2.64,14.4.56,18.61,6.83C755,339.69,756.05,352.59,748.64,364.71Z"/><path class="cls-14" d="M730.32,390.37c-5.18,6.91-10.91,14.45-16.62,21.85-12.73,16.51-25.29,32.35-31.05,39.08a24.4,24.4,0,0,1-5.29,4.59"/><path class="cls-14" d="M640.63,425.29c4.63-12.14,13.72-26.55,24.65-40.65a316.77,316.77,0,0,1,32.9-36.18"/><path class="cls-14" d="M713.2,345.06c-5.26-3-10.44-1.88-19.83,8"/><path class="cls-9" d="M749.64,331.74a32.63,32.63,0,0,0-7.2-2.12c-8.84-1.57-17.94.5-27.48,4.65,6.1-4.52,11.61-7.79,16.07-9.36C738.55,322.27,745.43,325.47,749.64,331.74Z"/><path class="cls-22" d="M713.7,412.22c-12.73,16.51-25.29,32.35-31.05,39.08a24.4,24.4,0,0,1-5.29,4.59,31.38,31.38,0,0,1-24.13,4c-5.84-1.47-10.9-4.82-13.66-10.13,9.38,3.65,18.7,3.66,25.36.3a16.75,16.75,0,0,0,8.19-8.71,87.14,87.14,0,0,1,4.81-10C688.77,412.27,703.59,405.31,713.7,412.22Z"/></g><g id="hand-3" data-name="hand"><path class="cls-22" d="M606.56,330.34c-.48-2.69,8.55-5.56,15.57-6.36l1.32,11.87S608.22,339.68,606.56,330.34Z"/><path class="cls-7" d="M620.67,323.23c-3.65-13.63-3.74-35.69-2.49-38.81s3.77-1.95,5.27-1.86,2.2-3.92,7.27-3.92c0,0,.28-5.06,3.79-5.64,0,0-1.34-7.37,4.57-6.19,1.34.27,0,8.45,3.4,20,.19.65,7.35-4.48,9-5.65,2.65-1.91,7.78-2.54,4.44,3.07-2,3.41-5.33,8.8-7.65,12.18a40.77,40.77,0,0,0-6.85,23.36Z"/><path class="cls-17" d="M617.49,291.12a27.05,27.05,0,0,1,.69-6.7c1.24-3.11,3.77-1.95,5.27-1.86s2.2-3.92,7.27-3.92c0,0,.28-5.06,3.79-5.64,0,0-1.34-7.37,4.57-6.19,1.34.27,0,8.45,3.4,20,.19.65,7.35-4.48,9-5.65,2.65-1.91,7.78-2.54,4.44,3.07-1,1.7-2.35,3.9-3.72,6.1"/><path class="cls-17" d="M630.72,278.64a17.08,17.08,0,0,0,.17,2.81"/><path class="cls-17" d="M634.51,273c.43,2.47,1.06,4.76,1.06,4.76"/><path class="cls-12" d="M614.25,317.6,615.84,340s29.13-5,28.69-5.65-1.2-19-1.2-19Z"/><path class="cls-16" d="M671.41,427q0,.87-.09,1.74c0,.44-.06.88-.1,1.32a2.46,2.46,0,0,1,0,.26c0,.5-.1,1-.16,1.48-.13,1.12-.3,2.23-.51,3.32a40.92,40.92,0,0,1-5.76,15,24.59,24.59,0,0,1-11.7,9.83,25.07,25.07,0,0,1-14.32.88l-.15,0c-9.58-2.07-15.3-12.74-18.82-24.94-3.21-11.15-4.59-23.58-5.38-31.91-1.68-17.5-8-73.54-8-73.54,4.47,2.24,44.47-7.1,44.47-7.1s8.22,32.6,14.26,61.41c3.24,15.45,5.86,29.82,6.24,37.48C671.44,423.74,671.46,425.35,671.41,427Z"/><path class="cls-14" d="M619.78,435.78c-3.21-11.15-4.59-23.58-5.38-31.91-1.68-17.5-8-73.54-8-73.54"/><path class="cls-14" d="M650.86,323.23s8.22,32.6,14.26,61.41c3.24,15.45,5.86,29.82,6.24,37.48.08,1.62.1,3.23,0,4.83a53.87,53.87,0,0,1-1,8.7"/><path class="cls-22" d="M664.77,450a24.59,24.59,0,0,1-11.7,9.83,25.07,25.07,0,0,1-14.32.88l-.15,0c-9.58-2.07-15.3-12.74-18.82-24.94a52.45,52.45,0,0,0,5.08,5,49.73,49.73,0,0,0,14.55,8.92C648.79,453.39,658.11,453.4,664.77,450Z"/></g></g><g id="Man_mid" data-name="Man mid"><g id="upper_hand-3" data-name="upper hand"><path class="cls-15" d="M385.44,451.89a50,50,0,0,1-11.15-9c-10.9-11.25-21.37-28.63-29.11-43.33-5.32-10.1-9.34-18.94-11.33-23.67-.11-.25-.22-.52-.33-.8-.28-.69-.59-1.46-.9-2.29-6.67-17.42-20.41-64.89,8.6-72.36h0c11.65-3,17.76,2,30.33,21.57,2.45,3.81,5.15,8.17,8.18,13.13,18.63,30.51,42.86,80.82,45.13,94.6S404.08,462.26,385.44,451.89Z"/><path class="cls-27" d="M371.56,322c-5.32-.12-11.57,2.15-17.16,8.28-4.69,5.15-8.91,13-11.72,24.46a36.52,36.52,0,0,1-10.06,18.05c-6.67-17.42-20.41-64.89,8.6-72.36h0C352.88,297.45,359,302.48,371.56,322Z"/><path class="cls-28" d="M374.29,442.9c-10.9-11.25-21.37-28.63-29.11-43.33-5.32-10.1-9.34-18.94-11.33-23.67-.11-.25-.22-.52-.33-.8L349,361.67c9.14.28,17.14,26.28,9.57,32.81-6.47,5.57-6,16.89,6.24,19C373.82,415,374.35,436.17,374.29,442.9Z"/></g><g id="body-4" data-name="body"><path class="cls-29" d="M301.46,326.91c-18-1.43-20.22-17.74-19.08-22.83s4.41-28.36,5.52-39.27c2.71-26.73,30.65-17.26,30.47,7.25,0,1.66-.12,5.52-.2,10.19s-.12,10.38.05,15.29c0,.25,0,.5,0,.75C318.6,308.12,319.49,328.34,301.46,326.91Z"/><path class="cls-30" d="M318.22,297.54c-17.6.42-17.89-11.48-16.81-19.94l16.76,4.65C318.09,287,318.05,292.63,318.22,297.54Z"/><path class="cls-15" d="M354.4,330.3c-.86,6.8-2.06,13.76-3.17,19.68-1,5.49-1.94,10.08-2.39,12.85-.06.38-.12.73-.16,1-.42,3-1.78,17.1-3.5,35.7-2.86,31-6.73,74.37-9,99.7H220.06c1-7.71,2.2-16.83,3.39-26.07,3-23.46,6.06-47.62,6.18-50.85.24-6.32-2.76-46.25-5.75-67.56-.09-.63-.18-1.25-.27-1.85-2.82-19.07,3.38-28.09,12.51-31.47a22.32,22.32,0,0,1,2.48-.77c8.66-2.18,22.68-6.61,38.54-11.36,3.26-1,6.6-2,10-3,1.33-.38,2.81-.76,4.43-1.13.64.46,1.32.92,2,1.38l1.14.7q.33.21.66.39c1.3.77,2.7,1.51,4.18,2.2.54.26,1.1.51,1.67.75h0c.55.24,1.11.47,1.69.69l.05,0c.46.18.94.35,1.42.52l.08,0,.7.24,1.45.47c1.14.36,2.31.68,3.52,1,1.27-1.43,2.34-2.77,3.25-4l.8-1.13.5-.75c.3-.47.58-.91.83-1.34s.55-1,.78-1.42a23.53,23.53,0,0,0,1.2-2.7l.22-.65c1.81-.15,3.67-.29,5.58-.41h0c2.38-.16,4.83-.29,7.35-.41q5.08-.24,10.52-.34h0q3.94-.09,8.06-.09C356.44,300.34,356.33,314.92,354.4,330.3Z"/><path class="cls-31" d="M351.24,350c-1.16,6.24-2.2,11.33-2.56,13.88-.42,3-1.78,17.1-3.5,35.7"/><path class="cls-27" d="M354.4,330.3c-4.69,5.15-8.91,13-11.72,24.46A39.43,39.43,0,0,1,337.43,367a33,33,0,0,1-4.81,5.77,29.11,29.11,0,0,1-14.2,7.44,30.68,30.68,0,0,1-7.22.63c-6.74-.2-14-2.5-21.4-7.25A67.16,67.16,0,0,1,279.19,365c-5.94-5.86-11.54-10.2-17-13.05-12.3-6.39-24.13-5.34-38.27,2.83-.09-.63-.18-1.25-.27-1.85-2.82-19.07,3.38-28.09,12.51-31.47a22.32,22.32,0,0,1,2.48-.77c8.66-2.18,22.68-6.61,38.54-11.36,3.26-1,6.6-2,10-3,1.33-.38,2.81-.76,4.43-1.13.65.46,1.32.92,2,1.38a52.9,52.9,0,0,0,13.06,6c1.14.36,2.31.68,3.52,1,1.27-1.43,2.34-2.77,3.25-4a29.76,29.76,0,0,0,4.11-7.34c.08-.23.16-.45.22-.65,1.81-.15,3.67-.29,5.58-.41h0c2.38-.16,4.84-.29,7.36-.41q5.08-.24,10.52-.34h0q3.94-.09,8.06-.09C356.44,300.34,356.33,314.92,354.4,330.3Z"/><path class="cls-28" d="M249.57,376.39s22.21,4.5,13.62,22.44c-7.21,15.05.84,21.8,8.8,16.7,8.69-5.57,25.36,1.08,25.36,13.77,0,24-52.89,39.73-59.45,8.09S227.15,373,249.57,376.39Z"/><path class="cls-32" d="M337.43,367l1.07,1.22-18.28,30.05-.81,8.84L289,376.43l.85-2.8,2.42-8-22.6-22.5c.18-2,5.27-23.8,7.69-33.57l4.91-.9,11.37-2.07a52.9,52.9,0,0,0,13.06,6c1.14.36,2.31.68,3.52,1,1.27-1.43,2.34-2.77,3.25-4a29.76,29.76,0,0,0,4.11-7.34l5.8-1.06h0c2.38-.16,4.84-.29,7.36-.41l12,41.29-11.09,18.36Z"/><path class="cls-12" d="M326.35,307.57c-.63,11.12-2.35,27.4-4.16,42.71-1.34,11.36-2.74,22.18-3.77,30-1,7.24-1.6,11.86-1.6,11.86a107.52,107.52,0,0,1-5.62-11.23c-2-4.57-4.38-10.12-7-16.56h0c-5.38-13-12.07-29.71-20.29-49.3l-1.65-6.31,11.37-2.07a52.9,52.9,0,0,0,13.06,6c1.14.36,2.31.68,3.52,1,1.27-1.43,2.34-2.77,3.25-4a29.76,29.76,0,0,0,4.11-7.34l5.8-1.06h0Z"/><path class="cls-16" d="M319,314.56s-.35,1.86-.94,4.18c-1,3.88-2.66,9.06-4.56,9.06s-5.27-2.91-7.82-5.28c-1.76-1.64-3.07-3-3.07-3l4.06-6.85c1.14.36,2.31.68,3.52,1,1.27-1.43,2.34-2.77,3.25-4Z"/><path class="cls-16" d="M322.19,350.28c-2.59,21.91-5.37,41.83-5.37,41.83-3-4.93-7.15-14.45-12.66-27.79h0c1.48-7.48,4.5-25.18,6.62-40.17l4.53-1C317.25,329.39,320.31,342.21,322.19,350.28Z"/><path class="cls-11" d="M310.17,313.61l-4.51,8.91L303,327.8s-16-7.61-25.68-18.2a1.3,1.3,0,0,1-.17-.26c-1.18-2.67,3.45-16.23,6.4-11.8a32.67,32.67,0,0,0,8,7.71,52.42,52.42,0,0,0,15.09,7.4C307.79,313,309,313.33,310.17,313.61Z"/><path class="cls-11" d="M321.06,320.7l-3-2-7.87-5.13c1.27-1.43,2.34-2.77,3.25-4a28.43,28.43,0,0,0,4.33-8,8.61,8.61,0,0,0,.51-2.64,7.3,7.3,0,0,1,5.08,2.23h0a7.42,7.42,0,0,1,1.72,3.63C326.22,310.77,321.06,320.7,321.06,320.7Z"/><polyline class="cls-31" points="310.92 499.27 319.41 407.15 320.22 398.31 316.82 392.11"/></g><g id="hand-4" data-name="hand"><path class="cls-29" d="M485.22,297.85c-3-4-5.76-5.56-8.28-5.77.24-.54.47-1.1.7-1.68,2-5.06.1-7-1.62-6.49s-10.36,10.09-11.35,12c-2.65,5.16-10,25.68-10.66,27.59,1.5,12.19,17.59,16.1,17.59,16.1,1.69-5.08,4.95-8.21,8.54-10.69s5.28-6.51,9-14.41C491.81,308.94,491.47,306.32,485.22,297.85Z"/><path class="cls-33" d="M485.22,297.85c-3-4-5.76-5.56-8.28-5.77.24-.54.47-1.1.7-1.68,2-5.06.1-7-1.62-6.49s-10.36,10.09-11.35,12"/><path class="cls-28" d="M480.71,349.53c1.82-4.18-7.32-8.71-7.32-8.71l-5,9.22S476.87,355.45,480.71,349.53Z"/><path class="cls-11" d="M448.38,330.15c3.55-5.41,6.4-9.84,6.4-9.84a92.05,92.05,0,0,0,22.05,21.16L472.3,350A29.65,29.65,0,0,1,448.38,330.15Z"/><path class="cls-15" d="M385.45,451.89c10,10,33.53,12.11,55.39-30s39.84-72.18,39.84-72.18-10.92,2.51-30.51-24.13c0,0-20.16,27-40.52,51.7C386.19,405.73,367.61,434,385.45,451.89Z"/><path class="cls-31" d="M450.17,325.57s-20.16,27-40.52,51.7a268.09,268.09,0,0,0-19.78,26.6"/><path class="cls-33" d="M473.49,317.27s4.39-10.19-1.47-17.62c0,0,4.21-5.88,4.92-7.57"/><line class="cls-34" x1="473.49" y1="300.21" x2="519.84" y2="193.72"/><path class="cls-35" d="M494.2,304.45c3.88,2-2.92,12-6.43,11.3C483.28,314.79,490.08,302.37,494.2,304.45Z"/><path class="cls-35" d="M491,296.87c4.8,2.51-3.72,15.65-8.06,14.67S485.9,294.2,491,296.87Z"/><path class="cls-35" d="M488,292.21c4.56,3.05-5.22,17-9.47,15.62S483.14,289,488,292.21Z"/><path class="cls-35" d="M485,282.16c5.07,2.09-1.77,17.66-6.2,17.19S479.58,279.93,485,282.16Z"/></g><g id="upper_hand-4" data-name="upper hand"><path class="cls-15" d="M261.8,364.89c-.11.93-.24,1.88-.4,2.83-.09.52-.17,1-.27,1.58s-.2,1.07-.32,1.61c-.18.92-.38,1.85-.61,2.78-.35,1.45-.71,3-1.07,4.55-.13.53-.25,1.07-.37,1.61q-.56,2.43-1.14,5c-.13.57-.26,1.16-.39,1.75-.08.34-.15.69-.23,1-.18.77-.35,1.54-.52,2.33-1.09,4.92-2.25,10.13-3.48,15.45-.3,1.31-.61,2.63-.92,3.95-.09.4-.19.81-.29,1.21l-.66,2.77c0,.21-.1.43-.16.65-.24,1-.48,2-.73,3-.19.79-.39,1.57-.59,2.36s-.33,1.32-.51,2c-.49,1.89-1,3.79-1.5,5.66l-.6,2.19c-1.36,4.85-2.78,9.56-4.29,14-.2.59-.41,1.18-.61,1.75-.51,1.45-1,2.87-1.56,4.25-.21.55-.42,1.1-.64,1.64q-1.16,2.91-2.37,5.55c-.43.92-.86,1.82-1.3,2.68-.11.23-.23.46-.35.68-.42.8-.84,1.57-1.27,2.31s-.82,1.4-1.23,2.06l0,.07c-.44.67-.87,1.32-1.32,1.94a27.23,27.23,0,0,1-3,3.51c-.15.16-.31.31-.47.45a15.08,15.08,0,0,1-3,2.23l-.58.29-.07,0q-.36.17-.72.3c-.25.1-.5.18-.76.26-18.46,5.36-28.91-5.09-30.62-20.69a39.91,39.91,0,0,1-.2-4.33h0c0-11.79,3.48-32.45,7.79-51.26,2.45-10.69,5.17-20.78,7.67-28.31l1.2-3.64c7-21.3,12.89-41.3,26.83-43.49,13.61-2.13,24.53,10.85,26,30.49A65.22,65.22,0,0,1,261.8,364.89Z"/><path class="cls-31" d="M223.45,473.2a7.58,7.58,0,0,0,.76-.26q.36-.13.72-.3l.07,0a5.23,5.23,0,0,0,.58-.29,15.08,15.08,0,0,0,3-2.23c.16-.14.31-.29.47-.45a27.23,27.23,0,0,0,3-3.51c.45-.61.89-1.26,1.32-1.94l0-.07c.42-.66.83-1.34,1.23-2.06h0q.65-1.11,1.26-2.31c.12-.22.24-.45.35-.68.44-.86.87-1.76,1.3-2.68q1.22-2.64,2.37-5.55c.22-.54.43-1.09.64-1.64.53-1.38,1-2.8,1.56-4.25.2-.58.41-1.16.61-1.75,1.51-4.44,2.93-9.15,4.29-14q.3-1.08.6-2.19c.51-1.87,1-3.77,1.5-5.66.18-.67.34-1.33.51-2s.4-1.57.59-2.36c.25-1,.49-2,.73-3,.06-.22.11-.44.16-.65.22-.93.45-1.85.66-2.77.1-.4.2-.81.29-1.21.31-1.32.62-2.64.92-3.95,1.23-5.32,2.39-10.53,3.48-15.45.18-.78.35-1.56.52-2.33.08-.35.15-.7.23-1l.39-1.75q.58-2.6,1.14-5c.12-.54.24-1.08.37-1.61.36-1.58.72-3.1,1.07-4.55.23-.93.43-1.86.61-2.78.12-.54.23-1.08.32-1.61s.19-1.06.27-1.58c.16-1,.29-1.9.4-2.83,0-.22.06-.44.08-.66"/><path class="cls-27" d="M262.15,352c-12.3-6.39-24.13-5.34-38.27,2.83A117.83,117.83,0,0,0,209.29,365c7-21.3,12.89-41.3,26.83-43.49C249.73,319.34,260.65,332.32,262.15,352Z"/><path class="cls-28" d="M234.65,462.05c-.4.72-.81,1.4-1.23,2.06l0,.07c-.43.68-.87,1.33-1.32,1.94a27.23,27.23,0,0,1-3,3.51c-.15.16-.31.31-.47.45a15.08,15.08,0,0,1-3,2.23l-.58.29-.07,0q-.36.17-.72.3c-.25.1-.5.18-.76.26-18.46,5.36-28.91-5.09-30.62-20.69a39.91,39.91,0,0,1-.2-4.33h0c0-11.79,3.48-32.45,7.79-51.26,10.13,5.94,12.9,18.82,7.85,32.84a52.77,52.77,0,0,1-4.2,8.89C193,457.55,215.82,471.16,234.65,462.05Z"/></g><g id="head-3" data-name="head"><path class="cls-36" d="M311.85,232.69c4.49-2.76,10.16-3.19,9.94,16.15Z"/><path class="cls-36" d="M316.25,231.26a34.63,34.63,0,0,1-5.17,8.22l1.22,22.13-24,.8-3.74.13c-2.19-7.75-2.52-13-4.54-14.33a3,3,0,0,1-.8-3.57c.75-2.12-1.73-.93-3.33-3.59-.89-1.48-1.15-7.63,5.54-6.88-2.19-4.28,1.2-7.71,9.11-7.41-1.81-.87-2.31-3.85,2.08-4.06a134.55,134.55,0,0,1,15.94,0,11.35,11.35,0,0,1,5.72,2.12A5.27,5.27,0,0,1,316.25,231.26Z"/><path class="cls-37" d="M316.25,231.26a34.63,34.63,0,0,1-5.17,8.22l1.22,22.13-24,.8c.78-12.76-1-17.05-1.85-21s.75-9.16,5.78-8,13.33-1.79,11.94-4.54c-1-2,3.17-6.35,10.11-4.07A5.27,5.27,0,0,1,316.25,231.26Z"/><path class="cls-38" d="M290.53,226.77l9.33.5"/><path class="cls-38" d="M281.42,234.17l10.11,1"/><path class="cls-29" d="M317.68,286.2c-15.27,3-27.92-18.7-27.92-18.7-7.11,1.44-9.74-5.4-7.63-10a8,8,0,0,1,.82-1.41,5.31,5.31,0,0,1,5.48-2.31A9.66,9.66,0,0,1,293.5,257c1.44,1.58,3.11-.21,1.93-3s-2.37-12.4-.92-14.37,14.63-4.68,18.58-4.88a6.15,6.15,0,0,1,.77,0,1.28,1.28,0,0,1,.51.2,8.89,8.89,0,0,1,2.11,2.26c.48.64,1,1.4,1.49,2.24a73.32,73.32,0,0,1,3.82,7.15c.41.87.82,1.76,1.21,2.66s.71,1.65,1,2.48c.57,1.39,1.08,2.77,1.53,4.12.36,1.07.68,2.12.95,3.12,0,.06,0,.12.05.18C329.16,269,330.61,283.64,317.68,286.2Z"/><path class="cls-39" d="M308.4,260.59c3.14.55,7.87.22,9.79-1.65,0,0,.72,6.78-3.34,7.34C310.15,266.93,308.4,260.59,308.4,260.59Z"/><path class="cls-33" d="M321.5,278a6.47,6.47,0,0,1-.43,4.92"/><path class="cls-33" d="M289.77,267.5a10,10,0,0,0,3.53-1.75"/><path class="cls-33" d="M285,259.89c2.27-3,6.63-1.11,7.83,1.94"/><path class="cls-33" d="M292.22,260.67c-4.71-3.54-6.36,4.45-.86,3.31"/><path class="cls-33" d="M311.31,243.6c-.14,2.09,2.73,5.47,5.37,6.28s3.46,1.54,2.77,3.71"/><path class="cls-36" d="M298.58,243.69c.4,1.66,9.44-.28,8.22-3.37S297.91,241,298.58,243.69Z"/><path class="cls-36" d="M310.76,238.34c-.12,2,7.83,1.94,7.8.45S311,234.71,310.76,238.34Z"/><path class="cls-11" d="M305.91,248.19a1.41,1.41,0,1,0,1.41-1.41A1.41,1.41,0,0,0,305.91,248.19Z"/><circle class="cls-11" cx="316.82" cy="246.14" r="1.41"/><path class="cls-40" d="M306.5,259.13c-.87,1.95-3.69,2.6-6.31,1.44s-4-3.69-3.18-5.64,3.69-2.59,6.31-1.43S307.36,257.18,306.5,259.13Z"/><path class="cls-40" d="M326.56,259.12c-2.12.94-4.38.62-5.4-.9-1.19-1.77-.23-4.5,2.15-6.1a6.71,6.71,0,0,1,.72-.42c.57,1.39,1.08,2.77,1.53,4.12.36,1.07.68,2.12.95,3.12C326.53,259,326.54,259.06,326.56,259.12Z"/></g><g id="hand-5" data-name="hand"><path class="cls-35" d="M354.37,419.88c10.71-1.38,14.44-3.8,18.59-5.39s7.26-1.38,7.74,1c0,0,4.14-1.85,5.53-1.11,2.07,1.11.77,5-5.52,7.7s-24.89,10.34-28.34,9.3S346.3,423.7,354.37,419.88Z"/><path class="cls-29" d="M327.1,452.43s24.56-11.12,30.59-14.5S382.32,426,384.12,423s-1.13-3.29-4.73-2-17.8,6.06-19.16,6-9,0-9,0c.62-6,10.56-10.11,12-13,1.6-3.11-2.93-3-5.79-2.15s-14.43,4.88-17.29,6.47-5.41,5.23-11.37,6.12Z"/><path class="cls-33" d="M374.62,429.19c4.74-2.52,8.71-4.88,9.5-6.18,1.8-3-1.13-3.29-4.73-2s-17.8,6.06-19.16,6-9,0-9,0c.62-6,10.56-10.11,12-13,1.6-3.11-2.93-3-5.79-2.15-1.67.5-6.34,2.08-10.49,3.63"/><path class="cls-33" d="M361.28,423c6.5-2.09,17.47-6.52,19.42-7.48"/><path class="cls-33" d="M351.23,427a6.53,6.53,0,0,0,0,2.27"/><polygon class="cls-11" points="317.81 424.48 328.82 424.48 328.82 456.04 318.95 457.94 317.81 424.48"/><path class="cls-15" d="M322.19,460.4c.27.26-19.47,4.93-42.57,9.56-25.31,5.07-54.65,10.1-66.11,9.23-16-1.21-23.42-17.57-20.88-31h0a22.29,22.29,0,0,1,6.88-12.74,36.47,36.47,0,0,1,8.76-5.68,51.82,51.82,0,0,1,11-3.64l.1,0,1.26-.26,1.67-.31c.7-.12,1.4-.23,2.11-.33l.45-.06c.43-.07.85-.12,1.28-.17l1.38-.16h.06l1.33-.13c.46-.05.93-.09,1.39-.12l1.38-.1c.93-.07,1.85-.12,2.77-.15l1,0,.58,0,2.64-.06h1.23c1.06,0,2.11,0,3.14,0l1.81,0h.1l3.44.08c2,0,3.94.1,5.76.15l2,0h4.12c15.29-.18,59.92-1.47,59.92-1.47S321.63,459.85,322.19,460.4Z"/><path class="cls-31" d="M320.22,423s-44.63,1.29-59.92,1.48c-10.18.12-26.42-1.57-41,1.63"/><path class="cls-28" d="M279.62,470c-25.31,5.07-54.65,10.1-66.11,9.23-16-1.21-23.42-17.57-20.88-31h0a22.29,22.29,0,0,1,6.88-12.74,36.47,36.47,0,0,1,8.76-5.68,52.77,52.77,0,0,1-4.2,8.89c-11.09,18.91,11.75,32.52,30.58,23.41a24.76,24.76,0,0,0,2.21-1.17C252.4,451.68,272.54,464.69,279.62,470Z"/><path class="cls-31" d="M320.83,460.86c-4.84,1.31-21.84,5.22-41.21,9.1-25.31,5.07-54.65,10.1-66.11,9.23"/></g></g></svg>