<svg xmlns="http://www.w3.org/2000/svg" xmlns:xlink="http://www.w3.org/1999/xlink" viewBox="0 0 800 600"><defs><style>.cls-1{fill:#a7caf0;}.cls-2{fill:#fed81d;}.cls-21,.cls-3,.cls-33{fill:#ddd;}.cls-10,.cls-20,.cls-21,.cls-3,.cls-4,.cls-5,.cls-6,.cls-7,.cls-9{stroke:#ddd;}.cls-3,.cls-4,.cls-6{stroke-miterlimit:10;}.cls-13,.cls-16,.cls-18,.cls-22,.cls-25,.cls-27,.cls-32,.cls-34,.cls-37,.cls-4,.cls-42,.cls-45,.cls-5,.cls-6,.cls-7,.cls-8{fill:none;}.cls-10,.cls-13,.cls-16,.cls-18,.cls-20,.cls-21,.cls-22,.cls-25,.cls-27,.cls-32,.cls-34,.cls-37,.cls-38,.cls-42,.cls-43,.cls-45,.cls-5,.cls-7,.cls-8,.cls-9{stroke-linecap:round;stroke-linejoin:round;}.cls-10,.cls-5,.cls-6{stroke-width:2px;}.cls-8{stroke:#f9f9f9;}.cls-10,.cls-9{fill:#ededed;}.cls-11{fill:#fcc71f;}.cls-12{clip-path:url(#clip-path);}.cls-13,.cls-34{stroke:#fff;}.cls-13,.cls-16,.cls-18,.cls-22,.cls-25,.cls-32,.cls-37,.cls-38,.cls-42,.cls-43,.cls-45{stroke-width:0.75px;}.cls-14{fill:#683f1d;}.cls-15,.cls-38,.cls-43{fill:#fff;}.cls-16{stroke:#4bbac2;}.cls-17{fill:#ffe05c;}.cls-18{stroke:#f7ad2b;}.cls-19{fill:#febd9d;}.cls-20{fill:#f4f4f4;}.cls-22,.cls-38{stroke:#ef8a66;}.cls-23{fill:#7f542d;}.cls-24{fill:#704725;}.cls-25{stroke:#a56f42;}.cls-26{fill:#f4af90;}.cls-27,.cls-45{stroke:#683f1d;}.cls-28{fill:#f4a789;}.cls-29{clip-path:url(#clip-path-2);}.cls-30{fill:#c3dcf8;}.cls-31{fill:#d0e5f7;}.cls-32{stroke:#83addf;}.cls-35{fill:#b57724;}.cls-36{fill:#bf8228;}.cls-37{stroke:#9b621f;}.cls-39{fill:#604730;}.cls-40{fill:#473526;}.cls-41{fill:#b25e47;}.cls-42,.cls-43{stroke:#934735;}.cls-44{fill:#a0503d;}.cls-46{fill:#83addf;}.cls-47{fill:#f7ad2b;}.cls-48{clip-path:url(#clip-path-3);}</style><clipPath id="clip-path"><path class="cls-1" d="M645.59,501.45c-21.9,15.65-49.81,5-49.81,5v-8.17c-22.36.35-46-6.78-46-6.78-1.49-17,1.32-37.8,3.05-48.39.7-4.27,1.23-6.87,1.23-6.87,13.33-4.34,90.28-2.8,90.28-2.8.29,2.52.51,5.48.7,8.74C646.38,464.79,645.59,501.45,645.59,501.45Z"/></clipPath><clipPath id="clip-path-2"><path class="cls-2" d="M382.44,454.37c-6.12,11.55-11.82,37.78-14.13,49.6,0,0,20,7.88,51.76,6.79s38.18-6.66,38.18-6.66,3.81-37.63-6.25-53.53Z"/></clipPath><clipPath id="clip-path-3"><path class="cls-1" d="M164.88,297.31c-5.74,14-15.51,52.36-22.72,103.17,0,0,32.37-2,48.24,9.88.45-.75,8.39-47,9.29-48.67s6.44-1.94,7.79-1.05,31.65,19.45,35,20.52C261.09,387,282,355.63,272.32,344c-4.13-5-15.58-15.87-32.65-45.07Z"/></clipPath></defs><g id="background"><path class="cls-3" d="M477.59,142.67l.21,6.59a1.43,1.43,0,0,0,.65,1.14L484,154a1.41,1.41,0,0,1-.28,2.51l-6.2,2.24a1.42,1.42,0,0,0-.89,1L475,166.06a1.41,1.41,0,0,1-2.47.51l-4.05-5.21a1.42,1.42,0,0,0-1.2-.54l-6.58.39a1.41,1.41,0,0,1-1.25-2.2l3.7-5.46a1.45,1.45,0,0,0,.15-1.31l-2.4-6.14a1.41,1.41,0,0,1,1.7-1.87l6.34,1.83a1.41,1.41,0,0,0,1.28-.26l5.1-4.18A1.42,1.42,0,0,1,477.59,142.67Z"/><path class="cls-3" d="M622,206l4.84,4.48a1.44,1.44,0,0,0,1.27.34l6.43-1.45a1.41,1.41,0,0,1,1.6,2l-2.76,6a1.41,1.41,0,0,0,.06,1.31l3.37,5.67a1.41,1.41,0,0,1-1.38,2.12l-6.54-.77a1.4,1.4,0,0,0-1.23.47l-4.35,4.95a1.4,1.4,0,0,1-2.44-.65l-1.29-6.47a1.41,1.41,0,0,0-.83-1l-6-2.61a1.4,1.4,0,0,1-.14-2.52l5.76-3.22a1.42,1.42,0,0,0,.71-1.11l.61-6.56A1.41,1.41,0,0,1,622,206Z"/><path class="cls-4" d="M145.81,162.81H121.13a12.3,12.3,0,0,1,0-24.59h24.68"/><path class="cls-4" d="M145.52,378.68h-5.38a16,16,0,1,1,0-32.06h5.67"/><rect class="cls-4" x="471.58" y="450.23" width="65.66" height="32.07" rx="15.76"/><rect class="cls-4" x="618.83" y="470.63" width="60.89" height="11.15" rx="5.48"/><path class="cls-4" d="M671.94,134.93h6.92a12.3,12.3,0,1,1,0,24.59h-6.92"/><path class="cls-5" d="M640.38,436.16h-463a31.6,31.6,0,0,1-31.56-31.56V120.7a31.59,31.59,0,0,1,31.56-31.56h463a31.59,31.59,0,0,1,31.56,31.56V404.6A31.59,31.59,0,0,1,640.38,436.16Z"/><rect class="cls-6" x="168.2" y="111.53" width="481.36" height="302.24" rx="9.17"/><polyline class="cls-7" points="623.16 315.54 623.16 348.96 538.58 348.96 538.58 229.81"/><line class="cls-7" x1="623.16" y1="231.23" x2="623.16" y2="249.9"/><line class="cls-7" x1="553.47" y1="214.51" x2="618.35" y2="214.51"/><line class="cls-7" x1="584.92" y1="230.45" x2="602.41" y2="230.45"/><line class="cls-7" x1="584.92" y1="238.64" x2="599.07" y2="238.64"/><line class="cls-7" x1="553.1" y1="279.27" x2="566" y2="279.27"/><line class="cls-7" x1="553.1" y1="290.53" x2="560.05" y2="290.53"/><rect class="cls-7" x="595.51" y="249.9" width="42.97" height="65.64"/><line class="cls-7" x1="611.26" y1="261.18" x2="623.16" y2="261.18"/><line class="cls-7" x1="616.34" y1="269.98" x2="623.16" y2="269.98"/><path class="cls-7" d="M382.83,301.55c2.54,5.93-12.71,17-21.34,11.86-4.93,7.31-19.77,2.29-16.23-2-9.25.81-19.67-4-15.46-11.95-11.47-4.45-6-14.63,5.39-14.87-9.84-14-2-24.57,14.1-23.53-.17-17,20.78-16.27,22.43,1.3C384,258,394.19,270.64,386,280.59,397.23,286,392.55,297.92,382.83,301.55Z"/><path class="cls-7" d="M346.49,270.23H374.8s4.3,15.78-2,32.09l-29.67-.46S351.13,284.47,346.49,270.23Z"/><line class="cls-7" x1="352.87" y1="278.23" x2="367.28" y2="278.23"/><line class="cls-7" x1="353.79" y1="284.48" x2="364.68" y2="284.48"/><line class="cls-7" x1="353.08" y1="290.45" x2="368.19" y2="290.45"/><path class="cls-3" d="M545.25,223.69c-3.18,7.18-14.78,9.8-21.39,5.23-3.07,7.62-17.09,9.29-24.22,5.64,2.12-9.64-3.61-15.47-10.88-15.61-2.13-6.21-.5-13.06,4.9-15.34-4.66-9.72,3.26-15,11.51-10.54-.25-9.63,11.75-20,24.49-9.39,9.55-7.25,22.69,3.27,16.81,17.72C557.66,204.18,554.8,225.16,545.25,223.69Z"/><path class="cls-5" d="M251.11,137.22h44.82c-2,13.78,1,36.37,9.95,54.12H256.51S241.94,179.54,251.11,137.22Z"/><path class="cls-7" d="M416.89,172.15l37.36.08s5.43,18.39-6.5,38.26l-40.43-1.64S419.65,191,416.89,172.15Z"/><line class="cls-7" x1="423.71" y1="181.1" x2="448.11" y2="181.1"/><line class="cls-7" x1="424.06" y1="189.28" x2="443.53" y2="189.28"/><line class="cls-7" x1="423.71" y1="199.99" x2="432.91" y2="199.99"/><line class="cls-7" x1="434.99" y1="199.99" x2="441.11" y2="199.99"/><path class="cls-7" d="M317.28,124.47l74.13,1s5.5,30.56-5.85,70.29h-76S322.22,161.34,317.28,124.47Z"/><line class="cls-7" x1="358.4" y1="152.5" x2="379.86" y2="153.16"/><line class="cls-7" x1="367.59" y1="146.82" x2="380.74" y2="147.23"/><line class="cls-7" x1="377.56" y1="141.5" x2="381.73" y2="141.63"/><line class="cls-7" x1="374.36" y1="134.73" x2="381.73" y2="134.96"/><rect class="cls-3" x="356.76" y="165.12" width="20.81" height="19.33"/><line class="cls-7" x1="469.24" y1="231.8" x2="487.63" y2="231.8"/><line class="cls-7" x1="465.28" y1="239.9" x2="483.67" y2="239.9"/><line class="cls-7" x1="462.52" y1="248.61" x2="480.91" y2="248.61"/><path class="cls-7" d="M496.33,252.38c3.36,10.67-12.84,17.78-20.35,6.92-7.71,13.23-38,4.93-24.51-10.57-9.53-.88-7.93-19.36,3-17.8-5.72-16.68,17.4-22.79,23.72-8.18a17,17,0,0,1,10.6-3.8c7.27.14,13,6,10.88,15.61-.14.66-.32,1.33-.54,2C508.58,240.33,503.24,251.79,496.33,252.38Z"/><line class="cls-8" x1="511.4" y1="197.18" x2="531.14" y2="197.18"/><line class="cls-8" x1="510.91" y1="205.38" x2="527.14" y2="205.38"/><line class="cls-8" x1="510.35" y1="216.37" x2="522.3" y2="216.37"/><rect class="cls-9" x="551.23" y="233.24" width="24.22" height="33.31"/><polygon class="cls-3" points="445.79 169.54 459.81 184.45 464.52 178.46 451.08 165.12 445.79 169.54"/><polygon class="cls-3" points="409.64 177.1 423.71 162.1 429.13 167.12 415.31 183.46 409.64 177.1"/><path class="cls-3" d="M587.68,254.39l5.45,4.69s13.32-14.17,13.07-14.17-6.06-4.34-6.06-4.34Z"/><polygon class="cls-3" points="626.61 246.36 632.59 241.24 646.85 256.35 640.27 261.99 626.61 246.36"/><path class="cls-9" d="M628.77,172.46a36.67,36.67,0,0,1-71-11.38,27.23,27.23,0,1,0,34.15-37.18c-.7-.26-1.39-.49-2.09-.68a36.68,36.68,0,0,1,38.93,49.24Z"/><path class="cls-3" d="M248.14,125l5,4.31a1.39,1.39,0,0,0,1.27.29l6.38-1.66a1.41,1.41,0,0,1,1.66,1.91l-2.56,6.08a1.4,1.4,0,0,0,.12,1.3l3.55,5.56a1.41,1.41,0,0,1-1.3,2.16l-6.57-.55a1.39,1.39,0,0,0-1.21.51L250.3,150a1.42,1.42,0,0,1-2.47-.57l-1.5-6.42a1.42,1.42,0,0,0-.86-1l-6.14-2.4a1.41,1.41,0,0,1-.22-2.52l5.64-3.41a1.41,1.41,0,0,0,.68-1.13l.38-6.58A1.41,1.41,0,0,1,248.14,125Z"/><path class="cls-10" d="M185.66,496.2,192,470.86h61.37L247,496.2m12.65,0,67-267.16a6.13,6.13,0,1,0-11.89-3l-6.53,26.06H246.85L252.63,229a6.13,6.13,0,1,0-11.89-3L173,496.2m132.9-234.9-10.29,41H234.26l10.29-41Zm-12.59,50.2L274.41,387H213L232,311.5ZM255.69,461.68H194.32l16.42-65.51h61.37Z"/></g><g id="boy_R" data-name="boy R"><g id="body"><path class="cls-11" d="M677.63,408.86c.83,5.31-5.12,10.66-9.5,12.85,0,0-5.11-11.43-4.74-11.43S672.41,405.37,677.63,408.86Z"/><path class="cls-1" d="M645.59,501.45c-21.9,15.65-49.81,5-49.81,5v-8.17c-22.36.35-46-6.78-46-6.78-1.49-17,1.32-37.8,3.05-48.39.7-4.27,1.23-6.87,1.23-6.87,13.33-4.34,90.28-2.8,90.28-2.8.29,2.52.51,5.48.7,8.74C646.38,464.79,645.59,501.45,645.59,501.45Z"/><g class="cls-12"><rect class="cls-13" x="691.51" y="424.8" width="5.15" height="5.15"/><rect class="cls-13" x="666.42" y="424.8" width="5.15" height="5.15"/><rect class="cls-13" x="641.34" y="424.8" width="5.15" height="5.15"/><rect class="cls-13" x="616.25" y="424.8" width="5.15" height="5.15"/><rect class="cls-13" x="591.17" y="424.8" width="5.15" height="5.15"/><rect class="cls-13" x="566.09" y="424.8" width="5.15" height="5.15"/><rect class="cls-13" x="541" y="424.8" width="5.15" height="5.15"/><rect class="cls-13" x="691.51" y="456.63" width="5.15" height="5.15"/><rect class="cls-13" x="666.42" y="456.63" width="5.15" height="5.15"/><rect class="cls-13" x="641.34" y="456.63" width="5.15" height="5.15"/><rect class="cls-13" x="616.25" y="456.63" width="5.15" height="5.15"/><rect class="cls-13" x="591.17" y="456.63" width="5.15" height="5.15"/><rect class="cls-13" x="566.09" y="456.63" width="5.15" height="5.15"/><rect class="cls-13" x="541" y="456.63" width="5.15" height="5.15"/><rect class="cls-13" x="691.51" y="488.45" width="5.15" height="5.15"/><rect class="cls-13" x="666.42" y="488.45" width="5.15" height="5.15"/><rect class="cls-13" x="641.34" y="488.45" width="5.15" height="5.15"/><rect class="cls-13" x="616.25" y="488.45" width="5.15" height="5.15"/><rect class="cls-13" x="591.17" y="488.45" width="5.15" height="5.15"/><rect class="cls-13" x="566.09" y="488.45" width="5.15" height="5.15"/><rect class="cls-13" x="541" y="488.45" width="5.15" height="5.15"/><rect class="cls-13" x="691.51" y="520.28" width="5.15" height="5.15"/><rect class="cls-13" x="666.42" y="520.28" width="5.15" height="5.15"/><rect class="cls-13" x="641.34" y="520.28" width="5.15" height="5.15"/><rect class="cls-13" x="616.25" y="520.28" width="5.15" height="5.15"/><rect class="cls-13" x="591.17" y="520.28" width="5.15" height="5.15"/><rect class="cls-13" x="566.09" y="520.28" width="5.15" height="5.15"/><rect class="cls-13" x="541" y="520.28" width="5.15" height="5.15"/><rect class="cls-13" x="691.51" y="552.11" width="5.15" height="5.15"/><rect class="cls-13" x="666.42" y="552.11" width="5.15" height="5.15"/><rect class="cls-13" x="641.34" y="552.11" width="5.15" height="5.15"/><rect class="cls-13" x="616.25" y="552.11" width="5.15" height="5.15"/><rect class="cls-13" x="591.17" y="552.11" width="5.15" height="5.15"/><rect class="cls-13" x="566.09" y="552.11" width="5.15" height="5.15"/><rect class="cls-13" x="541" y="552.11" width="5.15" height="5.15"/><rect class="cls-13" x="523.74" y="406.31" width="10.29" height="10.29"/><rect class="cls-13" x="549.43" y="406.31" width="10.29" height="10.29"/><rect class="cls-13" x="575.13" y="406.31" width="10.29" height="10.29"/><rect class="cls-13" x="600.83" y="406.31" width="10.29" height="10.29"/><rect class="cls-13" x="626.53" y="406.31" width="10.29" height="10.29"/><rect class="cls-13" x="652.23" y="406.31" width="10.29" height="10.29"/><rect class="cls-13" x="677.93" y="406.31" width="10.29" height="10.29"/><rect class="cls-13" x="703.63" y="406.31" width="10.29" height="10.29"/><rect class="cls-13" x="523.74" y="438.14" width="10.29" height="10.29"/><rect class="cls-13" x="549.43" y="438.14" width="10.29" height="10.29"/><rect class="cls-13" x="575.13" y="438.14" width="10.29" height="10.29"/><rect class="cls-13" x="600.83" y="438.14" width="10.29" height="10.29"/><rect class="cls-13" x="626.53" y="438.14" width="10.29" height="10.29"/><rect class="cls-13" x="652.23" y="438.14" width="10.29" height="10.29"/><rect class="cls-13" x="677.93" y="438.14" width="10.29" height="10.29"/><rect class="cls-13" x="703.63" y="438.14" width="10.29" height="10.29"/><rect class="cls-13" x="523.74" y="469.97" width="10.29" height="10.29"/><rect class="cls-13" x="549.43" y="469.97" width="10.29" height="10.29"/><rect class="cls-13" x="575.13" y="469.97" width="10.29" height="10.29"/><rect class="cls-13" x="600.83" y="469.97" width="10.29" height="10.29"/><rect class="cls-13" x="626.53" y="469.97" width="10.29" height="10.29"/><rect class="cls-13" x="652.23" y="469.97" width="10.29" height="10.29"/><rect class="cls-13" x="677.93" y="469.97" width="10.29" height="10.29"/><rect class="cls-13" x="703.63" y="469.97" width="10.29" height="10.29"/><rect class="cls-13" x="523.74" y="501.79" width="10.29" height="10.29"/><rect class="cls-13" x="549.43" y="501.79" width="10.29" height="10.29"/><rect class="cls-13" x="575.13" y="501.79" width="10.29" height="10.29"/><rect class="cls-13" x="600.83" y="501.79" width="10.29" height="10.29"/><rect class="cls-13" x="626.53" y="501.79" width="10.29" height="10.29"/><rect class="cls-13" x="652.23" y="501.79" width="10.29" height="10.29"/><rect class="cls-13" x="677.93" y="501.79" width="10.29" height="10.29"/><rect class="cls-13" x="703.63" y="501.79" width="10.29" height="10.29"/><rect class="cls-13" x="523.74" y="533.62" width="10.29" height="10.29"/><rect class="cls-13" x="549.43" y="533.62" width="10.29" height="10.29"/><rect class="cls-13" x="575.13" y="533.62" width="10.29" height="10.29"/><rect class="cls-13" x="600.83" y="533.62" width="10.29" height="10.29"/><rect class="cls-13" x="626.53" y="533.62" width="10.29" height="10.29"/><rect class="cls-13" x="652.23" y="533.62" width="10.29" height="10.29"/><rect class="cls-13" x="677.93" y="533.62" width="10.29" height="10.29"/><rect class="cls-13" x="703.63" y="533.62" width="10.29" height="10.29"/></g><path class="cls-14" d="M645.07,442.22a237.94,237.94,0,0,1-39,4.81c-6.74.33-13.59.42-20.24.24-12.3-.34-23.92-1.61-33-4.12.7-4.27,1.23-6.87,1.23-6.87,4.72-1.53,17.38-2.34,31.78-2.73,6.58-.18,13.52-.27,20.24-.31,20.17-.13,38.26.24,38.26.24C644.66,436,644.88,439,645.07,442.22Z"/><path class="cls-15" d="M606.11,433.24V447c-6.74.33-13.59.42-20.24.24V433.55C592.45,433.37,599.39,433.28,606.11,433.24Z"/><line class="cls-16" x1="595.78" y1="498.32" x2="595.99" y2="476.21"/><path class="cls-2" d="M677.63,408.86s-3,.56-7.45,1.88a98.37,98.37,0,0,0-20.9,8.75c-1.22.7-6.54,6.35-11.85,11.18-3.93,3.58-7.87,6.71-10.12,7a220.6,220.6,0,0,1-34.44,2.39q-3.2,0-6.18-.17a202.45,202.45,0,0,1-32.6-3.65c.62,0-.32-8.76-1.21-17.28-.22-2.18-.44-4.35-.64-6.35-.31.21-19.23-13-20.86-14.19l-.11-.08s.09-.49.29-1.38c1.11-5,5.5-22.69,14.25-36.29a51.51,51.51,0,0,1,6.53-8.31c12.81-13,27.9-17.2,43.17-18.38s17.08-1.55,17.08-1.55c13.7,4.75,29,7.59,40,20.79a59.27,59.27,0,0,1,6.29,9.85C668.33,380.67,677.63,408.86,677.63,408.86Z"/><path class="cls-11" d="M560.2,372.3c-2.25,9.34-6.47,25.07-6.3,41.55,0-.41-20.89-14.25-22.52-15.39l.18-1.46c6.52-3.07,10.66-1,14.25.51,8.09,3.31,4.11-23.41,14.25-25.19Z"/><path class="cls-11" d="M637.43,430.67c-3.93,3.58-7.87,6.71-10.12,7a220.6,220.6,0,0,1-34.44,2.39q-3.2,0-6.18-.17c3.84-5.81,12-15.36,23.67-13.13,16.47,3.17,19.52-23.89,16.47-35.4s4.67-16.19,4.67-16.19h0a120,120,0,0,0,2.63,21h0c0,.2.09.41.14.62C636.1,405.55,637,421,637.43,430.67Z"/><path class="cls-17" d="M658.9,363.11c-13.83-3.37-27.41-2.26-33.36,3.54-12.12,11.86-35.66,27.89-49.25,10.68-8.8-11.15-18.45-18.15-30.48-16.62a51.51,51.51,0,0,1,6.53-8.31c12.81-13,27.9-17.2,43.17-18.38s17.08-1.55,17.08-1.55c13.7,4.75,29,7.59,40,20.79A59.27,59.27,0,0,1,658.9,363.11Z"/><path class="cls-18" d="M634.93,399.72c-.24-1-.45-1.93-.66-2.89,0-.21-.1-.42-.14-.62h0a120,120,0,0,1-2.63-21h0a85.2,85.2,0,0,1,.16-8.56"/><path class="cls-18" d="M637.74,347.15a22.45,22.45,0,0,0-4.27,8.63"/><path class="cls-18" d="M596.62,353c-1.49,7-.85,16.69-.85,16.69"/><path class="cls-18" d="M553.9,411.77c0-19.06,8-46.26,8-46.26"/><path class="cls-15" d="M586.54,334c-5.21,0-6.44,14.05-4.18,20.93,1.87,5.7,10-4.3,16.14-10.28Z"/><path class="cls-15" d="M595.09,344.11c6.29,6.22,12.32,13.31,14.84,12.3s8.87-19.24,7.06-23.5a10.23,10.23,0,0,0-6.06-5.5Z"/><path class="cls-15" d="M596.62,344.44c11-2.28,14.31-17,14.31-17-15.36,0-24.39,6.61-24.39,6.61S584.73,346.91,596.62,344.44Z"/><path class="cls-19" d="M553.9,411.77c-2.93-10.49-9.51-13.45-14.81-14a20.54,20.54,0,0,0-7.71.69c-6.79,25.94-9.52,34.72-.47,37.43s18.35-2.73,23-6.8C554.37,420.05,553.9,411.77,553.9,411.77Z"/><path class="cls-19" d="M671.17,437.65c-6.5,12.33-14.31,12.83-23.83,10.77-10.41-3.21-3.75-20.91,1.94-28.93a98.37,98.37,0,0,1,20.9-8.75C672.74,418.73,676.3,427.94,671.17,437.65Z"/></g><g id="hand"><path class="cls-20" d="M610.53,367.56a23.26,23.26,0,0,0-27.44,2.72l1.61-6.84-8-2.13c-7.94,24.35-1.76,45.64,20.53,44.84l22.47-13.24S624.91,375.51,610.53,367.56Zm-8.37,27.31h-.1a10,10,0,0,1-5.93-18h.11a10,10,0,0,1,5.92,18Z"/><path class="cls-21" d="M602.16,394.87a10,10,0,1,1-6-18,10,10,0,0,0,5.93,18Z"/><path class="cls-7" d="M583.09,370.28c-5.63,6-9.85,15.17-6,25.93"/><path class="cls-7" d="M613.37,388c.71-13.75-11.92-26-28-19.48"/><path class="cls-19" d="M651.23,449.11c-2.14,0-6.3-1.29-7.55-1.71l-.27-.09a46,46,0,0,1-10.22-5.12,53.13,53.13,0,0,1-5.88-4.48,64.26,64.26,0,0,1-16.92-24.28,18.33,18.33,0,0,1-14.34-9.08c-1-2.24,1.08-7.3,1.08-7.3-2.66-3.25,1.06-6.94,3.39-5.95-3.15-4.86-5.57-8.35-2-10.26,2.63-1.41,19,9,23,14s27.81,24.68,27.81,24.68C658.52,426.77,668.69,449.06,651.23,449.11Z"/><path class="cls-22" d="M649.27,419.5c7,6.42,8.15,11.88,8.15,11.88"/><path class="cls-22" d="M596.05,404.35c-1-2.24,1.08-7.3,1.08-7.3-2.66-3.25,1.06-6.94,3.39-5.95-3.15-4.86-5.57-8.35-2-10.26,1.13-.61,4.82,1,9,3.37"/></g><g id="head"><path class="cls-23" d="M617.75,291s-.84,10.32-.18,12.66c0,0-8.18,5.65-11.4,4.3a1.41,1.41,0,0,1-.35-.21c-3-2.28-4.65-17-4.65-17s-11.5-1.55-13.7-6.54c0,0-9.3,1.39-7-6.08a7.23,7.23,0,0,1-2.66.59,2.17,2.17,0,0,1-2.35-1.85c-.64-3.22,8.34-4,8.34-4-2.11-4.63,4.06-7.71,10.14-1.83-2.2-3.27.67-5.72,6.54-3.59,6.44,2.34,12.33,8.69,10.88,13,0,0,5.67-.19,8.74,3.55C623.69,288.37,619.91,290.57,617.75,291Z"/><path class="cls-24" d="M605.82,307.78c-3-2.28-4.65-17-4.65-17s-11.5-1.55-13.7-6.54c0,0-9.3,1.39-7-6.08a7.23,7.23,0,0,1-2.66.59,11.81,11.81,0,0,1,9.88-1.23c7.84,2.82,11.91,3.9,14.22,1.94s8,.55,5.81,6.42,4.11.7,5.27,7.84C613.8,298.8,608.75,304.79,605.82,307.78Z"/><path class="cls-25" d="M608.42,285.69A12.29,12.29,0,0,1,617,289"/><path class="cls-25" d="M608.84,288.61c3.11,2.31,4.27,6.72,4.23,9.58"/><path class="cls-19" d="M613.8,316.13s-1,9.2,0,12.79c0,0-3.39,17.32-16.13,18.2-6.51.44-9.7-3.62-11.24-7.71a24.54,24.54,0,0,1-1.49-7.8s-7.61.7-12.41-8.26c-1.48-2.78-2.19-6.74-2.09-11.53a51.52,51.52,0,0,1,.74-7.47,89.35,89.35,0,0,1,9.28-26.22c.15,3.71,4.08,5.11,9,2.89,0,0-.66,6.29,8,3.85,0,0-.34,3.86,5.19,2.15,6.52-2,.64,9.48,6.21,17,0,0,5.6-6.1,10.46-2.29C625.43,306.5,619.06,314.87,613.8,316.13Z"/><path class="cls-22" d="M610.62,307.84c2-2.8,6.64-4.78,8.87-.78"/><path class="cls-22" d="M609.93,310.25c4.64,2.74,6.07-3.93,1.69-3.52"/><path class="cls-22" d="M578.89,313.91a7.34,7.34,0,0,0,8.79-4.22"/><path class="cls-22" d="M613.8,316.13a8.82,8.82,0,0,1-5.75-1.08"/><ellipse class="cls-26" cx="597.11" cy="311.95" rx="6.14" ry="3.73" transform="translate(-70.77 223.65) rotate(-20.05)"/><path class="cls-26" d="M575.67,310c-.57,1.57-2.74,2.27-5.23,1.87a51.52,51.52,0,0,1,.74-7.47C574.37,305.51,576.37,308,575.67,310Z"/><path class="cls-27" d="M576.29,305.09a8.92,8.92,0,0,1-2.54.37,9,9,0,0,1-8.21-5.25"/><path class="cls-27" d="M582.6,294.71a9.85,9.85,0,0,1,.16,1.73,8.35,8.35,0,0,1-.17,1.74"/><circle class="cls-14" cx="576.68" cy="297.19" r="1.43"/><path class="cls-14" d="M586.75,300.54a1.44,1.44,0,1,0,1.44-1.43A1.43,1.43,0,0,0,586.75,300.54Z"/><path class="cls-22" d="M586.75,295.76c-1.7,1.18-3.13,2.21-4.32,3.12-3.64,2.77-5.09,4.47-5.37,5.94-.21,1.13.28,2.14,1,3.38"/><path class="cls-23" d="M589.16,288.32c.72-1.41,4.81,1.18,5.79,3.17S587.94,290.69,589.16,288.32Z"/><path class="cls-23" d="M577.41,286.24c-1,1.05,5.4,2.43,6.17.8S579.1,284.53,577.41,286.24Z"/><path class="cls-26" d="M587.68,305.37a.57.57,0,0,1-.57.57.58.58,0,0,1-.57-.57.57.57,0,0,1,.57-.57A.56.56,0,0,1,587.68,305.37Z"/><path class="cls-26" d="M574.37,303.82a.57.57,0,1,1-.56-.57A.56.56,0,0,1,574.37,303.82Z"/><path class="cls-26" d="M576.38,301.41a.57.57,0,1,1-1.14,0,.57.57,0,1,1,1.14,0Z"/><circle class="cls-26" cx="590.31" cy="304.8" r="0.57"/><path class="cls-26" d="M596.17,306.71a.58.58,0,0,1-.57.57.57.57,0,0,1-.57-.57.56.56,0,0,1,.57-.57A.57.57,0,0,1,596.17,306.71Z"/><path class="cls-26" d="M593.48,307.23a.56.56,0,0,1-.57.56.57.57,0,1,1,.57-.56Z"/><path class="cls-26" d="M590.31,308.2a.57.57,0,1,1-1.13,0,.57.57,0,1,1,1.13,0Z"/><path class="cls-27" d="M564.72,296.44A9,9,0,0,1,580.1,290"/><circle class="cls-27" cx="591.78" cy="303.25" r="9.02"/><line class="cls-27" x1="600.8" y1="303.25" x2="608.84" y2="303.98"/><path class="cls-28" d="M596.64,327.1s-.26,10-10.21,12.31a24.54,24.54,0,0,1-1.49-7.8C588.21,331.46,594.81,329.15,596.64,327.1Z"/><path class="cls-25" d="M596.94,273.2c5.11,1.1,10.21,4.93,10.21,8.4"/><path class="cls-25" d="M587.68,275.24c6.57.86,15.06,4.16,18,8.33"/></g><g id="hand-2" data-name="hand"><path class="cls-19" d="M545.79,422c-.6,11.32-16.68,28.25-33.44-7.09-8.72-18.38-9.71-42.59-12.8-61.92a59.51,59.51,0,0,0-5.9-16.35c-3.26-5.65-11.54-17.94-8.91-18.82s10.29,8,10.29,8-8.91-18.25-5.52-19.05,11.42,15.48,11.42,15.48c-3.26-14.3-4.15-21.44-1.21-21.7,2.49-.22,6.29,14.32,8.58,20.53.84,2.28,2.11,1.38,2-.51s-3.21-20.11,2-15.71c3.6,3.06,6.52,25.52,6.52,25.52s2.18-1.58,4-6.71c1.51-4.2,5.9-3.43,5,4.58s-7.15,19-7.15,19c-.25,5.52,5.39,22,7.77,26.85S540,399.72,540,399.72,546.41,410.2,545.79,422Z"/><path class="cls-22" d="M490.28,331c-3.52-5.8-7.47-12.59-5.54-13.24,2.64-.88,10.29,8,10.29,8s-8.91-18.25-5.52-19.05,11.42,15.48,11.42,15.48c-3.26-14.3-4.15-21.44-1.21-21.7,2.49-.22,6.29,14.32,8.58,20.53.84,2.28,2.11,1.38,2-.51s-3.21-20.11,2-15.71c3.6,3.06,6.52,25.52,6.52,25.52s2.18-1.58,4-6.71c1.51-4.2,5.9-3.43,5,4.58-.45,4.13-2.35,9.05-4.07,12.85"/><path class="cls-22" d="M498,325.62c3.3-2.38,9.25-2.64,9.25-2.64"/><path class="cls-22" d="M518.74,330.32s-6.81-1-8.85,5.76"/><path class="cls-22" d="M546.13,417A89.87,89.87,0,0,0,540,399.72"/><path class="cls-7" d="M519.82,324.3s6.78,4,6.78,3.74,9.28-17.13,9.28-17.13l-9.11-4.2Z"/><polygon class="cls-7" points="507.27 311.57 518.74 308.75 514.31 284.42 502.1 287.07 507.27 311.57"/><polygon class="cls-7" points="486.63 285.46 499.31 282.97 504.41 305.8 494.01 307.56 486.63 285.46"/><polygon class="cls-7" points="467.46 308.74 478.06 300.49 489.89 319.14 481.39 325.76 467.46 308.74"/></g></g><g id="girl-2" data-name="girl"><g id="body-2" data-name="body"><path class="cls-2" d="M382.44,454.37c-6.12,11.55-11.82,37.78-14.13,49.6,0,0,20,7.88,51.76,6.79s38.18-6.66,38.18-6.66,3.81-37.63-6.25-53.53Z"/><g class="cls-29"><rect class="cls-13" x="504.08" y="395.56" width="5.15" height="5.15"/><rect class="cls-13" x="479" y="395.56" width="5.15" height="5.15"/><rect class="cls-13" x="453.91" y="395.56" width="5.15" height="5.15"/><rect class="cls-13" x="428.83" y="395.56" width="5.15" height="5.15"/><rect class="cls-13" x="403.75" y="395.56" width="5.15" height="5.15"/><rect class="cls-13" x="378.66" y="395.56" width="5.15" height="5.15"/><rect class="cls-13" x="353.58" y="395.56" width="5.15" height="5.15"/><rect class="cls-13" x="504.08" y="427.38" width="5.15" height="5.15"/><rect class="cls-13" x="479" y="427.38" width="5.15" height="5.15"/><rect class="cls-13" x="453.91" y="427.38" width="5.15" height="5.15"/><rect class="cls-13" x="428.83" y="427.38" width="5.15" height="5.15"/><rect class="cls-13" x="403.75" y="427.38" width="5.15" height="5.15"/><rect class="cls-13" x="378.66" y="427.38" width="5.15" height="5.15"/><rect class="cls-13" x="353.58" y="427.38" width="5.15" height="5.15"/><rect class="cls-13" x="504.08" y="459.21" width="5.15" height="5.15"/><rect class="cls-13" x="479" y="459.21" width="5.15" height="5.15"/><rect class="cls-13" x="453.91" y="459.21" width="5.15" height="5.15"/><rect class="cls-13" x="428.83" y="459.21" width="5.15" height="5.15"/><rect class="cls-13" x="403.75" y="459.21" width="5.15" height="5.15"/><rect class="cls-13" x="378.66" y="459.21" width="5.15" height="5.15"/><rect class="cls-13" x="353.58" y="459.21" width="5.15" height="5.15"/><rect class="cls-13" x="504.08" y="491.04" width="5.15" height="5.15"/><rect class="cls-13" x="479" y="491.04" width="5.15" height="5.15"/><rect class="cls-13" x="453.91" y="491.04" width="5.15" height="5.15"/><rect class="cls-13" x="428.83" y="491.04" width="5.15" height="5.15"/><rect class="cls-13" x="403.75" y="491.04" width="5.15" height="5.15"/><rect class="cls-13" x="378.66" y="491.04" width="5.15" height="5.15"/><rect class="cls-13" x="353.58" y="491.04" width="5.15" height="5.15"/><rect class="cls-13" x="504.08" y="522.86" width="5.15" height="5.15"/><rect class="cls-13" x="479" y="522.86" width="5.15" height="5.15"/><rect class="cls-13" x="453.91" y="522.86" width="5.15" height="5.15"/><rect class="cls-13" x="428.83" y="522.86" width="5.15" height="5.15"/><rect class="cls-13" x="403.75" y="522.86" width="5.15" height="5.15"/><rect class="cls-13" x="378.66" y="522.86" width="5.15" height="5.15"/><rect class="cls-13" x="353.58" y="522.86" width="5.15" height="5.15"/><rect class="cls-13" x="336.31" y="377.07" width="10.29" height="10.29"/><rect class="cls-13" x="362.01" y="377.07" width="10.29" height="10.29"/><rect class="cls-13" x="387.71" y="377.07" width="10.29" height="10.29"/><rect class="cls-13" x="413.41" y="377.07" width="10.29" height="10.29"/><rect class="cls-13" x="439.11" y="377.07" width="10.29" height="10.29"/><rect class="cls-13" x="464.8" y="377.07" width="10.29" height="10.29"/><rect class="cls-13" x="490.5" y="377.07" width="10.29" height="10.29"/><rect class="cls-13" x="516.2" y="377.07" width="10.29" height="10.29"/><rect class="cls-13" x="336.31" y="408.9" width="10.29" height="10.29"/><rect class="cls-13" x="362.01" y="408.9" width="10.29" height="10.29"/><rect class="cls-13" x="387.71" y="408.9" width="10.29" height="10.29"/><rect class="cls-13" x="413.41" y="408.9" width="10.29" height="10.29"/><rect class="cls-13" x="439.11" y="408.9" width="10.29" height="10.29"/><rect class="cls-13" x="464.8" y="408.9" width="10.29" height="10.29"/><rect class="cls-13" x="490.5" y="408.9" width="10.29" height="10.29"/><rect class="cls-13" x="516.2" y="408.9" width="10.29" height="10.29"/><rect class="cls-13" x="336.31" y="440.72" width="10.29" height="10.29"/><rect class="cls-13" x="362.01" y="440.72" width="10.29" height="10.29"/><rect class="cls-13" x="387.71" y="440.72" width="10.29" height="10.29"/><rect class="cls-13" x="413.41" y="440.72" width="10.29" height="10.29"/><rect class="cls-13" x="439.11" y="440.72" width="10.29" height="10.29"/><rect class="cls-13" x="464.8" y="440.72" width="10.29" height="10.29"/><rect class="cls-13" x="490.5" y="440.72" width="10.29" height="10.29"/><rect class="cls-13" x="516.2" y="440.72" width="10.29" height="10.29"/><rect class="cls-13" x="336.31" y="472.55" width="10.29" height="10.29"/><rect class="cls-13" x="362.01" y="472.55" width="10.29" height="10.29"/><rect class="cls-13" x="387.71" y="472.55" width="10.29" height="10.29"/><rect class="cls-13" x="413.41" y="472.55" width="10.29" height="10.29"/><rect class="cls-13" x="439.11" y="472.55" width="10.29" height="10.29"/><rect class="cls-13" x="464.8" y="472.55" width="10.29" height="10.29"/><rect class="cls-13" x="490.5" y="472.55" width="10.29" height="10.29"/><rect class="cls-13" x="516.2" y="472.55" width="10.29" height="10.29"/><rect class="cls-13" x="336.31" y="504.38" width="10.29" height="10.29"/><rect class="cls-13" x="362.01" y="504.38" width="10.29" height="10.29"/><rect class="cls-13" x="387.71" y="504.38" width="10.29" height="10.29"/><rect class="cls-13" x="413.41" y="504.38" width="10.29" height="10.29"/><rect class="cls-13" x="439.11" y="504.38" width="10.29" height="10.29"/><rect class="cls-13" x="464.8" y="504.38" width="10.29" height="10.29"/><rect class="cls-13" x="490.5" y="504.38" width="10.29" height="10.29"/><rect class="cls-13" x="516.2" y="504.38" width="10.29" height="10.29"/></g><path class="cls-19" d="M390.79,446s-12.59,10.46-13.25,11.67c-8.25,13.17-32.69,23.7-44.28,9.77C318.48,449.66,350.18,435,350.18,435s3-6.07,3.1-6.48L386.2,435Z"/><path class="cls-30" d="M465.38,391.77c-.87,6.51-6.4,46.13-9.15,55.18s-8.94,11.81-12.47,11.81c-2.13,0-10.57.28-20.6.65-6.58.23-13.85.52-20.45.78-16.67.66-25.17-2.53-25.17-2.53l.38-.71,7.24-13.32a42.87,42.87,0,0,1-15.72.27,36.58,36.58,0,0,1-4-.93c-5.93-1.72-10.4-6.73-13.1-10.64a37.27,37.27,0,0,1-3-5.13,290.84,290.84,0,0,1,15.18-31.09c4.53-7.91,8.09-12.94,9.76-14.61,3.31-3.3,13.35-6.28,22.1-8.08l15.86-4.28s10.49-26.15,10.49-26.48,32.77-8.93,32.77-8.93a106.51,106.51,0,0,1,10.67,39.93A89.59,89.59,0,0,1,465.38,391.77Z"/><path class="cls-1" d="M423.16,459.41c-6.58.23-13.85.52-20.45.78-16.67.66-25.17-2.53-25.17-2.53l.38-.71,7.24-13.32a282.2,282.2,0,0,0,13.25-30.87c.08-.24.18-.47.26-.7a17.18,17.18,0,0,1,2,8.61c-.21,7.8-14.88,28.32-3.72,32.92C407.74,458,416.09,450.5,423.16,459.41Z"/><path class="cls-31" d="M466.12,373.66c-5.18,4.42-11.11,10.84-12.44,17.93-2.49,13.18-20.45,25.78-38.92,10.56-15.39-12.68-27.42-16.11-50.29-6,4.53-7.91,8.09-12.94,9.76-14.61,3.31-3.3,13.35-6.28,22.1-8.08l15.86-4.28s3.21-55.68,3.21-56S451.47,321,451.47,321C459,336.62,465.5,363.21,466.12,373.66Z"/><path class="cls-32" d="M437.19,369.14a30.61,30.61,0,0,0,7.34-1.61"/><path class="cls-32" d="M385.16,443.63a282.2,282.2,0,0,0,13.25-30.87c.08-.24.18-.47.26-.7q1-2.83,2-5.78"/></g><g id="hand-3" data-name="hand"><path class="cls-19" d="M333.28,467.46l0,0h0c-10.95-11.45-14.93-31.11-17.36-40.51-3-11.47-8.63-43.71-9.31-48.57s2.71-20.1,2.71-20.1c3.27-1.21,9.22,1.11,15,4.17l-1.37,5.88a32.38,32.38,0,0,1-2.6,10.75,16.09,16.09,0,0,1,4.25,4.88l11.27-3c-2.35,6.17-5,13.68-4.94,16,.13,4.22,3.91,13.87,8.09,20.07S350.18,435,350.18,435C371.49,458.12,356.58,486.31,333.28,467.46Z"/><path class="cls-22" d="M309.29,358.25s-3.37,15.25-2.7,20.1"/><path class="cls-33" d="M312.4,336.59s4.22,27.31,5.67,36.93c-11.8,1.37-16.68-16.27-7.71-22.44-8.11-5.25-8.33-20.93,1.86-22.89-2.43-8.07,10-18.25,18.82-12.49,2.86-10.44,18.62-10.89,24.15-2.19L315.63,324l.78,11.33C315,335.76,313.63,336.18,312.4,336.59Z"/><path class="cls-9" d="M319.26,376.68l.58,8.49,44.64-11.75s2.36-19.76-5.2-57.94c-.18-1-.37-1.91-.58-2.89l-3.51.92-3.14.84L315.63,324l.78,11.33"/><path class="cls-33" d="M351.38,365.78s-32.84,11.55-32.84,11c0-.09-.19-1.31-.47-3.28-1.45-9.62-5.67-36.93-5.67-36.93,1.23-.41,2.57-.83,4-1.27,11.65-3.53,28.65-7.8,28.65-7.8Z"/><line class="cls-34" x1="320.3" y1="344.02" x2="337.86" y2="339.69"/><line class="cls-34" x1="321.53" y1="350.99" x2="341.72" y2="346.42"/><line class="cls-34" x1="325.39" y1="357.92" x2="337.86" y2="354.92"/><path class="cls-19" d="M308.6,378.89c3.26-7,10.62-14.74,13.4-12.8s-1.7,13-1.7,13a17.42,17.42,0,0,1,6.53,11.42S311.37,396.88,308.6,378.89Z"/><path class="cls-22" d="M308.6,378.89c3.26-7,10.62-14.74,13.4-12.8s-1.7,13-1.7,13a17.42,17.42,0,0,1,6.53,11.42"/></g><g id="hand-4" data-name="hand"><path class="cls-19" d="M394.67,242.24c-3.35-10.77-5.42-18.19-7.4-23.2-2.75-7,.56-11.07,5.47-.53,2.17,4.67,4.77,10.4,4.77,10.4s8.22-1.4,12,1.69,6.58,10.31,7.72,22.42c0,0,8.37,17.06,11.21,23.31s16.41,33.72,23,44.69c6.09,17.34-30.72,31.15-36.07-7.88,0,0-6.42-19.66-7.88-27s-7.48-27.7-7.48-27.7-10.15-10.4-11.37-12-6-13.89-4-14.71,5.2,1.63,7.64,9.27Z"/><path class="cls-22" d="M388.67,246.44c-1.21-1.63-6-13.89-4-14.71s5.2,1.63,7.64,9.27l2.34,1.24c-3.35-10.77-5.42-18.19-7.4-23.2-2.75-7,.56-11.07,5.47-.53,2.17,4.67,4.77,10.4,4.77,10.4s5.9-1,10,.56"/><line class="cls-22" x1="397.51" y1="228.91" x2="399.58" y2="233.68"/><line class="cls-22" x1="402.58" y1="228.62" x2="404.67" y2="233.24"/><line class="cls-22" x1="407.32" y1="229.37" x2="409.41" y2="234"/></g><g id="head-2" data-name="head"><path class="cls-35" d="M443.93,319.37c6.7-2.1,12-1.14,13.89,6.84s-6.91,15-15.89,13.19Z"/><path class="cls-36" d="M448.71,327.52a25.52,25.52,0,0,1-1.36,6.92,32.48,32.48,0,0,1-10.15,14.13l-4,6.68s-29.85,6.11-29.42-40.64c-2.82-3.44-1.92-11,6.3-17,12.26-8.88,32.57,1.56,29.45,15.75C439.5,313.36,449.43,313.11,448.71,327.52Z"/><path class="cls-37" d="M406.32,312.5c-1.75-6,3.81-12.8,5.74-13.77"/><path class="cls-35" d="M447.35,334.44a32.48,32.48,0,0,1-10.15,14.13l-4,6.68s-29.85,6.11-29.42-40.64l10-13.76c-.24.58-4.25,19.61,3,36.48C422.84,351.51,442.15,342.13,447.35,334.44Z"/><path class="cls-19" d="M437.19,348.59a54.24,54.24,0,0,0-2.69,17.19c-9.46,4.81-19.05,5.92-28.83,1.77,0,0,.53-2.91.89-6.08a37.21,37.21,0,0,0,.31-5.91c-8.22.11-13.76-6.28-13.95-15.67a29.84,29.84,0,0,1,1.33-9.18h0a38.45,38.45,0,0,1,1.64-4.45s-1.93-2.3-1.66-4.05,5.8-4.43,5.8-4.43c4.88-9.5,13.74-17,13.74-17s-6.68,8.16-4.9,21.32c0,0,7.07-4.78,8.56,3.56,1.26,7.05-4.32,10.6-6.34,11.63h0a7,7,0,0,1-.66.31s1.76,12.52,13.4,14.24A17,17,0,0,0,437.19,348.59Z"/><circle class="cls-14" cx="404.33" cy="317.13" r="1.43"/><path class="cls-35" d="M428.26,313.74c9.41-3,12,14.45,8.39,21-3.08,5.57-16.53,4.55-17.71-5.4S426.1,314.43,428.26,313.74Z"/><path class="cls-36" d="M427.08,318.16c1.79-3,4.66-2.12,6.16.11s2.91,8.66-2.06,9.2C425.08,328.13,425.06,321.54,427.08,318.16Z"/><path class="cls-22" d="M406.6,328.19c2.49-3.26,6.13-3.44,7.45-1.63"/><path class="cls-22" d="M407.05,327.65c5.37-1.32,4.65,7.61-1.51,4.47"/><path class="cls-22" d="M411.1,337.33a10.79,10.79,0,0,1-6,.32"/><path class="cls-37" d="M426.57,314.54s-8.7,10.79-2.07,16.16,11.32-1.65,11.32-1.65"/><path class="cls-37" d="M421.45,315.7a29,29,0,0,1-4.87-12.9"/><path class="cls-36" d="M406.67,309.62c1.24-1.68,4.77,1.73,4.77,4.58C411.44,315.64,404.74,312.24,406.67,309.62Z"/><path class="cls-37" d="M413.78,300.82s15.53-8.51,23.87,13.72"/><path class="cls-37" d="M419.36,302.32c3.45,2.18,8.65,9,8.65,9"/><path class="cls-37" d="M428.3,316.79c-.5,2.38-2.91,9.26,5.58,8.62"/><path class="cls-37" d="M447.69,333.38s9.07-4.23,6.79-11.18"/><path class="cls-37" d="M448.68,324.29c1.51-.47,3.16-3.57,3.16-3.57"/><path class="cls-37" d="M415.05,334.31c2.36,2,7.44,12.39,25.74,6.11"/><path class="cls-37" d="M436.18,317.67c9.89,2.12,8.22,12.49,5.75,16.64"/><path class="cls-26" d="M397.33,330.19c.41,1.69,2.53,2.63,4.74,2.09s3.65-2.34,3.24-4-2.54-2.63-4.74-2.09S396.92,328.5,397.33,330.19Z"/><path class="cls-37" d="M418.17,345.91c6,3.7,16.66,3.07,23.33-1.5"/><path class="cls-37" d="M414.05,303.38c-1,5.65.32,14.24,1.75,16.42"/><path class="cls-37" d="M416.58,332.08c3.54,3.62,12.16,7.47,19.72,3.22"/><path class="cls-38" d="M399.29,333.1a7.08,7.08,0,0,1-6.21,3.34,31.07,31.07,0,0,1,.69-4c.09-.36.19-.74.3-1.12A7.94,7.94,0,0,0,399.29,333.1Z"/><path class="cls-22" d="M395.9,326.26s-2.11-2.69-1.66-4.05,3.93-3.72,5.8-4.43"/><path class="cls-28" d="M414,353.27a8.39,8.39,0,0,1-7.48,8.2,37.21,37.21,0,0,0,.31-5.91C410.32,356.08,414,353.27,414,353.27Z"/></g></g><g id="boy_L" data-name="boy L"><g id="head-3" data-name="head"><path class="cls-39" d="M236.19,167.72a13.9,13.9,0,0,1-1.69-.21l-21.6,29-.63-.15-15.07-3.74c-4.7,2-6.72-2.58-5.26-5.94-.56.58-4.22.22-2.57-3.58-3.47.9-6.49-6.82-1.67-9.17-4.14.48-2.51-8.71,1.89-7-3.49-2.28,1.61-12.23,7.61-8.93-2.23-2.28,1.13-7.48,5-5.83-2.6-4.25,7-11.6,12.35-4.94.4-3,4.31-4.05,6-.79-.13-3.79,6.94-4.71,6.41,1.44,2.33-3,8.08,1.91,5.15,5.88,3.32-3.81,10.87,1.57,6.77,6.09C243.51,161.52,243.1,168.09,236.19,167.72Z"/><path class="cls-40" d="M236.19,167.72a13.9,13.9,0,0,1-1.69-.21l-21.6,29-.63-.15-3.45-5.77c-9.75.74-12.44-5.92-8.59-11.06-3-1.44-1.91-11.59,4.3-11-1.69-3.35,2.51-12.72,11.5-8.41,1-3.87,7-5.48,10.73,0C228.31,156.74,237.72,156.58,236.19,167.72Z"/><path class="cls-41" d="M227.67,214.21c-1.39,14-22.43,11.1-21.52,1.74A77.55,77.55,0,0,0,205,202.34c-5-.25-7.92-2.31-7.75-7.59s6.6-9.48,13.53-4.78a10.79,10.79,0,0,0-1.49-10.48C205.4,174,211.09,167,216.37,167s16,.25,15.84-5.61a88.71,88.71,0,0,1,9.22,21.48c.09.31.17.62.25.93.46,1.78.86,3.62,1.17,5.48.06.34.11.69.17,1s.08.49.11.74C245.36,206.12,242.45,215.4,227.67,214.21Z"/><path class="cls-14" d="M223.9,181a1.44,1.44,0,1,0,1.43-1.43A1.44,1.44,0,0,0,223.9,181Z"/><path class="cls-14" d="M233.55,178.1a1.44,1.44,0,1,0,2.87,0,1.44,1.44,0,0,0-2.87,0Z"/><path class="cls-42" d="M208.82,198c-4.1,2.17-6.27-3.28-1.35-4.1a5,5,0,0,0-7.23,1.74"/><path class="cls-42" d="M230.18,170.49c-.4,3.35-.48,7.09,0,7.61s6.46,4.61,7.22,5.12-.8,2.73-3.21,3.58"/><path class="cls-43" d="M228.92,201.77c2.83,1.71,9.41-5.18,6.86-7.88C231.42,189.28,226.81,200.49,228.92,201.77Z"/><path class="cls-39" d="M216.38,173.19c3.15-5.07,8.24-6.29,8.87-4.4C226.45,172.38,213.8,177.34,216.38,173.19Z"/><path class="cls-39" d="M232.37,172.41c0-1.94,5,.33,5.54,1.76S232.33,175.11,232.37,172.41Z"/><path class="cls-44" d="M228.05,191.08c-.5,2.11-3.43,3.23-6.54,2.5s-5.24-3-4.75-5.15,3.43-3.23,6.54-2.5S228.54,189,228.05,191.08Z"/><path class="cls-44" d="M243,190.27a3.65,3.65,0,0,1-3.49-1.2c-1.23-1.65-.35-4.36,1.9-6.25.09.31.17.62.25.93.46,1.78.86,3.62,1.17,5.48C242.91,189.57,243,189.92,243,190.27Z"/></g><g id="leg"><path class="cls-41" d="M261.31,460.27h.05s4.17-8.83-2.35-13.32c-4.89-3.37-15.7-2.71-17.46-5.83-.46-.81,3.77-8.3,9.45-17.63,7.54-12.33,17.64-27.87,22.86-35.36C283,375,288.08,360.74,272.31,344c-9.12-7.73-22.57,1.75-30.68,23.5-2.92,7.85-13.54,35.78-18.06,47.6-4,10.47-6.76,17.3-7.95,19.29-.19.33-.42.73-.65,1.16-2.78,5.23-8,17.72-5.46,23.12"/><path class="cls-14" d="M261.36,460.26s-48.17,4.07-51.85-1.57c-3.53-5.41,3.61-20,6.11-24.28,1.19-2,3.92-8.82,7.95-19.29,8.68-1.4,19.28-.68,27.43,8.36-5.68,9.33-9.91,16.82-9.45,17.63,1.76,3.12,12.57,2.46,17.46,5.83C265.53,451.43,261.36,460.26,261.36,460.26Z"/><path class="cls-15" d="M242.36,442a84,84,0,0,1-10.73-5.36c-4.49-2.73-10.86-2.92-16.63-1.1.22-.42.44-.78.62-1.09,1.19-2,3.92-8.82,7.95-19.29,8.68-1.4,19.28-.68,27.43,8.36-5.68,9.33-9.91,16.82-9.45,17.63A2.61,2.61,0,0,0,242.36,442Z"/><path class="cls-45" d="M244.3,445.68c5.29-7.35,13.51-11,13.62-6.62s-12.26,8.69-12.26,8.69"/><path class="cls-45" d="M244.3,443.62c-.43-6.15,6.68-15.48,9.79-14.42,4.26,1.46-5.22,12-11.13,16.79"/></g><g id="hand-5" data-name="hand"><path class="cls-41" d="M328.73,145.94c2.58-9,3.29-19.1,6-19.48s1.73,7.33,1.73,7.33l2.59,3.07L329.94,148Z"/><path class="cls-42" d="M330.3,139.51c1.46-6.81,2.37-12.76,4.46-13,2.75-.38,1.73,7.33,1.73,7.33"/><path class="cls-41" d="M364.15,141.66a48.41,48.41,0,0,1-6,3.88S352.51,157.71,345.4,160c0,0-5.8,17.31-13,34.16s-26.23,33.2-26.23,33.2C280.06,243.26,258.63,212,289.87,193a60.79,60.79,0,0,0,9-7.2c17.34-17.15,44.7-63.67,47.43-67.87s5.29-3.28,3.1,3.1c-2.11,6.19-3.72,11-3.81,11.31.43-.44,11.6-11.65,14-13.68,2.24-1.86,5.66-.18,1.64,5.84,4-5.2,7.83-4.62,4,2.74-2.37,4.55-7.89,11.6-8.23,12,.53-.27,9.46-4.94,12-4.41S368.11,138.8,364.15,141.66Z"/><path class="cls-42" d="M334.62,136.75c6.14-9.72,10.64-17.27,11.67-18.85,2.74-4.19,5.29-3.28,3.1,3.1-2.11,6.19-3.72,11-3.81,11.31.43-.44,11.6-11.65,14-13.68,2.24-1.86,5.66-.18,1.64,5.84,4-5.2,7.83-4.62,4,2.74-2.37,4.55-7.89,11.6-8.23,12,.53-.27,9.46-4.94,12-4.41s-1,4-4.94,6.81a48.41,48.41,0,0,1-6,3.88"/><path class="cls-42" d="M361.25,124.47c-4.29,6-10.49,13.11-10.49,13.11"/></g><g id="body-3" data-name="body"><path class="cls-46" d="M142.16,400.48c-.67,3.38,3.4,9.59,13.89,12.35l2.68-18.93A34,34,0,0,0,142.16,400.48Z"/><path class="cls-41" d="M152.71,393.9c-.37,20.24-1.5,28.31-1.5,29.62,0,0-13.5,34.7-17.44,62.65,0,0,7.88,13.88,31.14,8.07,0,0,17.07-48,20.63-60.59s4.13-30.29,4.13-30.29Z"/><path class="cls-47" d="M133.73,269.42a12.41,12.41,0,0,0,6.44,7.27l5.36-8.14A19.26,19.26,0,0,0,133.73,269.42Z"/><path class="cls-41" d="M142.05,265.84c-9.18,13.19-18.89,28.6-14.78,41.05s26.49,15.08,40.2,0l5-34.54Z"/><path class="cls-1" d="M164.88,297.31c-5.74,14-15.51,52.36-22.72,103.17,0,0,32.37-2,48.24,9.88.45-.75,8.39-47,9.29-48.67s6.44-1.94,7.79-1.05,31.65,19.45,35,20.52C261.09,387,282,355.63,272.32,344c-4.13-5-15.58-15.87-32.65-45.07Z"/><g class="cls-48"><rect class="cls-13" x="268.27" y="287.04" width="5.15" height="5.15"/><rect class="cls-13" x="243.18" y="287.04" width="5.15" height="5.15"/><rect class="cls-13" x="218.1" y="287.04" width="5.15" height="5.15"/><rect class="cls-13" x="193.02" y="287.04" width="5.15" height="5.15"/><rect class="cls-13" x="167.93" y="287.04" width="5.15" height="5.15"/><rect class="cls-13" x="142.85" y="287.04" width="5.15" height="5.15"/><rect class="cls-13" x="117.76" y="287.04" width="5.15" height="5.15"/><rect class="cls-13" x="268.27" y="318.87" width="5.15" height="5.15"/><rect class="cls-13" x="243.18" y="318.87" width="5.15" height="5.15"/><rect class="cls-13" x="218.1" y="318.87" width="5.15" height="5.15"/><rect class="cls-13" x="193.02" y="318.87" width="5.15" height="5.15"/><rect class="cls-13" x="167.93" y="318.87" width="5.15" height="5.15"/><rect class="cls-13" x="142.85" y="318.87" width="5.15" height="5.15"/><rect class="cls-13" x="117.76" y="318.87" width="5.15" height="5.15"/><rect class="cls-13" x="268.27" y="350.69" width="5.15" height="5.15"/><rect class="cls-13" x="243.18" y="350.69" width="5.15" height="5.15"/><rect class="cls-13" x="218.1" y="350.69" width="5.15" height="5.15"/><rect class="cls-13" x="193.02" y="350.69" width="5.15" height="5.15"/><rect class="cls-13" x="167.93" y="350.69" width="5.15" height="5.15"/><rect class="cls-13" x="142.85" y="350.69" width="5.15" height="5.15"/><rect class="cls-13" x="117.76" y="350.69" width="5.15" height="5.15"/><rect class="cls-13" x="268.27" y="382.52" width="5.15" height="5.15"/><rect class="cls-13" x="243.18" y="382.52" width="5.15" height="5.15"/><rect class="cls-13" x="218.1" y="382.52" width="5.15" height="5.15"/><rect class="cls-13" x="193.02" y="382.52" width="5.15" height="5.15"/><rect class="cls-13" x="167.93" y="382.52" width="5.15" height="5.15"/><rect class="cls-13" x="142.85" y="382.52" width="5.15" height="5.15"/><rect class="cls-13" x="117.76" y="382.52" width="5.15" height="5.15"/><rect class="cls-13" x="268.27" y="414.35" width="5.15" height="5.15"/><rect class="cls-13" x="243.18" y="414.35" width="5.15" height="5.15"/><rect class="cls-13" x="218.1" y="414.35" width="5.15" height="5.15"/><rect class="cls-13" x="193.02" y="414.35" width="5.15" height="5.15"/><rect class="cls-13" x="167.93" y="414.35" width="5.15" height="5.15"/><rect class="cls-13" x="142.85" y="414.35" width="5.15" height="5.15"/><rect class="cls-13" x="117.76" y="414.35" width="5.15" height="5.15"/><rect class="cls-13" x="100.5" y="268.55" width="10.29" height="10.29"/><rect class="cls-13" x="126.19" y="268.55" width="10.29" height="10.29"/><rect class="cls-13" x="151.89" y="268.55" width="10.29" height="10.29"/><rect class="cls-13" x="177.59" y="268.55" width="10.29" height="10.29"/><rect class="cls-13" x="203.29" y="268.55" width="10.29" height="10.29"/><rect class="cls-13" x="228.99" y="268.55" width="10.29" height="10.29"/><rect class="cls-13" x="254.69" y="268.55" width="10.29" height="10.29"/><rect class="cls-13" x="280.39" y="268.55" width="10.29" height="10.29"/><rect class="cls-13" x="100.5" y="300.38" width="10.29" height="10.29"/><rect class="cls-13" x="126.19" y="300.38" width="10.29" height="10.29"/><rect class="cls-13" x="151.89" y="300.38" width="10.29" height="10.29"/><rect class="cls-13" x="177.59" y="300.38" width="10.29" height="10.29"/><rect class="cls-13" x="203.29" y="300.38" width="10.29" height="10.29"/><rect class="cls-13" x="228.99" y="300.38" width="10.29" height="10.29"/><rect class="cls-13" x="254.69" y="300.38" width="10.29" height="10.29"/><rect class="cls-13" x="280.39" y="300.38" width="10.29" height="10.29"/><rect class="cls-13" x="100.5" y="332.21" width="10.29" height="10.29"/><rect class="cls-13" x="126.19" y="332.21" width="10.29" height="10.29"/><rect class="cls-13" x="151.89" y="332.21" width="10.29" height="10.29"/><rect class="cls-13" x="177.59" y="332.21" width="10.29" height="10.29"/><rect class="cls-13" x="203.29" y="332.21" width="10.29" height="10.29"/><rect class="cls-13" x="228.99" y="332.21" width="10.29" height="10.29"/><rect class="cls-13" x="254.69" y="332.21" width="10.29" height="10.29"/><rect class="cls-13" x="280.39" y="332.21" width="10.29" height="10.29"/><rect class="cls-13" x="100.5" y="364.03" width="10.29" height="10.29"/><rect class="cls-13" x="126.19" y="364.03" width="10.29" height="10.29"/><rect class="cls-13" x="151.89" y="364.03" width="10.29" height="10.29"/><rect class="cls-13" x="177.59" y="364.03" width="10.29" height="10.29"/><rect class="cls-13" x="203.29" y="364.03" width="10.29" height="10.29"/><rect class="cls-13" x="228.99" y="364.03" width="10.29" height="10.29"/><rect class="cls-13" x="254.69" y="364.03" width="10.29" height="10.29"/><rect class="cls-13" x="280.39" y="364.03" width="10.29" height="10.29"/><rect class="cls-13" x="100.5" y="395.86" width="10.29" height="10.29"/><rect class="cls-13" x="126.19" y="395.86" width="10.29" height="10.29"/><rect class="cls-13" x="151.89" y="395.86" width="10.29" height="10.29"/><rect class="cls-13" x="177.59" y="395.86" width="10.29" height="10.29"/><rect class="cls-13" x="203.29" y="395.86" width="10.29" height="10.29"/><rect class="cls-13" x="228.99" y="395.86" width="10.29" height="10.29"/><rect class="cls-13" x="254.69" y="395.86" width="10.29" height="10.29"/><rect class="cls-13" x="280.39" y="395.86" width="10.29" height="10.29"/></g><path class="cls-15" d="M197.23,222.29c7.79-10.23,18.62-15.68,36.32-6.32C233.55,216,209.72,227.22,197.23,222.29Z"/><path class="cls-2" d="M306.85,235.37s-41.19,15-43.68,18-9.3,25.8-12.64,37.58-6.37,14.63-6.37,14.63-28.8-4.22-49.44-2.59-30.8,1.12-33.2.09-2.84-4.9-1.46-9.11c.13-.4.28-.86.44-1.38,1.64-5,5-15.14,5-15.14a192.59,192.59,0,0,0-23.54-6.8,70.81,70.81,0,0,0-8.27-1.28,339.42,339.42,0,0,1,21.84-26.66c2.81-3,5.79-5.92,8.78-8.58,9-8,18-14,22.52-15,6-1.38,14.27.11,26.38-1.17,23.64-2.5,56.67-11.75,76.62-25.06a125,125,0,0,1,7,11.36,106.28,106.28,0,0,1,9.31,23S307.19,232.44,306.85,235.37Z"/><path class="cls-11" d="M176.84,240.84,165.47,277.5a192.59,192.59,0,0,0-23.54-6.8c3.06-4.67,8.08-7.73,14-5.83C165.51,268,166.7,241.56,176.84,240.84Z"/><path class="cls-17" d="M296.77,204.33c-17.33.93-45.89,15.49-58.54,33.15-14.84,20.72-36.19,18-46.08,3.36-7.36-10.85-15.31-9.47-27.87-6.66,9-8,18-14,22.52-15,6-1.38,14.27.11,26.38-1.17,23.64-2.5,56.67-11.75,76.62-25.06A125,125,0,0,1,296.77,204.33Z"/><polyline class="cls-18" points="178.36 235.92 176.84 240.84 165.47 277.5"/><path class="cls-32" d="M212,327.52a82.41,82.41,0,0,0,23.58-.72"/></g></g></svg>