<svg xmlns="http://www.w3.org/2000/svg" xmlns:xlink="http://www.w3.org/1999/xlink" viewBox="0 0 339.08 218.8"><defs><style>.cls-1,.cls-13,.cls-18,.cls-19,.cls-25,.cls-5,.cls-9{fill:none;}.cls-2{clip-path:url(#clip-path);}.cls-3{fill:#a7caf0;}.cls-21,.cls-4{fill:#febd9d;}.cls-21,.cls-24,.cls-5{stroke:#ef8a66;}.cls-12,.cls-13,.cls-16,.cls-17,.cls-18,.cls-19,.cls-20,.cls-21,.cls-24,.cls-25,.cls-5,.cls-9{stroke-linecap:round;stroke-linejoin:round;}.cls-21,.cls-24,.cls-25,.cls-5,.cls-9{stroke-width:0.75px;}.cls-6{fill:#c3dcf8;}.cls-7{fill:#d0e5f7;}.cls-8{fill:#83addf;}.cls-9{stroke:#83addf;}.cls-10{fill:#f4a789;}.cls-11{fill:#683f1d;}.cls-12,.cls-24{fill:#fff;}.cls-12{stroke:#683f1d;}.cls-13,.cls-16,.cls-17,.cls-19,.cls-20{stroke:#ddd;}.cls-13,.cls-20{stroke-width:2px;}.cls-14,.cls-16{fill:#ddd;}.cls-15{fill:#ededed;}.cls-17,.cls-20{fill:#f9f9f9;}.cls-18{stroke:#ededed;}.cls-22{fill:#dd6819;}.cls-23{fill:#cc5e0d;}.cls-25{stroke:#ff79a0;}.cls-26{fill:#fed81d;}.cls-27{fill:#f4af90;}</style><clipPath id="clip-path"><path class="cls-1" d="M264,50V199.3H51.14V50A15.05,15.05,0,0,1,66.2,35H249A15,15,0,0,1,264,50Z"/></clipPath></defs><g id="Girl"><g id="body"><g class="cls-2"><path class="cls-3" d="M219.48,195.53c4.58,2.29,10.52-2,17.11-7.82l-7.15-6.4S218.25,191.75,219.48,195.53Z"/><polygon class="cls-4" points="280.54 167.99 264 201.68 229.24 201.68 223.44 185.5 243.12 167.99 280.54 167.99"/><path class="cls-5" d="M253.59,168c-4.06,6.36-10.76,16.81-16.28,25.45"/><path class="cls-6" d="M247.4,170.62c-11.79,6.74-27.92,24.91-27.92,24.91l-4.32,8.6-2.52,5H127.09c-2-7.21-3.72-16.59-5-24.2-1-5.9-1.64-10.72-1.9-12.6-.08-.55-.11-.86-.11-.86-2.18,1.93-3.24,2-3.24,2l-4,10.57-.37,1c-14.2-9.5-40.18-11.19-40.18-11.19l3.49-11.79a13.1,13.1,0,0,1-.84-7.69c.57-3,8.39-16.64,16.27-28.11A113.62,113.62,0,0,1,101.59,113c.31-.32.63-.62,1-.92,9.51-8.74,25.27-7.48,35.62-6.53,1.54.13,3,.24,4.37.3a90.14,90.14,0,0,0,9.18,0c2.51-.13,3.9-.32,3.9-.32.31-1.46.62-3,.91-4.69,1.88-10.93,2.93-25.53,1.26-35.12l26.31,11.75c.46,4.79,2.22,15.27,3.43,22.18.67,3.85,1.17,6.6,1.17,6.6,2.11-.39,4.12-.74,6-1.07,26.71-4.53,33.6-2.82,41,10.2.19.35.39.71.58,1.08,4.57,9,7.67,27,9.41,39.72C246.84,164.52,247.4,170.62,247.4,170.62Z"/><path class="cls-6" d="M247.4,170.62c-11.57,6.61-27.32,24.23-27.91,24.89.22-.44,3.66-7.56,3.95-10s-.86-9.65-2.76-16.45l25-12.85C246.84,164.52,247.4,170.62,247.4,170.62Z"/><path class="cls-3" d="M158.38,174.52c-.2,9.58-22.64,10.93-36.25,10.4-1-5.9-1.64-10.72-1.9-12.6-.08-.55-.11-.86-.11-.86a64.39,64.39,0,0,0,12.11-17.17c8,5.47-2.26,11.08-2.65,13.7C128.52,175.21,158.65,160.8,158.38,174.52Z"/><path class="cls-7" d="M236.31,116.48c-7.8-2.7-16.56-2.62-22.62,7.08-13.67,21.82-39.33,38.84-65,13.08a79.1,79.1,0,0,0-11.48-9.77c-15.17-10.39-28-8.28-45.94-.59A113.62,113.62,0,0,1,101.59,113c.31-.32.63-.62,1-.92,9.51-8.74,25.27-7.48,35.62-6.53,1.54.13,3,.24,4.37.3a90.14,90.14,0,0,0,9.18,0c2.51-.13,3.9-.32,3.9-.32.31-1.46.62-3,.91-4.69,1.88-10.93,2.93-25.53,1.26-35.12l26.31,11.75c.46,4.79,2.22,15.27,3.43,22.18.67,3.85,1.17,6.6,1.17,6.6,2.11-.39,4.12-.74,6-1.07,26.71-4.53,33.6-2.82,41,10.2C235.92,115.75,236.12,116.11,236.31,116.48Z"/><path class="cls-8" d="M194.72,105.2c-.08,6.77-.81,19.08-3.75,27.8-3.8,11.3-8.28,6.71-13.2,2.24-4.46-4.05-20.68-17.56-35.24-29.39a90.14,90.14,0,0,0,9.18,0c2.51-.13,3.9-.32,3.9-.32.31-1.46.62-3,.91-4.69,10.58-.7,23.25-1.37,31-1.19.67,3.85,1.17,6.6,1.17,6.6C190.8,105.88,192.81,105.53,194.72,105.2Z"/><path class="cls-4" d="M184.37,131s-22.52-15.31-32.66-25.17c2.51-.13,3.9-.32,3.9-.32,2.41-11.07,4.09-28.76,2.17-39.81l17.1,7.64,9.21,4.11c.34,3.54,1.4,10.23,2.4,16.26,1.13,6.65,2.2,12.52,2.2,12.52C189.51,125.66,184.37,131,184.37,131Z"/><path class="cls-9" d="M219.48,195.53a0,0,0,0,0,0,0c.22-.44,3.66-7.56,3.95-10s-.86-9.65-2.76-16.45l-.3-1.06"/><path class="cls-10" d="M186.49,93.75c-17.73,1.07-15.73-18-15.61-18.5l4-1.87,9.21,4.11C184.43,81,185.49,87.72,186.49,93.75Z"/><path class="cls-3" d="M72.36,173.87c-.5,1.47-.5,3.07,10.65,6.21l1.73-7.34S74.59,170,72.36,173.87Z"/><path class="cls-4" d="M78.47,170c-2.62,8.55-11.76,37.15-11.76,37.15-2.48,10.48,28.62,17.34,39.7-.48L112.5,178A51.41,51.41,0,0,0,78.47,170Z"/><path class="cls-6" d="M129.61,159.13l-.1.18c-1.32,2.11-2.78,4.26-4.38,6.48a1.34,1.34,0,0,0-.11.14,51,51,0,0,1-4.9,5.53c-2.18,1.93-3.24,2-3.24,2l-4.34,11.56c-.44-.3-.9-.58-1.37-.87-7.91-4.79-18.81-7.43-27-8.83-2.69-.46-5.09-.79-7-1-2.94-.35-4.76-.47-4.76-.47l3.49-11.79a13.1,13.1,0,0,1-.84-7.69c.57-3,8.39-16.64,16.27-28.11A113.62,113.62,0,0,1,101.59,113c.31-.32.63-.62,1-.92,13.48-6.3,31-4.75,34.45,13.43.08.45.17.91.23,1.36C139.2,138.94,136.21,148.55,129.61,159.13Z"/><path class="cls-7" d="M137.22,126.87c-15.17-10.39-28-8.28-45.94-.59A113.62,113.62,0,0,1,101.59,113c.31-.32.63-.62,1-.92,13.48-6.3,31-4.75,34.45,13.43C137.07,126,137.16,126.42,137.22,126.87Z"/><path class="cls-9" d="M81.38,164.55c9.39,0,18.58,3.84,20.13,4.58"/><path class="cls-9" d="M120.12,171.46a51,51,0,0,0,4.9-5.53,1.34,1.34,0,0,1,.11-.14,70.57,70.57,0,0,0,4.38-6.48l.1-.18c1.07-1.79,1.94-3.44,2.62-4.84.54-1.08,1-2,1.22-2.67"/><path class="cls-4" d="M201.4,163.12c.37,4.72-2.42,5.93-2.42,5.93.38,11.5-3,17-8.62,18.46s-20.13,4.55-20.13,4.55a29.37,29.37,0,0,0-4.35,2.19l-6,3.5c-7.21,4.23-18.58,8.16-32.09,15.29-23.94,12.62-41,5.78-42.15-7.62-2.06-24.5,29.08-26.1,40.45-28,8.23-1.39,21-4.65,28.9-6.48a64.31,64.31,0,0,1,6.32-1.27h0c3.81-.33,11.69-4.49,25.52-8.85s25-6.87,25-3.81S201.4,163.12,201.4,163.12Z"/><path class="cls-5" d="M186.84,160.8c13.81-4.37,25-6.87,25-3.81s-10.48,6.13-10.48,6.13c.37,4.72-2.42,5.93-2.42,5.93.38,11.5-3,17-8.62,18.46"/><path class="cls-5" d="M91.45,188.78c6-5.8,15.61-8.31,23.73-9.73"/><path class="cls-11" d="M165.88,194.25l-6,3.5c-5.56-6.2-8.45-15.82-4.89-26.83a64.31,64.31,0,0,1,6.32-1.27C158.72,176.71,158.25,188.21,165.88,194.25Z"/><line class="cls-5" x1="201.4" y1="163.12" x2="192.86" y2="165.88"/><line class="cls-5" x1="198.98" y1="169.05" x2="193.73" y2="170.96"/><line class="cls-5" x1="194.3" y1="176.49" x2="198.77" y2="175.27"/><path class="cls-12" d="M163.87,183.87a7.23,7.23,0,1,1-7.23-7.23A7.23,7.23,0,0,1,163.87,183.87Z"/></g></g><g id="bg"><path class="cls-13" d="M264,50V199.3H51.14V50A15.05,15.05,0,0,1,66.2,35H249A15,15,0,0,1,264,50Z"/><path class="cls-13" d="M264,50v.68H51.14V50A15.05,15.05,0,0,1,66.2,35H249A15,15,0,0,1,264,50Z"/><path class="cls-14" d="M235.2,42.83a2.74,2.74,0,1,1-2.74-2.73A2.74,2.74,0,0,1,235.2,42.83Z"/><circle class="cls-15" cx="241.39" cy="42.83" r="2.74"/><path class="cls-14" d="M253.06,42.83a2.74,2.74,0,1,1-2.74-2.73A2.74,2.74,0,0,1,253.06,42.83Z"/></g><g id="Calendar"><path class="cls-16" d="M212.36,173.73c3.42-3.63,9.13-4.08,9.13-4.08l6.6,6.84s1.89-20.17-6.6-47.85C219.87,142.15,214.91,163.9,212.36,173.73Z"/><path class="cls-17" d="M277.58,124.54c9.55,30.3,9.09,52,9.09,52H228.09s-7.88-30.07-6.6-47.85c0,0-1.11-4.19,2.56-4.55S277.58,124.54,277.58,124.54Z"/><path class="cls-18" d="M230.65,124.25a2.26,2.26,0,0,1,0-.26,4.2,4.2,0,1,1,4.19,4.65"/><path class="cls-18" d="M260.4,124.25a4.21,4.21,0,1,1,4.19,4.76,4,4,0,0,1-2-.53"/><path class="cls-18" d="M242.6,124.07a4.39,4.39,0,0,1,4.17-4.22,4.7,4.7,0,0,1,0,9.34,3.89,3.89,0,0,1-2.55-1"/><path class="cls-18" d="M251.52,124.17a4.2,4.2,0,1,1,4.17,4.74"/><rect class="cls-19" x="233.4" y="134.29" width="41.04" height="4.69"/><polyline class="cls-18" points="243.57 171.38 243.05 167.43 240.4 147.09 239.97 143.75"/><polyline class="cls-18" points="256.89 171.38 256.33 167.14 253.76 147.36 253.29 143.75"/><line class="cls-18" x1="266.61" y1="143.75" x2="270.21" y2="171.38"/><polyline class="cls-18" points="274.88 149.27 254.01 149.27 240.69 149.27 234.84 149.27"/><polyline class="cls-18" points="276.91 161.35 255.58 161.35 242.26 161.35 236.87 161.35"/><path class="cls-20" d="M244.49,144.7c-6.62,3.38-9.81,17.48,1.42,18.42,16.55,1.38,17.34-19,2.84-17.09"/><polygon class="cls-15" points="255.58 161.35 242.26 161.35 240.69 149.27 254.01 149.27 255.58 161.35"/><path class="cls-21" d="M279.5,159.52c.28,4.6,9-.46,8.41-4.48S279.18,154.21,279.5,159.52Z"/><path class="cls-21" d="M278,153.35c.32,4.59,10.14-.46,9.49-4.48S277.66,148,278,153.35Z"/><path class="cls-21" d="M277.34,148.73c.34,4.6,10.87-.45,10.18-4.48S276.94,143.42,277.34,148.73Z"/><path class="cls-21" d="M275.85,143.05c.36,4.16,11.22-.42,10.51-4.07S275.45,138.23,275.85,143.05Z"/><path class="cls-13" d="M244.49,144.7c-6.62,3.38-9.81,17.48,1.42,18.42,16.55,1.38,17.34-19,2.84-17.09"/></g><g id="head"><path class="cls-22" d="M205,37.7c-.86,7.23-10.54,11.47-10.54,11.47L167.6,72.58c-2.75,4.4-10.25,6.6-14.81,2.94-2.66-2.14-4.33-6.3-3.42-13.2a3.8,3.8,0,0,1-2.11-.64c-3.08-1.91-5-8-.36-15.23-.33.32-6.5,6.33-12.86,4.52A7.93,7.93,0,0,1,129,46.82c-2-4.1-1.3-10.91,4.4-20.26,4.06-6.67,9.71-7.87,14.56-6.63,5.47,1.4,9.91,5.91,9.91,9.18A21.53,21.53,0,0,1,162,25.19c2.14-1.48,4.79-2.5,7.16-1.06,0,0,8.33-4.48,13.08-1.68,5.9,3.48,4.6,5.91,10.34,6.29,4.26.27,10.95,1.35,12.23,6.19A7.15,7.15,0,0,1,205,37.7Z"/><path class="cls-23" d="M157.82,29.11l-10.9,17.32,0,0a20.68,20.68,0,0,1-2.49,2C142,50.16,138,52.11,134,51A7.93,7.93,0,0,1,129,46.82c12.42-.27,16.78-3.74,14.23-10.57-2.37-6.36-4.82-14.34,4.73-16.32A15.32,15.32,0,0,1,157,26.39,5.57,5.57,0,0,1,157.82,29.11Z"/><path class="cls-23" d="M205,37.7c-.86,7.23-10.54,11.47-10.54,11.47L167.6,72.58c-2.75,4.4-10.25,6.6-14.81,2.94a20.16,20.16,0,0,1,4.78-22.43c5.51-5,1.47-8.73,2-15.32s12.57-16.7,21.2-7.61c6.75,7.13,19.47-1.5,24.09,4.77A7.15,7.15,0,0,1,205,37.7Z"/><path class="cls-4" d="M188.52,85.54c-12.06-1.23-24.3-13.74-24.3-13.74-4.61,5.23-13.67-2.59-9.18-9.11,2.94-4.29,7.54-1.75,8.65.6a9.2,9.2,0,0,0,3.37-11.61,18.16,18.16,0,0,1-1.24-7.8c4.08-6.21,14.9-7.63,14.9-7.63a16.1,16.1,0,0,0,12.49,5s3.71,7.25,6.73,14.61l.21.51c.85,2.1,1.64,4.19,2.26,6.12.05.19.11.36.16.54a26.51,26.51,0,0,1,1.1,4.65C204.65,75.62,200.57,86.79,188.52,85.54Z"/><path class="cls-11" d="M193.52,52.57a1.31,1.31,0,1,0,1.31-1.3A1.31,1.31,0,0,0,193.52,52.57Z"/><circle class="cls-11" cx="186.84" cy="53.87" r="1.3"/><path class="cls-24" d="M185.31,62.67a17.51,17.51,0,0,0,8.41,1.85s-.56,4.87-4.75,3.58C185.33,67,185.31,62.67,185.31,62.67Z"/><path class="cls-22" d="M181.18,50.05c.49,1.61,6.49,0,5.84-2.6S180.5,47.78,181.18,50.05Z"/><path class="cls-22" d="M191.4,46.85c-.1,1.74,6,1.85,6,.36S191.56,44,191.4,46.85Z"/><path class="cls-25" d="M149.36,62.32a22.14,22.14,0,0,1,6.77-12.85"/><path class="cls-25" d="M169.16,24.13c-1.89,1.51-4.72,6.41-5.82,8.63"/><path class="cls-25" d="M167.48,37.7c2.23-5.94,6.52-8.61,8.52-6.34s4.71,4.89,4.71,4.89"/><path class="cls-25" d="M193.22,41.3c2.5-.09,4.87-2.65,5.59-4.12"/><path class="cls-25" d="M143.19,45.36c-9.22,1.44-13.77-12.21-6.29-23"/><path class="cls-25" d="M152.43,32.76c1.93-5-4.52-13.07-8.05-7.53-4,6.33,1.83,14.75,8,14"/><path class="cls-26" d="M146.93,46.43a43.67,43.67,0,0,1,10.89-17.32s-2.79,5.68-.74,9.72A90.66,90.66,0,0,0,146.93,46.43Z"/><path class="cls-5" d="M156.13,67c1.85-3.28,5.09-3.1,6.78-.34"/><path class="cls-5" d="M162.24,65.74c-3.84-1-3.84,4.15.23,3.41"/><path class="cls-5" d="M190.05,51.63c-.05,3,2.34,4.72,3.93,5.54s1.06,3.06,1,3.33"/><path class="cls-5" d="M164.22,71.8a11.43,11.43,0,0,0,1.53-2.57"/><path class="cls-27" d="M181.55,61.7c-1,1.89-4.08,2.25-7,.79s-4.46-4.17-3.5-6.07,4.07-2.25,7-.8S182.5,59.8,181.55,61.7Z"/><path class="cls-27" d="M202.57,63.08a3.67,3.67,0,0,1-3.86-.51c-1.45-1.45-.9-4.4,1.23-6.66l.21.51c.85,2.1,1.64,4.19,2.26,6.12C202.46,62.73,202.52,62.9,202.57,63.08Z"/></g></g></svg>