<svg xmlns="http://www.w3.org/2000/svg" viewBox="0 0 800 600"><defs><style>.cls-1,.cls-13,.cls-16,.cls-20,.cls-21,.cls-23,.cls-24,.cls-31,.cls-34,.cls-39,.cls-6{fill:none;}.cls-1,.cls-3,.cls-6,.cls-8,.cls-9{stroke:#ddd;}.cls-1,.cls-13,.cls-16,.cls-20,.cls-22,.cls-23,.cls-24,.cls-27,.cls-29,.cls-3,.cls-31,.cls-34,.cls-39,.cls-41,.cls-5,.cls-6,.cls-9{stroke-linecap:round;stroke-linejoin:round;}.cls-1,.cls-23,.cls-9{stroke-width:1.88px;}.cls-2{fill:#ededed;}.cls-3,.cls-5,.cls-9{fill:#f9f9f9;}.cls-21,.cls-22,.cls-3,.cls-31,.cls-5,.cls-6,.cls-8{stroke-width:0.94px;}.cls-4,.cls-8{fill:#ddd;}.cls-23,.cls-5{stroke:#ededed;}.cls-22,.cls-27,.cls-7{fill:#fff;}.cls-21,.cls-8{stroke-miterlimit:10;}.cls-10{fill:#c3dcf8;}.cls-11,.cls-29{fill:#b25e47;}.cls-12{fill:#914839;}.cls-13{stroke:#83addf;}.cls-13,.cls-16,.cls-20,.cls-24,.cls-27,.cls-29,.cls-34,.cls-39,.cls-41{stroke-width:0.71px;}.cls-14{fill:#93bee5;}.cls-15{fill:#83addf;}.cls-16{stroke:#c3dcf8;}.cls-17{fill:#fed81d;}.cls-18{fill:#ffe05c;}.cls-19{fill:#fcc71f;}.cls-20{stroke:#f7ad2b;}.cls-21,.cls-22{stroke:#683f1d;}.cls-24,.cls-27,.cls-29{stroke:#934735;}.cls-25{fill:#d39933;}.cls-26{fill:#683f1d;}.cls-28{fill:#a0503d;}.cls-30{fill:#a7caf0;}.cls-31{stroke:#fed81d;}.cls-32{fill:#604730;}.cls-33{fill:#473526;}.cls-34{stroke:#91613d;}.cls-35,.cls-41{fill:#febd9d;}.cls-36{fill:#d0e5f7;}.cls-37{fill:#f4a789;}.cls-38{fill:#dd6819;}.cls-39,.cls-41{stroke:#ef8a66;}.cls-40{fill:#f4af90;}</style></defs><g id="background"><path class="cls-1" d="M18.42,477.76C207.19,424.11,526,417.27,642.83,437.34S781.6,477.76,781.6,477.76"/><polygon class="cls-2" points="136.01 499.55 117.63 511.47 118.91 514.13 144.71 503.34 136.01 499.55"/><polygon class="cls-2" points="168.35 499.55 186.74 511.47 185.46 514.13 159.66 503.34 168.35 499.55"/><path class="cls-3" d="M177.06,448.43c-9.84-8.36-9.47-11.35-3.14-25.11,8.22-17.85-3.09-31.7-21.74-31.7s-29.95,13.85-21.74,31.7c6.34,13.76,6.7,16.75-3.13,25.11-11.4,9.68-15.86,36.92,1.65,51,8.95,7.22,23.22,6.58,23.22,6.58s14.28.64,23.23-6.58C192.91,485.35,188.46,458.11,177.06,448.43Z"/><circle class="cls-4" cx="152.18" cy="423.32" r="11.03"/><rect class="cls-5" x="147.3" y="311.2" width="9.77" height="156.74"/><line class="cls-6" x1="150.41" y1="467.93" x2="150.41" y2="315.3"/><line class="cls-6" x1="153.95" y1="467.93" x2="153.95" y2="315.3"/><rect class="cls-3" x="145.05" y="286.68" width="14.26" height="28.62"/><rect class="cls-2" x="147.95" y="291.53" width="8.47" height="18.93"/><path class="cls-3" d="M145.05,305.7c-2.64-2.78-5.29-1.4-4.48.87s4.48,2.35,4.48,2.22Z"/><path class="cls-3" d="M145.05,309.5v3s-1.63.82-2.53,0S142.78,309.39,145.05,309.5Z"/><path class="cls-3" d="M159.31,305.7c2.64-2.78,5.3-1.4,4.48.87s-4.48,2.35-4.48,2.22Z"/><path class="cls-3" d="M159.31,309.5v3s1.64.82,2.53,0S161.58,309.39,159.31,309.5Z"/><path class="cls-3" d="M159.31,297.87c3.33-3.51,6.68-1.76,5.65,1.1s-5.65,2.95-5.65,2.79Z"/><rect class="cls-2" x="137.91" y="465.68" width="28.55" height="5.66"/><path class="cls-5" d="M200.73,116c4.4-5.81,21.3.1,25.79,5.82s-10.31,23-15.77,19.64S195.88,122.4,200.73,116Z"/><path class="cls-5" d="M212.26,126.1c-5.85,6.79-7.79,14.73-4.31,17.73s11-.08,16.9-6.87,7.79-14.73,4.31-17.72S218.12,119.31,212.26,126.1Z"/><path class="cls-5" d="M171,116c4.39-5.81,21.29.1,25.78,5.82s-10.3,23-15.77,19.64S166.15,122.4,171,116Z"/><path class="cls-5" d="M182.53,126.1c-5.86,6.79-7.79,14.73-4.31,17.73s11-.08,16.89-6.87,7.79-14.73,4.32-17.72S188.39,119.31,182.53,126.1Z"/><path class="cls-2" d="M185.05,128.6c-5,5.79-7.13,12.14-4.77,14.17s8.32-1,13.32-6.8,7.13-12.14,4.77-14.18S190.05,122.8,185.05,128.6Z"/><ellipse class="cls-3" cx="219.06" cy="132.28" rx="13.85" ry="5.64" transform="translate(-24.19 211.74) rotate(-49.22)"/><line class="cls-1" x1="146.84" y1="111.06" x2="146.84" y2="88.68"/><path class="cls-1" d="M175.7,113.6c.06.09,0-27.2,0-27.2"/><line class="cls-1" x1="204.03" y1="113.97" x2="204.03" y2="76.78"/><line class="cls-7" x1="236.02" y1="125.36" x2="273.7" y2="132.82"/><line class="cls-6" x1="223.73" y1="157.18" x2="251.09" y2="194.86"/><line class="cls-6" x1="189.33" y1="151.43" x2="210.44" y2="187.32"/><line class="cls-6" x1="155.49" y1="148.66" x2="177.13" y2="189.11"/><path class="cls-5" d="M145.84,111.57c6-4.12,20.17,6.83,22.63,13.67s-17.05,18.55-21.17,13.65S139.22,116.12,145.84,111.57Z"/><ellipse class="cls-5" cx="157.84" cy="131.95" rx="16.24" ry="8.31" transform="translate(-45.29 99.4) rotate(-30.79)"/><ellipse class="cls-8" cx="158.08" cy="132.82" rx="13.85" ry="5.64" transform="translate(-45.71 99.64) rotate(-30.79)"/><polygon class="cls-5" points="320.26 521.01 242.58 446.28 315.06 376.55 304.89 376.55 237.49 441.38 170.09 376.55 159.92 376.55 232.4 446.28 154.72 521.01 164.9 521.01 237.49 451.17 310.08 521.01 320.26 521.01"/><rect class="cls-3" x="105.76" y="360.78" width="53.55" height="19.84"/><rect class="cls-3" x="159.31" y="360.78" width="209.91" height="19.84"/><polygon class="cls-2" points="684.5 510.93 683.6 507.03 655.78 513.43 656.04 512.44 640.44 508.35 638.24 511.91 655.02 516.3 655.36 515.03 655.93 517.51 684.5 510.93"/><polygon class="cls-3" points="697.28 529.2 691.68 529.2 663.83 481.91 669.43 481.91 697.28 529.2"/><polygon class="cls-3" points="626.1 529.2 631.7 529.2 659.55 481.91 653.95 481.91 626.1 529.2"/><polygon class="cls-3" points="648.73 529.2 654.33 529.2 664.78 481.91 659.18 481.91 648.73 529.2"/><rect class="cls-3" x="658.6" y="366.5" width="6.18" height="105.67"/><rect class="cls-9" x="622.9" y="259.48" width="77.59" height="110.7" rx="9.86"/><rect class="cls-2" x="640.91" y="283.01" width="41.56" height="8.97"/><circle class="cls-6" cx="661.69" cy="330.72" r="22.25"/><rect class="cls-2" x="651.5" y="472.17" width="20.38" height="12.1" rx="4.18"/><path class="cls-5" d="M616.49,116c-4.4-5.81-21.3.1-25.79,5.82s10.31,23,15.77,19.64S621.34,122.4,616.49,116Z"/><path class="cls-5" d="M605,126.1c5.85,6.79,7.79,14.73,4.31,17.73s-11-.08-16.9-6.87-7.79-14.73-4.31-17.72S599.1,119.31,605,126.1Z"/><path class="cls-5" d="M646.22,116c-4.4-5.81-21.29.1-25.78,5.82s10.3,23,15.77,19.64S651.07,122.4,646.22,116Z"/><path class="cls-5" d="M634.69,126.1c5.86,6.79,7.79,14.73,4.31,17.73s-11-.08-16.89-6.87-7.79-14.73-4.32-17.72S628.83,119.31,634.69,126.1Z"/><ellipse class="cls-2" cx="627.89" cy="132.28" rx="5.64" ry="13.85" transform="translate(66.06 442.27) rotate(-40.78)"/><ellipse class="cls-3" cx="598.16" cy="132.28" rx="5.64" ry="13.85" transform="translate(58.84 422.84) rotate(-40.78)"/><line class="cls-1" x1="670.38" y1="111.06" x2="670.38" y2="88.68"/><path class="cls-1" d="M641.52,113.6c-.06.09,0-27.2,0-27.2"/><line class="cls-1" x1="613.19" y1="113.97" x2="613.19" y2="76.78"/><line class="cls-7" x1="581.2" y1="125.36" x2="543.52" y2="132.82"/><line class="cls-6" x1="593.49" y1="157.18" x2="566.13" y2="194.86"/><line class="cls-6" x1="627.89" y1="151.43" x2="606.78" y2="187.32"/><line class="cls-6" x1="661.73" y1="148.66" x2="640.09" y2="189.11"/><path class="cls-5" d="M671.38,111.57c-6-4.12-20.18,6.83-22.63,13.67s17,18.55,21.17,13.65S678,116.12,671.38,111.57Z"/><ellipse class="cls-5" cx="659.38" cy="131.95" rx="8.31" ry="16.24" transform="matrix(0.51, -0.86, 0.86, 0.51, 208.5, 630.84)"/><ellipse class="cls-8" cx="659.14" cy="132.82" rx="5.64" ry="13.85" transform="translate(207.63 631.06) rotate(-59.21)"/></g><g id="Man_R" data-name="Man R"><g id="body"><path class="cls-10" d="M530.33,316.87c7.45-4.85,9.15-6.52,17.83-3.37s13.86,12.85,11.61,17.81-36.35,29.08-42.46,27.28-4.36-19.28,2.37-29.08S528,318.4,530.33,316.87Z"/><path class="cls-11" d="M532.34,324.69l-7,11.4-1.89-1c-1.64-.85-4.43-2.26-8.51-4.3a10.29,10.29,0,0,1-1.5-.91c-6.82-4.89-.26-13.82,6.77-10.94A113.3,113.3,0,0,1,532.34,324.69Z"/><path class="cls-12" d="M523.42,335.12c-1.64-.85-4.43-2.26-8.51-4.3a10.29,10.29,0,0,1-1.5-.91l1.36-2.39,4.37-2.32,4.38-1.38,1.41.87.08,3.05S527.22,331.4,523.42,335.12Z"/><path class="cls-13" d="M521.44,343.24c3.87-7.15,12.42-21.64,17.25-26.37a1.51,1.51,0,0,0,0-2.24"/><path class="cls-10" d="M652.2,519s15,17.44,16.59,19a3,3,0,0,0,3.58.23l-4.8-33.71-17.08,2.43Z"/><path class="cls-14" d="M654,505.56v18.28s-51.57,12.09-65.74,11.9-19.65-10.2-19.27-21.35,6.43-76.5,6.43-76.5l3.8-.8,35.73-7.51L601.4,496.73l-2.42,12Z"/><path class="cls-15" d="M614.91,429.58,601.4,496.73c-3.84-3.49-9.22-10.48-5-16.87,6-9.15,5.74-22.64.73-20.47s-17.94-.77-20.42-10.7l2.47-11.6Z"/><path class="cls-16" d="M599,508.73c-1.28,5.26-2.46,6.83-2.46,6.83"/><path class="cls-17" d="M614.84,400.76l-49.67,16.92s-1.52-6.41-2.44-6.41-3.2.92-5.17-2.88c-.46-.88-1.79-3-3.63-5.86-4-6.31-10.57-16.16-15.58-23.92h0c-2.63-4.08-4.85-7.58-6.07-9.68-.36-.62-.72-1.27-1.07-1.95-2.7-5.17-5.13-11.91-5.25-18.45a21.44,21.44,0,0,1,2.17-10.23,24.69,24.69,0,0,1,13.93-11.61c8.1-2.79,18.64-2.07,30,5.67a83.57,83.57,0,0,1,15.38,14c14.7,16.76,23.69,37.2,24.84,39.52,1.53,3.05-.93,4.4-1.76,5.36S614.84,400.76,614.84,400.76Z"/><path class="cls-18" d="M587.41,346.31c-8.54,5-20.75,9.06-28.24,1.37a17.26,17.26,0,0,0-6.11-4.11c-7.9-3.12-17.78-.24-27.1,4.95a21.44,21.44,0,0,1,2.17-10.23,24.69,24.69,0,0,1,13.93-11.61c8.1-2.79,18.64-2.07,30,5.67A83.57,83.57,0,0,1,587.41,346.31Z"/><path class="cls-19" d="M553.93,402.53c-4-6.31-10.57-16.16-15.58-23.92h0c-2.63-4.08-4.85-7.58-6.07-9.68-.36-.62-.72-1.27-1.07-1.95,5.46-13,16.86-17.79,18.81-8.28,3.62,17.67-6.48,11.49-3,24.71C547.71,385.89,558.67,393.93,553.93,402.53Z"/><line class="cls-20" x1="567.47" y1="409.71" x2="605.96" y2="392.56"/><polyline class="cls-21" points="541.28 369.48 538.55 394.25 529.16 377.38"/><rect class="cls-22" x="535.22" y="393.39" width="7.55" height="13.15"/><path class="cls-13" d="M561.6,450.34c8.08,1.39,15.53,2.56,20.19,3A42.72,42.72,0,0,0,602,450.19"/><path class="cls-10" d="M510.2,519.11s-21.41,13.66-23.35,15.19a3.25,3.25,0,0,0-.81,3.87h37.61V519.11Z"/><path class="cls-14" d="M579.31,412.88s-52.53.6-62.22.09-21.25,3.67-22.32,22.63S501.22,521,501.22,521h23.54l-2.42-78s44.38,8.87,59.45,10.35,36.82-6.43,37.92-26.49c.95-17.15-5.9-25.73-5.9-25.73Z"/><path class="cls-16" d="M597,406.54c.77,7.33-1.43,13.62-4.86,12.79s-5.63-1.59-5.85,1.5-1.65,4.3-4.85,2.65-4.86-.56-6.74.22-58.72,4.19-61.15,4.52-2.76,2.43-2.54,4-4.42.66-4.42,2,3.09,2.87,2.65,3.54-1.68,2.31-.89,4,.67,1.66,1.11,10.93,4.2,68.39,4.2,68.39"/><path class="cls-16" d="M590,411a9.77,9.77,0,0,0,1.16,5.87"/><path class="cls-16" d="M522.34,443c-4.49-1.32-5.63-2.65-5.63-2.65"/></g><g id="mic"><path class="cls-4" d="M455.62,528.64c-10.33,0-18.83,5.28-19.07,7.1s19.07,1.83,19.07,1.83,19.3,0,19.07-1.83S465.94,528.64,455.62,528.64Z"/><path class="cls-3" d="M453.15,308.95h4.93a0,0,0,0,1,0,0V530.25a2.36,2.36,0,0,1-2.36,2.36h-.21a2.36,2.36,0,0,1-2.36-2.36V308.95a0,0,0,0,1,0,0Z"/><path class="cls-23" d="M484.89,248.46c-9.83,9.08-5.65,28,2.34,39.33s8.68,28.87-6,42.93-37.61,23.78-38.78,53,29.31,46.69,30.25,68.64c1,23.3-9.65,44.49-14.61,53"/></g><g id="upper_hand" data-name="upper hand"><path class="cls-17" d="M515.42,359.28c-5.26,1-10,1.84-14.31,2.47-12.3,1.82-20.66,1.92-25.38-1a9.78,9.78,0,0,1-4.45-7.17,7.66,7.66,0,0,1,.48-4.49c1.43-3.27,5.59-6.24,14.17-9.09,2.95-1,6.42-1.94,10.48-2.9,21.07-4.95,28.58-6.81,33.21-1.77S538.57,354.92,515.42,359.28Z"/><path class="cls-19" d="M501.11,361.75c-12.3,1.82-20.66,1.92-25.38-1a9.78,9.78,0,0,1-4.45-7.17,7.66,7.66,0,0,1,.48-4.49c2.82,1,5.1,3.19,5.43,5.59.83,6,5.15,5.72,8.73,4.27a15.37,15.37,0,0,0,1.53-.69C490.88,356.5,498.71,357.81,501.11,361.75Z"/></g><g id="upper_hand-2" data-name="upper hand"><path class="cls-17" d="M553.12,343.57a51.51,51.51,0,0,1-2.07,6.9c-.88,2.41-1.87,4.79-2.75,7a191.22,191.22,0,0,1-9.89,21.1h0c-.48.87-1,1.75-1.49,2.61-4.07,7-8.82,13.43-13.66,16.59-3.78,2.47-7.62,2.93-11.26,0a6.82,6.82,0,0,1-1.19-1.21c-2.83-3.58-3.07-10.19-1.59-18a101.78,101.78,0,0,1,8.84-25.09c6.91-13.93,16.3-25.88,24.06-26.9a7.27,7.27,0,0,1,4.07.58C553.7,330.7,554.56,336.88,553.12,343.57Z"/><path class="cls-20" d="M551.05,350.47c-.88,2.41-1.87,4.79-2.75,7a191.22,191.22,0,0,1-9.89,21.1h0c-.48.87-1,1.75-1.49,2.61-4.07,7-8.82,13.43-13.66,16.59"/><path class="cls-18" d="M553.12,343.57c-7.9-3.12-17.78-.24-27.1,4.95a85.42,85.42,0,0,0-8,5.06c6.91-13.93,16.3-25.88,24.06-26.9a7.27,7.27,0,0,1,4.07.58C553.7,330.7,554.56,336.88,553.12,343.57Z"/><path class="cls-19" d="M536.92,381.22c-4.07,7-8.82,13.43-13.66,16.59-3.78,2.47-7.62,2.93-11.26,0a6.82,6.82,0,0,1-1.19-1.21c6.05,2.76,9.79-1.17,12.6-7.76l.3-.74C528.49,376.3,536.94,381.19,536.92,381.22Z"/></g><g id="hand"><path class="cls-11" d="M469.34,361.86a84.78,84.78,0,0,1-7.93-7.62c-2.4-2.4-4.61-3.31-7.41.4,0,0-4-1.1-5.81-.4s-1.31,3.77-.4,4.44-.83,2-.82,3.18,1,2.8.72,3.5-1.81,3.41.6,5.11S461.86,374,461.86,374Z"/><path class="cls-24" d="M461.41,354.24c-2.4-2.4-4.61-3.31-7.41.4,0,0-4-1.1-5.81-.4s-1.31,3.77-.4,4.44-.83,2-.82,3.18,1,2.8.72,3.5-1.81,3.41.6,5.11"/><line class="cls-24" x1="454" y1="354.64" x2="458.93" y2="356.33"/><path class="cls-17" d="M523.26,397.81c-3.69,3.64-12.25,5.27-22.4,2A94.3,94.3,0,0,1,487,394.2a83.6,83.6,0,0,1-18.38-12.69,4.26,4.26,0,0,1-1.61-4.09L461.86,374l7.48-12.1L476.2,366a3.62,3.62,0,0,1,4-.17c2.4,1.22,20.75,9.31,25.27,11.15.94.39,2.25,1,3.74,1.7l.89.45.79.41.39.2,1.67.92c1.3.74,2.65,1.56,3.94,2.43l1,.67.1.07a25.26,25.26,0,0,1,5.46,5.05,9.57,9.57,0,0,1,1.51,2.79A5.82,5.82,0,0,1,523.26,397.81Z"/><path class="cls-20" d="M505.48,377c.94.39,2.25,1,3.74,1.7a63.08,63.08,0,0,1,8.73,5.15"/><path class="cls-20" d="M468.55,375.25a45,45,0,0,1,5.45-7.71"/><path class="cls-19" d="M523.26,397.81c-3.69,3.64-12.25,5.27-22.4,2A94.3,94.3,0,0,1,487,394.2c4.34-2.4,14-4.38,20.62.51a18.16,18.16,0,0,0,3.18,1.92c6.05,2.76,9.79-1.17,12.6-7.76a9.57,9.57,0,0,1,1.51,2.79A5.82,5.82,0,0,1,523.26,397.81Z"/></g><g id="head"><path class="cls-11" d="M532.88,325.56a5.74,5.74,0,0,1-7.87,2.18c-3.5,5.64-13.5,9.15-17.76,4.71-2.09-2.18-2.19-7.67-.92-13.52a43.88,43.88,0,0,1,1.26-4.61c1.49-4.53,3.7-8.82,6.32-11.51l.35-.34c9.21-8.79,25.85,1.81,17.16,17.33C531.42,319.8,535,322,532.88,325.56Z"/><path class="cls-25" d="M531.42,319.8a3.67,3.67,0,0,0-4.95,1.23c-1,1.43-2.73-.11-1.75-1.75s4-5.54,4.06-8.5-1.32-4.93-3.95-5.37-8.9.77-10.57-2.94C523.47,293.68,540.11,304.28,531.42,319.8Z"/><path class="cls-26" d="M515.24,314.48a1,1,0,1,0,1-1A1,1,0,0,0,515.24,314.48Z"/><path class="cls-26" d="M509.93,312.41a1,1,0,1,0,2.07,0,1,1,0,0,0-2.07,0Z"/><path class="cls-24" d="M509.05,318.25c-.1-2.27.4-3.15,1.92-3.44s3.27-1.26,2.52-3.79"/><path class="cls-24" d="M526.47,324.53c1-2.84,4.36-2.84,5-1.33"/><path class="cls-24" d="M526.76,323.9c2.62-2.3,4.68,2.23.38,2.23"/><path class="cls-25" d="M509.27,307c-.22.77,3.78,2.61,4.55,1S509.72,305.46,509.27,307Z"/><path class="cls-25" d="M516.55,309.49c-.54,1.73,4.55,4.23,5.31,3C522.27,311.8,517.56,306.23,516.55,309.49Z"/><path class="cls-27" d="M509.54,322.37c.32-1.16,4,.88,3.6,2.64S509,324.25,509.54,322.37Z"/><path class="cls-28" d="M523.37,319.36c.24,1.43-1.46,2.9-3.79,3.29s-4.43-.46-4.67-1.89,1.47-2.9,3.8-3.29S523.14,317.93,523.37,319.36Z"/><path class="cls-28" d="M507.57,318.6a1.89,1.89,0,0,1-1.24.33,43.88,43.88,0,0,1,1.26-4.61C508.56,316,508.59,317.84,507.57,318.6Z"/><path class="cls-24" d="M525,327.74a3.77,3.77,0,0,1-1.75-1.27"/></g><g id="hand-2" data-name="hand"><path class="cls-11" d="M472.13,309.77l-8.61,3.3c-2.48-2.07-5.51-7.63-5.41-7.82s3.15-4.48,5.75-8.13l2.66-3.74.86-1.21s2.65,1.81,3,2.79a.34.34,0,0,1,.05.11,76.57,76.57,0,0,1,1.36,10.52C471.93,306.85,472,308.24,472.13,309.77Z"/><path class="cls-17" d="M485.92,358.91a8.59,8.59,0,0,1-10.19,1.8,10.87,10.87,0,0,1-4.45-5c-1.13-2.34-2.22-4.77-3.24-7.2-5.71-13.75-9.08-27.82-4.45-29l-1.19-6,10.72-4.1,2.4,7.47s2.11-1.76,3.2.74c.77,1.74,4.51,13.53,7.21,22.35,0,.14.09.27.13.41l0,.05c.12.42.24.82.37,1.23.95,3.12,1.72,5.72,2.09,7.12A10.2,10.2,0,0,1,485.92,358.91Z"/><path class="cls-20" d="M484.89,348.78a10.86,10.86,0,0,0,1.17-8.42"/><line class="cls-20" x1="466.21" y1="318.91" x2="472.92" y2="317.25"/><path class="cls-19" d="M485.92,358.91a8.59,8.59,0,0,1-10.19,1.8,10.87,10.87,0,0,1-4.45-5c-1.13-2.34-2.22-4.77-3.24-7.2a9.57,9.57,0,0,1,3.72.56c2.82,1,5.1,3.19,5.43,5.59C478,360.68,482.34,360.36,485.92,358.91Z"/><path class="cls-3" d="M496,255.09l-37.31,54.59-5.79,8.47-3.38,4.94L435.9,343l-4.4,6.45a2.47,2.47,0,0,1-4.07-2.79l4.63-6.78,13.79-20.17,3.6-5.27,5.95-8.71,36.47-53.38Z"/><path class="cls-3" d="M458.64,309.68l-5.79,8.47-3.38,4.94a10.5,10.5,0,0,1-3.62-3.43l3.6-5.27,5.95-8.71A8.43,8.43,0,0,0,458.64,309.68Z"/><polygon class="cls-3" points="488.86 253.9 495.62 257.58 501.52 251.44 490.41 250.34 488.86 253.9"/><polygon class="cls-3" points="493.18 249.93 485.21 249.93 484.36 245.98 493.18 245.98 493.18 249.93"/><rect class="cls-3" x="502.94" y="244.94" width="11.52" height="6.02"/><path class="cls-8" d="M511.36,248a5.47,5.47,0,1,0,5.47-5.46A5.47,5.47,0,0,0,511.36,248Z"/><polygon class="cls-8" points="488.71 251.24 507.86 252.47 509.2 243.44 488.64 245.09 488.71 251.24"/><path class="cls-5" d="M452.85,318.15l-17,24.8a6.85,6.85,0,0,1-3.84-3.12l17.39-25.44A6.08,6.08,0,0,0,452.85,318.15Z"/><path class="cls-29" d="M455.59,295.55c1.58-1.69,7.22,4.12,6.05,5.79C460.12,303.53,453,298.39,455.59,295.55Z"/><path class="cls-29" d="M457.37,292.33c1.9-1.32,7.21,4.11,6.05,5.78C461.89,300.31,454.74,294.15,457.37,292.33Z"/><path class="cls-29" d="M458.9,289.81c2-1.1,6.66,3.84,6.05,5.78S455.53,291.63,458.9,289.81Z"/><path class="cls-29" d="M461.44,288c1.45-1.23,7,3.27,6.35,5.22S458.53,290.5,461.44,288Z"/><path class="cls-11" d="M471.83,305.59c-1.56,1.81-3.74,3.47-5.33,1.2-2.74-3.92,0-8.89,0-8.89a17.31,17.31,0,0,1-2.64-.78l-.76-.28c-2.71-1-3.92-3.57-2.39-4,.82-.25,3.48,0,5.81.57,1.88.43,3.54,1,3.9,1.58a.34.34,0,0,1,.05.11A76.57,76.57,0,0,1,471.83,305.59Z"/><path class="cls-24" d="M465.29,303.07a11.1,11.1,0,0,1,1.21-5.17,17.31,17.31,0,0,1-2.64-.78l-.76-.28c-2.71-1-3.92-3.57-2.39-4,.82-.25,3.48,0,5.81.57,1.88.43,3.54,1,3.9,1.58a.34.34,0,0,1,.05.11,30.82,30.82,0,0,1,.57,3.25"/></g></g><g id="Girl"><g id="upper_hand-3" data-name="upper hand"><path class="cls-30" d="M456.8,285.33a280.69,280.69,0,0,1-28.31-16.26c-2.14-1.34-4-2.52-5.66-3.48a45,45,0,0,1-15.22-10.31C395.25,242,401.37,226.41,419.53,230h0l.18,0c.39.19.78.39,1.18.61,1.88,1,4,2.4,6.38,4,3.46,2.38,7.32,5.26,11.25,8.36,12.22,9.62,25.2,21.2,29.3,25.28C476.77,277.15,472.91,293.12,456.8,285.33Z"/><path class="cls-13" d="M428.49,269.07c-2.14-1.34-4-2.52-5.66-3.48a56.15,56.15,0,0,1-5.91-3"/><path class="cls-10" d="M427.28,234.63c-.7.13-1.41.27-2.11.47a18.94,18.94,0,0,0-13.61,12.53,32.54,32.54,0,0,1-3.95,7.65C395.25,242,401.37,226.41,419.53,230h0l.18,0c.39.19.78.39,1.18.61C422.78,231.68,424.94,233,427.28,234.63Z"/><path class="cls-11" d="M456.8,285.33a280.69,280.69,0,0,1-28.31-16.26c.42-11.93,2.42-22,10-26.08,12.22,9.62,25.2,21.2,29.3,25.28C476.77,277.15,472.91,293.12,456.8,285.33Z"/><path class="cls-15" d="M425.09,269.27c2.23,2,6.75,4.4,7.94,3.9,0,0-3.15-6,1.24-16.46s8.15-12.48,8.15-12.48-2.33-3.57-5.58-4.3C436.84,239.93,423.64,246.46,425.09,269.27Z"/></g><g id="hand-3" data-name="hand"><path class="cls-11" d="M460.19,286.69c6.73,6,16.28,3.39,28.46-19.6s13.81-27.16,13.81-27.16,10,.66,10.89-.66-2.44-1.69-4.65-2.59-2.79-1.74-1.63-2.26,9.34-.59,11.13-.53,3-1.48,2.74-2.38c0,0,2.87.38,3.43-2,.37-1.6-3.27-.91-3.27-.91s.85-1.11-.1-1.53-15.33-.22-19.28.15-5.63,1.38-10.06,6.18-25.53,29-28.65,33.29S453,280.23,460.19,286.69Z"/><path class="cls-24" d="M470.49,257.58c-3.59,4.22-6.47,7.68-7.48,9.07"/><path class="cls-24" d="M506.23,240.08c2.95.06,6.62,0,7.12-.81.84-1.32-2.44-1.69-4.65-2.59s-2.79-1.74-1.63-2.26,9.34-.59,11.13-.53,3-1.48,2.74-2.38c0,0,2.87.38,3.43-2,.37-1.6-3.27-.91-3.27-.91s.85-1.11-.1-1.53a42.35,42.35,0,0,0-6.54-.24"/><line class="cls-24" x1="502.46" y1="239.93" x2="503.12" y2="237.89"/><line class="cls-24" x1="520.94" y1="231.51" x2="509.72" y2="231.76"/><line class="cls-24" x1="521.1" y1="228.56" x2="509.47" y2="229.44"/></g><g id="body-2" data-name="body"><path class="cls-30" d="M434,512.27s22.57,14.2,21.6,16.37-35,0-37.41,0c-4,0-1.87-19.26-1.87-19.26Z"/><path class="cls-30" d="M359.54,512s-20.61,13-19.72,15,32,0,34.16,0c3.63,0,1.71-17.59,1.71-17.59Z"/><path class="cls-17" d="M434,512.28h-19.1l-33.4-163.51s-6.93,49.1-7.08,59.41c-.15,9.43,1.13,88.65,1.35,102.15,0,1.26,0,1.95,0,1.95H359.19v0c-.18-1.61-8.17-72-9.54-91.47-1.17-16.71-2.79-33.86-3.44-46.77-.12-2.31-.21-4.47-.25-6.47-.31-13.24,1.69-40.61,8-59.49l45.27-1.11,10.47-.25c-1.23,7.57,0,16.35,1.08,23S434,512.28,434,512.28Z"/><path class="cls-19" d="M370.45,321.7c-12.19-5.32-16,6.65-12.54,19.95,3,11.84-1.85,19.8-11.71,32.36-.12-2.31-.21-4.47-.25-6.47-.31-13.24,1.69-40.61,8-59.49l45.27-1.11a18.12,18.12,0,0,1,.8,2C402.53,316.58,382.64,327,370.45,321.7Z"/><path class="cls-20" d="M402.4,314a23.26,23.26,0,0,0,4.35,6.66"/><path class="cls-20" d="M350.35,321.7c2.45-.56,6.32-6.47,6.37-7.16"/><path class="cls-20" d="M379.24,314.39a123,123,0,0,0-.4,13.81"/><path class="cls-20" d="M379.24,331.23c3.15-1.43,4.63-1.23,4.79-2.56s.76-14.28.76-14.28"/><path class="cls-20" d="M372.44,343c7.71-.87,12.35,2.59,12.35,2.59"/><g id="body-3" data-name="body"><path class="cls-11" d="M393.75,233.29c2.77,11.82-7.35,18.1-10.75,18.1s-16.52-8.94-13.32-16.07c2.7-6,9.16-14.81,9.48-21.83s6.93-15.36,13.63-8.54a8.83,8.83,0,0,1,2.56,5.35c.64,5.44-2.69,12.09-2.1,19.69A21.43,21.43,0,0,0,393.75,233.29Z"/><path class="cls-12" d="M393.25,230c-9.48-.5-10.18-8.93-6.8-16.24,1.95-4.21,5.44-4.8,8.9-3.45C396,215.74,392.66,222.39,393.25,230Z"/><path class="cls-30" d="M422.83,265.59a121.61,121.61,0,0,0-7.07,19.52c-3.44,12.23-4.72,22.73-5.26,24.29s-1,1.87-8,1.77-50.93,0-50.93,0,2.27-29.31,2.26-41.9a33.9,33.9,0,0,0-.22-4.75c-.81-4.87-4.34-16.89-4-23.72.12-2.33.69-4.05,2-4.69,5.48-2.71,12.59-3.79,17.62-4,.58,0,1.14,0,1.66,0a2.11,2.11,0,0,1,.28.41c.37.62.71,1.52,1.3,2.36,1.31,1.86,5.44,4.34,8.19,4.2s2.33,6.33,4,6.82,1.76-2,2.25-5.52,6.83-7.38,6.83-7.38,0-.12-.06-.31-.05-.25-.07-.4c1-.57,2-1.11,3.05-1.61,6.17-3,12.87-4.73,20.81-1.63h0l.74.31c.48.21.93.44,1.36.67h0a15,15,0,0,1,5.63,5.11C431.29,244.57,425.37,259.64,422.83,265.59Z"/><path class="cls-10" d="M425.17,235.1a18.94,18.94,0,0,0-13.61,12.53,32.54,32.54,0,0,1-3.95,7.65c-8.88,12.76-25.5,17.07-34.22,4.62A68.43,68.43,0,0,0,366,251c-4.82-4.85-10.3-8.55-16.46-10.19.12-2.33.69-4.05,2-4.69,5.48-2.71,12.59-3.79,17.62-4,.58,0,1.14,0,1.66,0a2.11,2.11,0,0,1,.28.41c.37.62.71,1.52,1.3,2.36,1.31,1.86,5.44,4.34,8.19,4.2s2.33,6.33,4,6.82,1.76-2,2.25-5.52,6.83-7.38,6.83-7.38,0-.12-.06-.31-.05-.25-.07-.4c1-.57,2-1.11,3.05-1.61,6.17-3,12.87-4.73,20.81-1.63h0l.74.31c.48.21.93.44,1.36.67h0A15,15,0,0,1,425.17,235.1Z"/><path class="cls-21" d="M373.39,240.81s8.4,23.17,13.08,28.94c0,0,5.81-22.09,6.27-32.46"/><path class="cls-7" d="M396.13,244.19c-3.32-.67-3.38-5.1-6.37-4.19s-.65,7.63-5.16,7.63-2.58-6-4.91-6.19-4.75,3.23-8.4,5-6.33-11.41-2.14-14.36l0,0c.8-.54,1.26-.45,1.63,0s.84,1.71,1.58,2.77c1.31,1.86,5.44,4.34,8.19,4.2s2.33,6.33,4,6.82,1.76-2,2.25-5.52,6.83-7.38,6.83-7.38-.06-.3-.13-.71c-.11-.65-.26-1.6-.3-2.25a4.71,4.71,0,0,1,3.35.64,2.82,2.82,0,0,1,1,1.86C398.2,235.72,399.45,244.85,396.13,244.19Z"/><rect class="cls-22" x="381.31" y="269.27" width="11.44" height="17.76"/></g></g><g id="upper_hand-4" data-name="upper hand"><path class="cls-11" d="M353.79,269.27a179.06,179.06,0,0,1-9.2,18.12c-4.34,7.4-9.72,15-15,18.51-3.74,2.47-7.45,2.9-10.75-.22a6,6,0,0,1-1.2-1.58c-3.59-6.74,3.35-21.52,10.26-33.67,4.94-8.68,9.84-16,10.89-18.13Z"/><path class="cls-30" d="M366.13,249.34A9.4,9.4,0,0,1,366,251c-1.23,8.17-12.23,18.28-12.23,18.28l-15-17a53.3,53.3,0,0,1,7.5-12.18,13.76,13.76,0,0,1,5.28-4C359,233.45,365.91,241,366.13,249.34Z"/><path class="cls-10" d="M366.13,249.34A9.4,9.4,0,0,1,366,251c-4.82-4.85-10.3-8.55-16.46-10.19a24.59,24.59,0,0,0-3.31-.68,13.76,13.76,0,0,1,5.28-4C359,233.45,365.91,241,366.13,249.34Z"/><path class="cls-15" d="M339.84,247.63s19.35,21.29,19.28,21.64-4.71,4.86-4.71,4.86-17.59-19.21-17.59-20.19S338.86,248.29,339.84,247.63Z"/></g><g id="hand-4" data-name="hand"><polygon class="cls-3" points="388.16 313.07 345.88 313.07 336.29 257.06 378.56 257.06 388.16 313.07"/><polygon class="cls-4" points="364.86 259.9 350.97 259.9 351.73 254.49 362.24 254.49 364.86 259.9"/><ellipse class="cls-4" cx="356.95" cy="254.26" rx="3.22" ry="3.82" transform="translate(-71.75 345.27) rotate(-47.45)"/><ellipse class="cls-3" cx="356.95" cy="254.26" rx="1.8" ry="2.13" transform="translate(-71.75 345.27) rotate(-47.45)"/><path class="cls-11" d="M387.52,292.7c-.34,1.09.23,1.22.45,2.06a3.28,3.28,0,0,1-1.55,3.8c-1.09.74-10.67.62-13,1.18-1.55.37-11.55,3.27-20.23,6-4.45,1.39-8.54,2.74-11,3.67-7.24,2.76-21.94,3.58-24.56-5.3-1.42-4.86,3.58-9.65,10.17-12.85a36.92,36.92,0,0,1,15.3-3.84c.44,0,1,0,1.52,0,7.52-.17,24.87-1.62,26.17-1.69s5.19-2.52,8.26-3.53a3.12,3.12,0,0,1,4.05,1.94s4.6-2.4,5.63-.77c1.23,1.93-1.39,3.41-.76,4.74C388.92,290.16,387.87,291.6,387.52,292.7Z"/><path class="cls-24" d="M379,282.17a3.12,3.12,0,0,1,4.05,1.94s4.6-2.4,5.63-.77c1.23,1.93-1.39,3.41-.76,4.74,1,2.08-.07,3.52-.42,4.62s.23,1.22.45,2.06a3.28,3.28,0,0,1-1.55,3.8"/><path class="cls-24" d="M327.77,291.25a36.92,36.92,0,0,1,15.3-3.84"/><line class="cls-24" x1="383.07" y1="284.11" x2="378.49" y2="285.7"/></g><g id="head-2" data-name="head"><circle class="cls-31" cx="400.68" cy="216.87" r="6.37"/><path class="cls-11" d="M395.43,223.5c-5.7,1.24-11.19-4.93-13.74-8.81-7.32-11.16-.71-23.57,5.61-24.1s10.28,4.13,13.3,13.76c.18.58.34,1.15.48,1.72a26.61,26.61,0,0,1,.78,5C402.21,217.61,399.74,222.56,395.43,223.5Z"/><path class="cls-32" d="M382.87,191.9l-9.59,4.5c-1.7,2-4.81,2.68-5.26,0,0,0-3.26,2.38-5.29-.61-1.67-2.44.92-4.34.92-4.34a2.21,2.21,0,0,1-1-.21c-1.62-.83-1.08-3.7,1.18-3.13a4.41,4.41,0,0,1-3.16-5.23,4.11,4.11,0,0,1,4.82-3.48c-1.39-1.94,0-4.62,2.07-3.39-.47-4,6.52-5.88,8.22-1.46,1.39-1.87,4.44-1.5,4.4,2.07.85-2.79,4.93-2.28,4.39,1.69,0,0,1.59-2.44,4,1.52S382.87,191.9,382.87,191.9Z"/><path class="cls-33" d="M382.87,191.9l-9.59,4.5c-1.7,2-4.81,2.68-5.26,0,0,0-3.26,2.38-5.29-.61-1.67-2.44.92-4.34.92-4.34,1.53,1.16,1.61,3.58,4.17,2.33s-1.6-6.22.76-7,2,3.37,3.86,3.1-6.7-7.25-1.8-9.59,7.65,2.62,9.94,3.17,2.41-5.64-.45-6.86c.85-2.79,4.93-2.28,4.39,1.69,0,0,1.59-2.44,4,1.52S382.87,191.9,382.87,191.9Z"/><path class="cls-26" d="M396.72,202.56a.93.93,0,1,0,1.86,0,.93.93,0,0,0-1.86,0Z"/><circle class="cls-26" cx="392.74" cy="203.99" r="0.93"/><path class="cls-32" d="M394.18,196.67c0,1.14,4.29,1.43,4.57.77S394.18,193.9,394.18,196.67Z"/><path class="cls-32" d="M386.47,199.86c0,.85,5.33-.47,5-2.48S386.39,198.37,386.47,199.86Z"/><path class="cls-24" d="M394.73,200.3c-.11,3,1.47,3.71,3.15,4.41a2.05,2.05,0,0,1,.7,2.69"/><path class="cls-27" d="M392.52,211.58c1.78.11,6.06-1.08,6.06-1.08s0,2.24-1.86,2.72S392.8,212.56,392.52,211.58Z"/><path class="cls-11" d="M382.69,213.71c-2.16,2.24-6.56,2.95-7.93-1.21-1.68-5.1,4.88-7.93,7.55-3.19Z"/><path class="cls-24" d="M381.29,214.78a5.67,5.67,0,0,1-2.37.72"/><path class="cls-24" d="M376.42,211.54c.43-2.47,3.35-2.78,4.16-.58"/><path class="cls-24" d="M380.18,210.24c-2.62-.74-3.09,3.26.21,2.21"/><path class="cls-32" d="M395.13,194.18a2.06,2.06,0,0,1-2.38-1.83c-.26,2.89-3.52,2.94-4.49.37-.11,2.82-2.78,3.12-3.85,1,1.32,2.94-1.55,4.08-3.3,3.5,1.85,1.08,1.58,2.92-.31,3.1a3,3,0,0,1,2.27,2.11c.39,1.75-1.47,3.23-1.47,3.23s.53-.12,1.55,1.25-1.09,2.64-1.83,2.15-.54-2-2.09-2.08a5.58,5.58,0,0,0-1.74.12,3.78,3.78,0,0,0-2.82,2.57,14.64,14.64,0,0,1,3.4-20.34,10.18,10.18,0,0,1,6.61-1.65,16.8,16.8,0,0,1,5.08,1.18c.54.21.84.36.84.36s-.17-3,2.83-2.72c3.34.31,1.7,3.44,1.7,3.44C397.27,190.23,397.21,193.87,395.13,194.18Z"/><path class="cls-28" d="M384.4,207c-.63,1.28.35,3.05,2.2,4s3.86.63,4.49-.64-.35-3.06-2.2-4S385,205.74,384.4,207Z"/><path class="cls-28" d="M401.86,211.07a2.24,2.24,0,0,1-2-.74c-.87-1.09-.32-3,1.23-4.26A26.61,26.61,0,0,1,401.86,211.07Z"/><path class="cls-17" d="M377.49,207.08a3.78,3.78,0,0,0-2.82,2.57c-2.3-15.67,5.49-20.51,10-22a16.8,16.8,0,0,1,5.08,1.18C378.87,189.31,377.07,199.45,377.49,207.08Z"/><path class="cls-17" d="M385.18,188.38c-.45-3.26-.11-9,3.79-12,0,0,3.77,9.14-2.63,12Z"/><path class="cls-17" d="M372,182.87c4.64-.34,10.27,3.64,11.77,6.15C383.76,189,376.89,193.23,372,182.87Z"/><path class="cls-20" d="M385.83,187.78a12.25,12.25,0,0,0,1.94-4.91"/><path class="cls-20" d="M377.68,186.46c1.05.31,6.08,2.56,6.08,2.56"/><path class="cls-17" d="M383.4,187.64c1.88-1.24,3.64-.24,3.71,1s-3.05,2.14-3.78,1.47A1.5,1.5,0,0,1,383.4,187.64Z"/><path class="cls-20" d="M383.4,187.64c1.88-1.24,3.64-.24,3.71,1s-3.05,2.14-3.78,1.47A1.5,1.5,0,0,1,383.4,187.64Z"/><path class="cls-31" d="M375.26,214.06a7.27,7.27,0,1,0,4.26-.06"/></g></g><g id="Man_L" data-name="Man L"><g id="body-4" data-name="body"><path class="cls-17" d="M290.74,523.61s1.26,20.21,1.64,23.1c.26,1.89-1.76,3.15-3.15,3.41s-39.12,0-42.4,0,.5-6.19,6-7.7,17.17-9.85,18.56-16.91S287.29,520.33,290.74,523.61Z"/><path class="cls-17" d="M386.06,515.18s8.57,15.86,10,18.05c.92,1.43-.24,3.21-1.27,3.93S363.13,551.79,360.48,553s-1.91-5.19,2-8.49,10.19-14.37,8.67-20.6S382.05,513.81,386.06,515.18Z"/><path class="cls-26" d="M257,332.31l65.38-21s23.08,101.11,25.1,104.24,42.85,102.41,42.5,103.1-21.89,10-21.89,10-40.5-67.38-48.52-79.86c-6.5-10.11-24.4-68.16-24.4-68.16l-1,148-26.55,1S256.56,331,257,332.31Z"/><path class="cls-34" d="M287.61,367.19c2.78,0,3.8,1.61,4.53,3.51s3,9.92,3,9.92"/><path class="cls-34" d="M277,328.76c0,.32,6.75,26.81,7.93,27.13a20.44,20.44,0,0,0,4.51,0"/><path class="cls-34" d="M283.63,326.21c1.22,6.77,5.21,24.31,5.21,24.31"/><g id="body-5" data-name="body"><path class="cls-15" d="M237.06,303c-.39,1.76-6.85,1.43-7.51,1.18l2.73-6.95S237.45,298.81,237.06,303Z"/><path class="cls-35" d="M236.3,295.2c-5.7,17.51-5.89,33.49-26.24,26.48s1.38-48.63,1.38-48.63Z"/><path class="cls-10" d="M324.35,307.87c.19,7.87-11.61,13-22.4,16.66-3,1-5.87,1.91-8.42,2.71-11.78,3.74-33,8.75-36.56,7.43-2.79-1.05-11.79-25.27-15.5-35.55-1-2.79-1.63-4.55-1.63-4.55l-2.78,8.4c-2.2-2.16-6.57-4.64-11.48-7-10.16-4.89-22.59-9.28-22.59-9.28s3.59-18.68,7.07-31c.73-2.6,1.46-4.92,2.15-6.72,4-10.38,8.74-13.88,13.18-13.88s6.19-1.05,14.45-4.9c0,0,5.17-4.61,15.16-5.48s24.42-5.26,36-7.36a14.78,14.78,0,0,1,1.69-.22c7.29-.55,10.66,4.74,13,10.68.46,1.17.87,2.36,1.27,3.55l1.11,3.38c.74,2.16,2.19,7.51,3.94,14.41C316.87,268.61,324.17,300.46,324.35,307.87Z"/><path class="cls-36" d="M305.62,227.78c-8.65-2.07-18.92-.68-25.23,5.28a17.79,17.79,0,0,0-4.12,5.75c-8.53,18.85-21.24,27-33.64,17.26-9.88-7.78-21.22-9.81-32.57-.41.73-2.6,1.46-4.92,2.15-6.72,4-10.38,8.74-13.88,13.18-13.88s6.19-1.05,14.45-4.9c0,0,5.17-4.61,15.16-5.48s24.42-5.26,36-7.36a14.78,14.78,0,0,1,1.69-.22C300,216.55,303.32,221.84,305.62,227.78Z"/><path class="cls-21" d="M233,233.3s10.32,39.06,23.15,47.47c.8-.4,8-23.71,5.94-57.11"/><rect class="cls-22" x="251.26" y="277.8" width="11.44" height="17.76" transform="translate(-43.44 45.91) rotate(-9.42)"/><path class="cls-30" d="M239.84,294.57l-2.78,8.4c-2.2-2.16-6.57-4.64-11.48-7,6,.18,10.86-4,6.66-7.88s-4.9-11.68-1.89-17.59Z"/><polyline class="cls-13" points="239.84 294.57 230.35 270.49 227.56 263.42"/><path class="cls-30" d="M324.35,307.87c.19,7.87-11.61,13-22.4,16.66-1.2-9.64,9.36-8.93,13.11-19.13,6.75-18.37-7.18-13.32-15-34.91l2.36-27,4.45-12.18,1.11,3.38c.74,2.16,2.19,7.51,3.94,14.41C316.87,268.61,324.17,300.46,324.35,307.87Z"/><path class="cls-35" d="M260.11,224.68a16.48,16.48,0,0,1-10.83,12.85c-9.78,3.53-14.22-.94-14.56-5.25,0-.3-.05-.61-.07-.92-.33-4.8-.32-10.2-1.17-19.69a17.94,17.94,0,0,1,.32-4.87c1.84-9.91,10.46-21.11,16.63-5.23C259.05,223.82,260.11,224.68,260.11,224.68Z"/><path class="cls-37" d="M234.65,231.36c-.33-4.8-.32-10.2-1.17-19.69a17.94,17.94,0,0,1,.32-4.87c5.36.29,12.23,2.47,12.78,7.51C247.4,221.85,245.89,230.45,234.65,231.36Z"/><path class="cls-30" d="M302.42,302.62c-.15,2.93-8.64,2.78-8.64,2.78l2.65-14.67A12.6,12.6,0,0,1,302.42,302.62Z"/><path class="cls-35" d="M269,285.06c-4.17,19.07-10.87,31.26-2.59,41.15s21.6,3.36,26-8.09,7.65-28.59,7.65-28.59Z"/><path class="cls-10" d="M311.94,249.12c-1.84,19.5-9.53,53.5-9.53,53.5s-5.7-8-36-11.09c0,0,5.1-36.57,14-58.47,3.5-8.68,7.59-15.05,12.19-15.94l.08,0c11.47-2.2,16.15,3.44,18.21,12.46a67.78,67.78,0,0,1,1.39,10.37A61.68,61.68,0,0,1,311.94,249.12Z"/><path class="cls-36" d="M310.87,229.56a29.2,29.2,0,0,0-5.25-1.78c-8.65-2.07-18.92-.68-25.23,5.28,3.5-8.68,7.59-15.05,12.19-15.94l.08,0C304.13,214.9,308.81,220.54,310.87,229.56Z"/><path class="cls-13" d="M311.36,254.26c-2.49,19.78-8.95,48.36-8.95,48.36"/><path class="cls-13" d="M266.44,291.53s11-44,14.32-45.55"/></g></g><g id="head-3" data-name="head"><path class="cls-35" d="M253.09,201.31a57,57,0,0,1-1.48,8c-3.88,15.33-19.17,19.48-25.13,11.11-1.84-2.59-2.35-7.58-1.72-13.05a42.5,42.5,0,0,1,1-5.45,36.2,36.2,0,0,1,5.08-12c2.14-3.07,4.78-5.24,7.83-5.77,6.66-1.16,11.57.84,13.62,6.48a19.45,19.45,0,0,1,1,5.93A35.34,35.34,0,0,1,253.09,201.31Z"/><path class="cls-15" d="M253.3,196.61s11.24,2.4,15.81,6.47,2.47,7.08-2.74,6.74-16.92-3.37-16.92-3.37Z"/><path class="cls-38" d="M253.09,201.31a33.48,33.48,0,0,1-4.73,2.22c-1.72.54-3.1.19-3-1.09s.7-6.49-3.34-9.13,6.84-3.52,6.84-3.52l3.37.89a19.45,19.45,0,0,1,1,5.93A35.34,35.34,0,0,1,253.09,201.31Z"/><circle class="cls-26" cx="236.48" cy="199.53" r="0.93"/><path class="cls-26" d="M229.21,199.11a.93.93,0,1,0,1.86,0,.93.93,0,1,0-1.86,0Z"/><path class="cls-30" d="M253.3,196.61c-6-1.74-16.88-5-22.48-6.64,2.14-3.07,4.78-5.24,7.83-5.77C247.27,182.7,253,186.51,253.3,196.61Z"/><path class="cls-35" d="M248.36,203.53c.49-3.25,5.6-5.95,8.36-3.41,3.47,3.2.85,9.49-5.63,10.14C250.8,210.26,248.36,203.53,248.36,203.53Z"/><path class="cls-39" d="M253.6,209.67a7.55,7.55,0,0,1-4.72.53"/><path class="cls-39" d="M249.28,206c.43-2.09,3.49-4.56,5.72-3.56"/><path class="cls-39" d="M250.06,204.41c2.58-2.45,5.74,2.05,2,3"/><path class="cls-39" d="M229.46,206.76c-.51-2.77,0-4.26,1.61-5.13s3.27-2.16,2.91-4.62"/><path class="cls-38" d="M235.33,194.5c-.26,1.58,4.89,2.79,5.12,1.61S235.75,191.86,235.33,194.5Z"/><path class="cls-38" d="M228.27,195.4c0,.63,4.91.87,4.77-1.25S228.12,193.84,228.27,195.4Z"/><path class="cls-39" d="M231.65,209.43c2.53.52,5.45-.36,6.13-3.87"/><path class="cls-40" d="M247.44,202.74c.58,1.38-.73,3.23-2.91,4.15s-4.42.54-5-.84.73-3.24,2.91-4.15S246.86,201.36,247.44,202.74Z"/><path class="cls-40" d="M227.55,206.77a2.63,2.63,0,0,1-2.79.61,42.5,42.5,0,0,1,1-5.45.31.31,0,0,1,.09.07C227.7,203.45,228.47,205.58,227.55,206.77Z"/></g><g id="hand-5" data-name="hand"><path class="cls-35" d="M228.84,313.07c.94,20.86-40,2-49.4-3.57s-36.7-25.11-36.7-25.11l10.87-16.66C151.57,269.37,228,293.92,228.84,313.07Z"/><path class="cls-39" d="M153.61,267.73c-1.53,1.23,41.07,15.35,62.83,30.41"/><rect class="cls-9" x="125.55" y="170.98" width="87.3" height="124.55" rx="9.86" transform="matrix(0.99, -0.16, 0.16, 0.99, -35.88, 30.83)"/><path class="cls-41" d="M138.09,270.92c.3,3.38-9.26,1.28-9.19-1.74S137.75,267,138.09,270.92Z"/><path class="cls-41" d="M136.51,266.19c-.35,3.88-11-.38-10.34-3.78S136.91,261.71,136.51,266.19Z"/><path class="cls-41" d="M136.51,260.5c-.4,3.87-12.58-.39-11.79-3.79S137,256,136.51,260.5Z"/><path class="cls-41" d="M135.6,256.32c-.68,4-11.88-1.33-10.85-4.8S136.4,251.69,135.6,256.32Z"/><rect class="cls-2" x="140.79" y="197.86" width="46.76" height="10.09" transform="translate(-30.98 29.59) rotate(-9.42)"/><circle class="cls-6" cx="172.13" cy="250.89" r="25.03" transform="matrix(0.7, -0.72, 0.72, 0.7, -127.87, 200.13)"/></g><g id="hand-6" data-name="hand"><polygon class="cls-2" points="199.43 465.29 231.91 450.5 230.25 446.86 228.61 447.61 228.33 445.37 178.85 451.61 179.35 455.58 223.27 450.04 198.54 461.3 179.36 456.27 177.79 459.99 198.44 465.41 198.57 465.68 198.91 465.53 199.33 465.64 199.43 465.29"/><polygon class="cls-3" points="248.17 464.65 241.95 465.68 202.34 418.32 208.56 417.29 248.17 464.65"/><polygon class="cls-3" points="169.16 477.75 175.38 476.73 197.58 419.11 191.37 420.14 169.16 477.75"/><polygon class="cls-3" points="194.28 473.59 200.5 472.56 203.39 418.14 197.18 419.17 194.28 473.59"/><polygon class="cls-3" points="201.59 407.33 194.74 408.47 184.75 348.26 181.07 326.06 175.97 295.25 182.82 294.13 187.56 322.66 188.05 325.63 191.55 346.74 201.59 407.33"/><path class="cls-35" d="M288.47,324.75c-3.91,11.5-32.31,11.38-43.73,12.71-11,1.27-39.28,4-39.28,4s-12.67,5.69-19.66,6.7-7-1.27-7.13-3.54-1.48-3-.88-4.79-2-3.56-1.52-5.95-3.16.12-3.28-4.05,11.29-3.79,15.06-4.17l-.49-3s3.88-1.23,5.64-1,6.83,2.43,9,1.67,44.52-17,52.81-19.85C266.44,299.61,297.05,299.5,288.47,324.75Z"/><path class="cls-39" d="M255,303.52a44.68,44.68,0,0,1,20.19-1.33"/><path class="cls-39" d="M185.8,348.13c-7,1-7-1.27-7.13-3.54s-1.48-3-.88-4.79-2-3.56-1.52-5.95-3.16.12-3.28-4.05,11.29-3.79,15.06-4.17l-.49-3s3.88-1.23,5.64-1"/><path class="cls-39" d="M188.05,325.63c2.07.07,5.89,0,5.89,0"/><path class="cls-39" d="M207.59,321.32l26.11-9.91"/><rect class="cls-2" x="187.81" y="407.8" width="22.93" height="13.61" rx="4.18" transform="translate(-65.15 38.19) rotate(-9.42)"/></g></g></svg>