<svg xmlns="http://www.w3.org/2000/svg" viewBox="0 0 800 600"><defs><style>.cls-1,.cls-11{fill:#ededed;}.cls-1,.cls-11,.cls-3,.cls-5,.cls-6,.cls-7,.cls-8,.cls-9{stroke:#ddd;}.cls-1,.cls-10,.cls-11,.cls-16,.cls-2,.cls-22,.cls-25,.cls-26,.cls-3,.cls-33,.cls-34,.cls-37,.cls-4,.cls-41,.cls-5,.cls-7,.cls-8,.cls-9{stroke-linecap:round;stroke-linejoin:round;}.cls-2,.cls-3,.cls-7{fill:#f9f9f9;}.cls-10,.cls-2,.cls-4{stroke:#ededed;}.cls-10,.cls-16,.cls-20,.cls-22,.cls-25,.cls-33,.cls-34,.cls-37,.cls-4,.cls-41,.cls-5,.cls-8,.cls-9{fill:none;}.cls-16,.cls-22,.cls-25,.cls-26,.cls-33,.cls-34,.cls-37,.cls-41,.cls-5,.cls-7{stroke-width:0.75px;}.cls-6{fill:#ddd;}.cls-20,.cls-6{stroke-miterlimit:10;}.cls-10,.cls-11,.cls-9{stroke-width:2px;}.cls-12{fill:#febd9d;}.cls-13{fill:#fed81d;}.cls-14{fill:#ffe05c;}.cls-15{fill:#fcc71f;}.cls-16{stroke:#f7ad2b;}.cls-17,.cls-26{fill:#fff;}.cls-18{fill:#f4a789;}.cls-19{fill:#f4af90;}.cls-20{stroke:#683f1d;}.cls-21{fill:#683f1d;}.cls-22,.cls-26{stroke:#ef8a66;}.cls-23{fill:#7f542d;}.cls-24{fill:#704725;}.cls-25{stroke:#a56f42;}.cls-27{fill:#c3dcf8;}.cls-28{fill:#83addf;}.cls-29{fill:#d0e5f7;}.cls-30{fill:#a7caf0;}.cls-31{fill:#b25e47;}.cls-32{fill:#914839;}.cls-33{stroke:#83addf;}.cls-34{stroke:#934735;}.cls-35{fill:#ffeacc;}.cls-36{fill:#edd6b7;}.cls-37{stroke:#c6ab8b;}.cls-38{fill:#a0503d;}.cls-39{fill:#d39933;}.cls-40{fill:#c4892a;}.cls-41{stroke:#edb65f;}.cls-42{fill:#93bee5;}</style></defs><g id="background"><path class="cls-1" d="M293.93,512v3.16l59.43,8,74.25,14.47s4-3.26-3.51-8.92-49.08-12.93-70.2-8.91C353.9,519.74,332.43,504.49,293.93,512Z"/><path class="cls-2" d="M287.14,512.9s46.64-2.25,60.8,9.12c6,4.8,10.54,1.16,17.35,1s43.58-4.27,64,16.12l37.8-30.35s-22.63-24.72-62.73-9.93c0,0-12-14.53-55.4-7.2C348.58,492.2,287.14,512.9,287.14,512.9Z"/><line class="cls-2" x1="404.37" y1="498.89" x2="352.31" y2="519.74"/><path class="cls-3" d="M727.08,218.87V515.64c-51.23-14.91-120-24.65-195-30.41V218.87Z"/><polyline class="cls-4" points="727.08 299.98 712.83 299.98 712.83 350.56"/><path class="cls-4" d="M632.7,347.28V296.83l-12.72.75v51.9"/><polyline class="cls-4" points="606.17 352.93 606.17 301.28 619.98 300.77"/><polyline class="cls-1" points="595.46 352.93 594.73 306.52 606.17 306.52 606.17 352.93"/><polyline class="cls-5" points="545.49 352.93 532.05 307.71 542.46 305.29"/><path class="cls-1" d="M556.23,352.73c-.12.2-15.25-52.6-15.25-52.6l12.25-.88,16.27,53.68"/><polyline class="cls-5" points="557.46 313.19 573.05 311.42 590.82 352.93"/><path class="cls-6" d="M603.48,277.63c.14,0,13.45-50.3,13.45-50.3l9,1.26-12.59,49"/><polyline class="cls-7" points="627.91 276.41 627.54 223.79 643.35 223.79 642.64 274.53"/><polyline class="cls-7" points="643.3 227.33 661.57 227.33 660.29 275.05"/><polygon class="cls-4" points="702.06 222.68 715.12 223.79 700.72 277.63 689.98 273.93 702.06 222.68"/><polyline class="cls-1" points="714.17 277.12 727.08 229.89 714.17 227.33 700.72 277.63"/><polyline class="cls-4" points="589 264.04 596.43 264.04 596.43 277.63"/><line class="cls-4" x1="544.07" y1="264.98" x2="544.4" y2="277.63"/><rect class="cls-4" x="544.4" y="246.93" width="54.04" height="8.63"/><polyline class="cls-1" points="544.4 255.56 537.55 255.56 537.55 265.11 589 264.04 589 255.56"/><rect class="cls-8" x="532.05" y="277.63" width="195.03" height="13.22"/><rect class="cls-8" x="532.05" y="352.93" width="195.03" height="13.22"/><path class="cls-9" d="M741.42,201.46V520.1q-6.92-2.31-14.34-4.46c-51.23-14.91-120-24.65-195-30.41q-7.12-.56-14.34-1.05V201.46Z"/><path class="cls-9" d="M15.11,501.2c17.45-4.09,42.56-7.88,73.19-11.14,12-1.28,24.91-2.48,38.53-3.59q8-.64,16.3-1.26,5.87-.42,11.9-.82,17.08-1.15,35.28-2.11c55.71-2.91,118.4-4.33,182.06-3.65q5.94.06,11.9.16,12,.16,23.92.45,12.35.3,24.68.69c28.66.93,57.13,2.32,84.84,4.25q7.21.49,14.34,1.05l3.32.26c25.92,2,51,4.54,74.94,7.59,39.38,5,75.39,11.46,106,19.56q5.52,1.47,10.81,3,7.42,2.16,14.34,4.46c17,5.67,31.68,12,43.47,19.07"/><path class="cls-3" d="M372.37,144.28V478.63c-77.49-.82-153.57,1.47-217.34,5.76V144.28Z"/><polyline class="cls-4" points="302.95 458.19 319.48 407.8 329.03 408.74 314.51 458.1"/><polyline class="cls-4" points="327.56 458.1 344.34 396.72 332.66 396.72 329.03 408.74"/><polyline class="cls-1" points="339.06 458.1 351.36 406.45 341.84 405.86 327.56 458.1"/><path class="cls-4" d="M372.37,395.12c0,.24-18.78,0-18.78,0l.69,62.48"/><polyline class="cls-1" points="296.36 325.7 310.63 325.7 322.06 373.95 309.24 373.95"/><path class="cls-3" d="M333.49,320.69H322.06S323,374,324,374h11"/><path class="cls-3" d="M335,374c-.69-.84-1.53-62.26-1.53-62.26h13.75V374"/><path class="cls-1" d="M357,374,371,321.81l-10-3.44s-13.81,47.4-13.81,47.79V374"/><polyline class="cls-3" points="298.4 373.95 283.47 319.18 294.55 317.38 309.24 373.95"/><polyline class="cls-4" points="235.52 347.84 230.98 347.5 230.98 352.64"/><line class="cls-4" x1="282.02" y1="350.07" x2="281.61" y2="358.21"/><polyline class="cls-4" points="238.1 337.45 236.94 328.1 282.53 328.1 282.53 337.45"/><polygon class="cls-6" points="235.52 347.84 234.77 337.45 285.95 337.45 286.54 350.17 235.52 347.84"/><polyline class="cls-4" points="234.77 356.94 284.42 358.21 284.42 373.95"/><rect class="cls-5" x="187.64" y="257.92" width="60.49" height="9.69"/><path class="cls-5" d="M245.33,289.59c.5.92,0-13.48,0-13.48l-49.22-.67v14.35"/><line class="cls-5" x1="242.37" y1="267.61" x2="242.37" y2="276.07"/><polyline class="cls-1" points="253.69 289.87 255.78 223.31 271.35 224.21 270.01 289.8"/><polyline class="cls-5" points="271.27 228.06 284.25 228.06 283.07 289.8"/><line class="cls-5" x1="199.53" y1="268.27" x2="200.03" y2="275.49"/><polyline class="cls-4" points="155.03 234.41 169.05 234.41 171.52 289.87"/><polyline class="cls-4" points="183.19 289.59 181.56 238.85 169.22 238.19"/><polyline class="cls-4" points="284.25 289.8 298.06 232.74 312.56 236.06"/><polyline class="cls-4" points="297.79 289.8 314.54 228.06 328.88 233.68 314.15 289.8"/><polyline class="cls-4" points="349.13 289.87 348.27 223.31 328.96 222.58 328.96 289.87"/><polyline class="cls-1" points="365.67 289.87 364.66 228.72 348.27 228.72 349.68 289.87"/><rect class="cls-8" x="155.02" y="289.79" width="217.35" height="13.23"/><rect class="cls-8" x="155.02" y="373.95" width="217.35" height="13.22"/><rect class="cls-9" x="155.02" y="458.1" width="217.35" height="13.23"/><path class="cls-9" d="M384.27,127.42V478.79q-6-.1-11.9-.16c-77.49-.82-153.57,1.47-217.34,5.76q-6,.39-11.9.82V127.42Z"/><polygon class="cls-5" points="289.82 151.14 287.6 158.1 272.43 205.65 263.15 205.65 281.26 148.84 289.82 151.14"/><polyline class="cls-5" points="287.61 158.1 300.57 161.54 287.14 205.65"/><line class="cls-5" x1="300.88" y1="144.29" x2="299.78" y2="205.64"/><line class="cls-5" x1="305.66" y1="149.21" x2="318.79" y2="149.21"/><line class="cls-5" x1="322.68" y1="144.29" x2="322.68" y2="205.64"/><line class="cls-5" x1="322.68" y1="176.77" x2="331.48" y2="205.64"/><polyline class="cls-5" points="339.46 205.64 348.27 201.95 330.38 155.83 322.68 158.1"/><polyline class="cls-5" points="346.64 202.63 347.73 205.64 351.52 205.64 358.01 202.36 346.48 162.62 334.23 165.76"/><rect class="cls-8" x="155.02" y="205.64" width="217.35" height="13.22"/><polyline class="cls-4" points="178.81 205.65 168.71 205.65 155.03 161.56 165.92 158.1 178.91 199.82"/><polyline class="cls-4" points="192.73 205.65 178.81 205.65 178.91 199.82 179.78 150.15 191.72 150.15 192.01 165.54 192.77 205.65"/><path class="cls-4" d="M221.22,205.65H205.36l-.71-43.55-.21-12.82,13.95-.44s.13,2.59.33,6.73C219.32,168,220.61,194.25,221.22,205.65Z"/><polyline class="cls-1" points="192.73 205.65 192.01 165.54 191.9 159.1 204.65 162.1 204.66 162.1 205.36 205.65 192.77 205.65"/><polygon class="cls-1" points="221.22 205.65 235.07 205.65 233.85 158.1 233.79 155.57 218.72 155.57 221.22 205.65"/><polyline class="cls-4" points="233.85 158.1 249.08 158.1 249.55 205.65 235.07 205.65"/><path class="cls-2" d="M530.73,550.52,602.91,523l71.63,8s4.91,1.72,2.59,7.77L606.27,574Z"/><path class="cls-2" d="M607.12,564.65s46.81-21.81,67.42-33.61"/><path class="cls-1" d="M530.73,550.52s72.18,10.62,76.39,14.13c1.92,1.6,2.09,9.84-2.11,9.3s-74.28-11.09-74.28-11.09S541,558.18,530.73,550.52Z"/><circle class="cls-10" cx="619.1" cy="140.84" r="35.35" transform="translate(-15.66 126.61) rotate(-11.53)"/><path class="cls-6" d="M636.21,150.77l-12.94-9.3a4.48,4.48,0,0,0,.06-.63,4.22,4.22,0,0,0-2.25-3.72c-.23-4.83-.65-13.66-1.05-21.94-.08-1.71-1.72-1.7-1.79,0l-1,21.84a4.22,4.22,0,0,0,1.83,8,4.17,4.17,0,0,0,2.47-.81l13.66,8C636.71,153.16,637.61,151.77,636.21,150.77Z"/><path class="cls-3" d="M263.26,517.18,361,535.6s-6.7,10.91,2,14.12L292.45,569s-90.11-20.69-93.36-22.11-6.76-8.21,1.36-10.85S263.26,517.18,263.26,517.18Z"/><path class="cls-2" d="M292.45,569c-3.65-.43-6.07-8.31,1.26-11,7.06-2.6,67.25-22.36,67.25-22.36"/><line class="cls-3" x1="212.42" y1="541.32" x2="278.15" y2="556.99"/><path class="cls-2" d="M72.93,545.66c10.4-2.41,8.53-5.71,5.81-12.09s-11-12.64-23.91-9.92S41.92,538.73,52,542.26,67.66,546.88,72.93,545.66Z"/><path class="cls-3" d="M75.29,536.47a41.87,41.87,0,0,1,3,7.34"/><path class="cls-3" d="M70.68,532.87a27.35,27.35,0,0,0,3.11,3.92c1.32,1.31,2.73.79,2.47-.6a13.37,13.37,0,0,0-3-5.91A1.84,1.84,0,0,0,70.68,532.87Z"/><path class="cls-11" d="M525.18,26V148.09a4,4,0,0,0-1.66,3.23v3.33a4,4,0,0,0,1.66,3.23v4.74h4.69v-4.74a4,4,0,0,0,1.65-3.23v-3.33a4,4,0,0,0-1.65-3.23V26"/><path class="cls-11" d="M322.4,26V148.09a4,4,0,0,0-1.65,3.23v3.33a4,4,0,0,0,1.65,3.23v4.74h4.69v-4.74a4,4,0,0,0,1.66-3.23v-3.33a4,4,0,0,0-1.66-3.23V26"/><rect class="cls-11" x="312.56" y="152.56" width="227.15" height="14.16"/><rect class="cls-3" x="539.71" y="156.21" width="3.08" height="6.87"/><rect class="cls-3" x="319.05" y="166.72" width="214.16" height="6.7" rx="3.25"/><path class="cls-3" d="M514.24,538.37l71.07-28.22,70.53,7.27s4.78,5.56,1.53,11.88l-68.75,31.76Z"/><path class="cls-3" d="M589.46,551.72s57.34-26.21,66.38-34.3"/><path class="cls-2" d="M514.24,538.37s71.07,9.88,75.22,13.35c1.88,1.58,2.06,9.82-2.09,9.32s-73.13-10.33-73.13-10.33S524.31,545.93,514.24,538.37Z"/></g><g id="Man"><g id="upper_hand" data-name="upper hand"><path class="cls-12" d="M264.35,423c8.55,10.75,29.62,54,13.19,66.67-22.72,17.52-49-30.9-53.82-45Z"/><path class="cls-13" d="M266.73,421.21s-3.2,2.47-8.28,5.88c-9.22,6.19-24.63,15.45-38.29,18.49,0,0-1.41-2.82-3.56-7.07L211.8,429c-2.89-5.75-6.1-12.13-8.84-17.6l-3.19-6.4c-.59-1.18-1.12-2.25-1.57-3.18-8-16.21-16.95-54.4,9.33-56.94h0a40.88,40.88,0,0,1,6.76-.14h.11c.62.05,1.22.11,1.81.19l.5.07.88.16c.35.06.7.14,1,.22s.54.13.8.21l.37.09.76.25a6.55,6.55,0,0,1,.71.26,5.15,5.15,0,0,1,.71.27,8.33,8.33,0,0,1,.81.36,7.75,7.75,0,0,1,.71.34l0,0q.47.22.9.48c.26.14.51.29.75.44l.62.41a23.39,23.39,0,0,1,2.1,1.57c.29.24.57.47.84.73a33.84,33.84,0,0,1,2.59,2.62c.27.31.55.63.82,1s.42.51.63.77c.34.42.68.86,1,1.32.23.29.45.6.67.91.34.47.68,1,1,1.46s.53.77.79,1.19l.82,1.3c.28.44.55.89.83,1.36.64,1.05,1.27,2.16,1.91,3.31.2.38.42.77.63,1.16s.57,1.06.86,1.61.56,1,.83,1.58.63,1.21.95,1.84c.66,1.3,1.32,2.61,2,3.93,7.54,15.07,15.24,31.37,19.09,39.62C265.79,419.17,266.73,421.21,266.73,421.21Z"/><path class="cls-14" d="M245.1,376.14a28.19,28.19,0,0,0-19.41,8.72,30,30,0,0,0-2,2.32A60.33,60.33,0,0,1,199.77,405c-.59-1.18-1.12-2.25-1.57-3.18-8-16.21-16.95-54.4,9.33-56.94h0a40.88,40.88,0,0,1,6.76-.14h.11c.62.05,1.22.11,1.81.19l.5.07.88.16c.35.06.7.14,1,.22s.54.13.8.21l.37.09.76.25a6.55,6.55,0,0,1,.71.26,5.15,5.15,0,0,1,.71.27,8.33,8.33,0,0,1,.81.36,7.75,7.75,0,0,1,.71.34l0,0q.47.22.9.48c.26.14.51.29.75.44l.62.41a23.39,23.39,0,0,1,2.1,1.57c.29.24.57.47.84.73a33.84,33.84,0,0,1,2.59,2.62c.27.31.55.63.82,1s.42.51.63.77c.34.42.68.86,1,1.32.23.29.45.6.67.91.34.47.68,1,1,1.46s.53.77.79,1.19l.82,1.3c.28.44.55.89.83,1.36.64,1.05,1.27,2.16,1.91,3.31.2.38.42.77.63,1.16s.57,1.06.86,1.61.56,1,.83,1.58.63,1.21.95,1.84C243.79,373.51,244.45,374.82,245.1,376.14Z"/><path class="cls-15" d="M258.45,427.09c-9.22,6.19-24.63,15.45-38.29,18.49,0,0-1.41-2.82-3.56-7.07L211.8,429c-2.89-5.75-6.1-12.13-8.84-17.6l15.62-15.19c.61-.23,12.56.38,8.87,10.4s-10.2,16.73-4.89,20.8,20.65-28.75,34.18-4.44A18.16,18.16,0,0,1,258.45,427.09Z"/></g><g id="body"><path class="cls-13" d="M227.38,369.43c0,.53,0,1.07-.08,1.63-.17,2.79-.48,5.92-.9,9.44-.15,1.33-.39,2.78-.71,4.36-.37,1.91-.85,4-1.4,6.19-1.75,6.88-4.34,15.09-7.39,23.85-.36,1-.73,2.1-1.11,3.15-.67,1.91-1.37,3.83-2.07,5.76q-.94,2.58-1.92,5.19c-7.48,20-16.09,40.64-21.49,53.28q-18.18.95-35.28,2.11-6,.39-11.9.82-8.31.62-16.3,1.26c-13.62,1.11-26.5,2.31-38.53,3.59,2.19-10.77,8.12-39.3,15.09-69.1,3.84-16.4,8-33.19,12-47.61,2.83-10.15,5.6-19.12,8.13-26,2.64-7.09,5-11.92,7-13.45,6.94-5.3,12.92-7,20.41-6.08.82.11,1.65.24,2.51.4s1.73.36,2.63.58c.33.07.66.16,1,.25s.71.2,1.07.3l1.13.32q2.67.8,5.67,1.87l1.24.44c1,.36,2,.74,3.08,1.15,2,.75,4.12,1.59,6.38,2.48,5.65,2.25,13.09,5.27,28.86,8.59,1.05.21,2.06.44,3,.66h0l.84.19.81.2c.4.09.81.2,1.19.3s.77.2,1.14.3c.75.2,1.47.4,2.16.62,1.11.35,2.15.71,3.12,1.1l.91.38c.58.27,1.13.54,1.64.82l.68.38a15.09,15.09,0,0,1,2.9,2.21l.17.17.24.26.32.36a14.42,14.42,0,0,1,.89,1.17c.15.23.29.45.43.7s.22.38.32.59l.14.28a18.76,18.76,0,0,1,1.6,5.5c0,.25.07.5.11.77s0,.33.06.51.06.57.08.86.05.64.06,1l0,.43c0,.35,0,.71,0,1.08C227.47,366.39,227.45,367.85,227.38,369.43Z"/><path class="cls-16" d="M190.31,482.28c5.4-12.64,14-33.25,21.49-53.28q1-2.61,1.92-5.19c.7-1.93,1.4-3.85,2.07-5.76.38-1.05.75-2.11,1.11-3.15,3-8.76,5.64-17,7.39-23.85"/><path class="cls-14" d="M226.4,380.5c-.15,1.33-.39,2.78-.71,4.36a30,30,0,0,0-2,2.32A60.33,60.33,0,0,1,199.77,405c-14.48,5.73-31.41,4.31-42.35-18.1-1.93-4-3.82-7.58-5.65-10.87-9.84-17.57-18.59-26-28.23-28.66,2.64-7.09,5-11.92,7-13.45,6.94-5.3,12.92-7,20.41-6.08.82.11,1.65.24,2.51.4s1.73.36,2.63.58c.33.07.66.16,1,.25s.71.2,1.07.3l1.13.32q2.67.8,5.67,1.87l1.24.44c1,.36,2,.74,3.08,1.15.83.32,1.7.64,2.58,1,.59.22,1.17.45,1.78.7l2,.79c5.65,2.25,13.09,5.27,28.86,8.59,1.05.21,2.06.44,3,.66h0C226,349.09,229.63,353.71,226.4,380.5Z"/><path class="cls-17" d="M214.32,344.74c-3.21,9.9-11.23,20.15-23.48,18.29-13.37-2-21.61-15.81-21.55-29.88,2,.75,4.12,1.59,6.38,2.48,5.65,2.25,13.09,5.27,28.86,8.59,1.05.21,2.06.44,3,.66h0A40.88,40.88,0,0,1,214.32,344.74Z"/><path class="cls-15" d="M163.27,472.71c-5.27,4.2-19.57,10-36.44,13.76-13.62,1.11-26.5,2.31-38.53,3.59,2.19-10.77,8.12-39.3,15.09-69.1,3.84-16.4,8-33.19,12-47.61,29.44,4.14,37.29,35.31,23.92,45.85-15,11.86-16.65,21.71,2.34,21.45S178.11,460.9,163.27,472.71Z"/><path class="cls-12" d="M210.21,306.8c-.14,1.42-.29,2.77-.42,4.06-1.18,11.54-1.71,18.63-1.79,25.14,0,3.44,0,6.72.24,10.41,0,0-4.68,15.36-21.35,9-11.76-4.5-11.22-19.75-11.22-19.75a163.94,163.94,0,0,0,6.83-33.53C182.9,296.42,212.37,286.14,210.21,306.8Z"/><path class="cls-18" d="M209.79,310.86c-1.18,11.54-1.71,18.63-1.79,25.14-9.56,2.9-19.52-8.27-14-20.53C198,306.78,205.16,308.5,209.79,310.86Z"/><path class="cls-17" d="M266.73,421.21s-25.4,19.65-46.57,24.37c0,0-1.41-2.82-3.56-7.07,17.4-6,35.62-14.75,47.59-22.75C265.79,419.17,266.73,421.21,266.73,421.21Z"/></g><g id="head"><path class="cls-12" d="M216.74,322.13c-5.6,7.29-15.55,5.59-31.06-10.15-5.87-6-12.64-15.67-12.46-23.32s9.44-23.76,27-14.51c6.78,3.58,11.63,10.48,14.71,18a56.72,56.72,0,0,1,2.77,8.87C219.75,310.19,219.34,318.74,216.74,322.13Z"/><path class="cls-19" d="M197.54,300.49c-.95,2.37-4.86,3.05-8.74,1.51s-6.27-4.72-5.32-7.09,4.85-3.06,8.74-1.52S198.48,298.11,197.54,300.49Z"/><path class="cls-19" d="M217.67,301c-2.44.9-4.77.65-5.85-.8-1.49-2-.11-5.57,3.08-8.07A56.72,56.72,0,0,1,217.67,301Z"/><circle class="cls-20" cx="213.71" cy="287.26" r="7.02"/><path class="cls-21" d="M198.07,291a1.46,1.46,0,1,0,1.46-1.45A1.46,1.46,0,0,0,198.07,291Z"/><path class="cls-21" d="M208.24,288.72a1.46,1.46,0,1,0,1.46-1.46A1.46,1.46,0,0,0,208.24,288.72Z"/><path class="cls-12" d="M187.14,310.94C183.56,313,178,313,176.08,307.3s3.55-8.56,6.65-8C186.55,300,188.67,305.6,187.14,310.94Z"/><path class="cls-22" d="M185.23,305.72c-1.74-3.3-5.67-4-7.34.47"/><path class="cls-22" d="M184.26,304.36c-4.25-1.91-5.1,5.34-.2,3.51"/><path class="cls-23" d="M212.7,287.47a36.92,36.92,0,0,0-6.63-9c-4.31,2.42-7.2.21-7.2.21s-4.2,4.49-8.12,3.4-3.63-3.82-6.1-4.44-4.85,2-4.85,2.75,1.28,1.22,3.63,6.79,1.65,13.38-3.15,14.26c-1.53.28-9.18-.77-13-6.54a2.73,2.73,0,0,1-.21-.3c-3.73-6.05-1.55-10.4-.28-12s3.26-.89,3.54-2.41c1.62-8.65,9.59-16.09,18.13-16.89s8.27,2.31,8.27,2.31,8.53-.65,13.16,5.24c.28.35.54.7.77,1.05A17.25,17.25,0,0,1,212.7,287.47Z"/><path class="cls-24" d="M212.7,287.47a36.92,36.92,0,0,0-6.63-9c-4.31,2.42-7.2.21-7.2.21s-4.2,4.49-8.12,3.4-3.63-3.82-6.1-4.44-4.85,2-4.85,2.75,1.28,1.22,3.63,6.79,1.65,13.38-3.15,14.26c-1.53.28-9.18-.77-13-6.54,10-1.86,10.33-7.18,8.19-15.74-1.4-5.64,9-10.92,14.81-7.33,3.62,2.25,13.56,1.54,20.38.07A17.25,17.25,0,0,1,212.7,287.47Z"/><path class="cls-25" d="M196.75,265.62a25.93,25.93,0,0,0-10.06,2"/><path class="cls-25" d="M197.83,271.7c1.58.28,6.56,4.57,8.24,6.78,0,0,2.79,2,4.14-.84"/><path class="cls-25" d="M188.7,274.24c1.39-1.22,4.1-.88,6,1.2a18.46,18.46,0,0,0,4.13,3.25"/><path class="cls-22" d="M202.48,284c-.45,5,1.12,7.35,3.27,7.48s5,.85,4.46,4.22"/><path class="cls-26" d="M200,302.1a47.79,47.79,0,0,0,9,.69s-1,3.84-4.71,3.4A5,5,0,0,1,200,302.1Z"/><path class="cls-20" d="M190.15,292.5a7,7,0,1,0,7-7A7,7,0,0,0,190.15,292.5Z"/><path class="cls-23" d="M203.56,281.08c-.13,2.5,6.88,2,6.94.92S203.69,278.7,203.56,281.08Z"/><path class="cls-23" d="M191.84,286.94c.72,1.44,7.6-2.28,6-4.88S190.85,285,191.84,286.94Z"/><path class="cls-22" d="M187.14,310.94a8.94,8.94,0,0,1-5.91,1.13"/></g><g id="upper_hand-2" data-name="upper hand"><path class="cls-12" d="M144.64,388.89c-8.83,12.83-16.06,25.78-22.57,37.7C106,456,96.81,477.4,77,477.14c-18.07-.25-20-26.8,1.07-70l-5.32-4.95s15.49-22.58,30.39-45.26c13.46-20.47,25.24-35.31,47.82-29.11C164.29,331.51,160.32,366,144.64,388.89Z"/><path class="cls-13" d="M151.77,376a82.89,82.89,0,0,1-7.13,12.86c-7,10.14-12.95,20.35-18.36,30.07-1.45,2.58-2.85,5.13-4.21,7.63A182.13,182.13,0,0,1,103.39,421C94,417.51,84.57,413,78,407.15l-5.32-4.95s1.7-2.47,4.5-6.58c5.67-8.35,15.91-23.49,25.89-38.68,2.3-3.51,4.56-6.85,6.83-9.95,11-15,22.28-24.3,41-19.16h0C162,330.93,161.17,354.91,151.77,376Z"/><path class="cls-17" d="M126.28,419c-1.45,2.58-2.85,5.13-4.21,7.63-13.84-3.42-33-9.6-44-19.44l-5.32-4.95s1.7-2.47,4.5-6.58C85.46,404.57,96.46,410.24,126.28,419Z"/><path class="cls-14" d="M151.77,376c-9.84-17.57-18.59-26-28.23-28.66a30.69,30.69,0,0,0-13.6-.38c11-15,22.28-24.3,41-19.16h0C162,330.93,161.17,354.91,151.77,376Z"/><path class="cls-16" d="M151.83,375.88a81.81,81.81,0,0,1-7.19,13c-8.83,12.83-16.06,25.78-22.57,37.7"/><path class="cls-16" d="M150.61,358.24c2,7.15,5.17,10.47-1.35,23"/></g><g id="hand"><path class="cls-12" d="M65.05,457.58c7.67-18.49,35.76-19.1,69.68-6.73s71.21,24.76,76.86,26.29,4.59,20.78-9.63,19.71-68,3.59-99.47-2.26S60,469.67,65.05,457.58Z"/><path class="cls-22" d="M80.87,444.25c9-2.66,20.82-2.27,34.33.78"/></g><g id="hand-2" data-name="hand"><path class="cls-12" d="M292.53,477.71c15-21.56,22.74-106.68,22.74-106.68s15.05-7,17.55-8.69,7.36-10.15,8.2-12.68c0,0,4.22-2.58,4.09-4s-1.68-1.42-1.68-1.42,1-3.23-4.45-2.32a2.25,2.25,0,0,0-2.25-.84c-1.62.19-20.9,5.93-20.9,5.93s7.87-5.48,8-7.67-2.53-1.34-4.34-.25A47,47,0,0,1,307.77,344c-1.93.56-8,5.42-13.48,15.93S256.65,439.64,253.14,449C241.66,479.78,267.56,513.48,292.53,477.71Z"/><path class="cls-22" d="M264.68,422.93C259,435.49,254.35,445.81,253.14,449"/><path class="cls-22" d="M332.82,362.34c2.51-1.68,7.36-10.15,8.2-12.68,0,0,4.22-2.58,4.09-4s-1.68-1.42-1.68-1.42,1-3.23-4.45-2.32a2.25,2.25,0,0,0-2.25-.84c-1.62.19-20.9,5.93-20.9,5.93s7.87-5.48,8-7.67-2.53-1.34-4.34-.25A47,47,0,0,1,307.77,344"/><path class="cls-22" d="M315.83,347l-3,2.06s2.46,5.47-3.59,10"/><line class="cls-22" x1="321.07" y1="350.17" x2="338.98" y2="341.92"/><path class="cls-22" d="M327.9,356.22c.15-.1,5.43-2.59,5.43-2.59s5.43-8.46,6.87-8.89,3.09.27.82,4.92"/><line class="cls-22" x1="324" y1="353.04" x2="339.57" y2="345.17"/><line class="cls-22" x1="343.43" y1="344.24" x2="341.42" y2="344.73"/></g><g id="laptop"><path class="cls-3" d="M282.42,450.66c-8.84,26.56-24.27,64.55-24.27,64.55L155.06,538.6,83.64,521.68v-5.21l81.65-17.22c5.88-14.9,13.38-43.27,17.09-44,6.07-1.2,90.95-14.42,97.36-14.59C285.8,440.49,284.34,444.89,282.42,450.66Z"/><line class="cls-3" x1="165.29" y1="499.25" x2="154.13" y2="528.71"/><polygon class="cls-1" points="155.22 532.87 155.06 538.6 83.64 521.68 83.64 516.47 155.22 532.87"/></g></g><g id="Girl_Mid" data-name="Girl Mid"><g id="body-2" data-name="body"><path class="cls-27" d="M542.68,432.07c-.08.91-.15,1.81-.22,2.69-2.58,29-5.43,43.89-7.09,50.73l-3.32-.26q-7.12-.56-14.34-1.05c-27.71-1.93-56.18-3.32-84.84-4.25q-12.31-.4-24.68-.69c6-12.48,13.48-35.48,19.66-56h0c.83-2.82,1.66-5.58,2.44-8.27q1-3.36,1.9-6.52c.08-.3.17-.6.26-.9s.21-.76.33-1.14c.27-.94.53-1.89.8-2.84.14-.44.26-.88.38-1.32.2-.69.39-1.38.58-2.06s.34-1.18.5-1.75c.25-.89.49-1.77.73-2.61.14-.54.3-1.07.43-1.58l1-3.47c.12-.4.21-.77.3-1.11.2-.69.35-1.26.48-1.68,0-.1.05-.2.07-.28s.05-.18.07-.26a1.11,1.11,0,0,0,0-.13l0-.13c.09-.35.18-.67.26-1l.36-1.33c.54-2,.83-3.07.83-3.07a11.3,11.3,0,0,1-5.58.72c-8.66-.65-21.37-7.26-22.89-16a4.63,4.63,0,0,1-.07-.52,7.93,7.93,0,0,1-.08-1,11.84,11.84,0,0,1,2.69-7.51c10.3-13.69,17.06-18.51,23.81-20.89.81-.27,1.6-.52,2.41-.75h0c7.61-2.09,30.94-3.7,30.94-3.7,2.81-4,8.32-17.38,11.13-30.55,3.23-15.17,15.32-17.47,21.74-9,2.41,3.17,4,7.84,4.09,13.9.07,7.54.19,16.73.26,22.24.05,3,.08,4.87.08,4.87s11.35-4.27,29.52-4.53c3.85-.05,7.62.86,10.41,3.42,4.12,3.78,8,11.37,11.5,20.57C567.87,375,574,406.06,576,417.3,578.65,432.83,542.68,432.07,542.68,432.07Z"/><path class="cls-28" d="M550.2,411.48a51.89,51.89,0,0,1-27-1.09c-9.34,4.19-43.66,10.64-66.63,8.44s-23.95-10.28-23.95-10.28h0l-.47-.11c2.75-9.55,6-21.26,6-21.26s1.42.29,4,.7a187.86,187.86,0,0,0,66.71-2.3s18,5.08,35.94,1.32Z"/><path class="cls-28" d="M552.14,420.33s-31.09,4.4-58,8.66-55,2-66.27-5.76l2.45-8.28c10.08,8.75,24.33,10.93,50.23,9.83s42.28-8.87,42.28-8.87c13.42,3.57,23.53,2,28.52.64Z"/><path class="cls-29" d="M559.58,353.09c-14.07-1.07-31.07,5.64-45.21,18.25-12.24,10.9-35.87,24.72-53.69,7a42.94,42.94,0,0,0-12.43-8.5C437.6,365,424.5,363.56,411,365a11.84,11.84,0,0,1,2.69-7.51c10.3-13.69,17.06-18.51,23.81-20.89.81-.27,1.6-.52,2.41-.75h0c7.61-2.09,30.94-3.7,30.94-3.7,2.81-4,8.32-17.38,11.13-30.55,3.23-15.17,15.32-17.47,21.74-9,2.41,3.17,4,7.84,4.09,13.9.07,7.54.19,16.73.26,22.24.05,3,.08,4.87.08,4.87s11.35-4.27,29.52-4.53c3.85-.05,7.62.86,10.41,3.42C552.2,336.3,556.08,343.89,559.58,353.09Z"/><path class="cls-30" d="M542.46,434.76c-2.58,29-5.43,43.89-7.09,50.73l-3.32-.26q-7.12-.56-14.34-1.05c-27.71-1.93-56.18-3.32-84.84-4.25,10.37-10.9,29.25-15.27,41.43-9.11,13.67,6.91,36,.42,30.12-16.16-3.49-9.83-1.3-21.57,18.37-29.83Z"/><path class="cls-31" d="M548.08,332.52c-5.85.93-13.6,4.15-23.09,7.7-3.34,1.25-6.88,2.54-10.62,3.78a141.9,141.9,0,0,1-37.53,7.5,107.59,107.59,0,0,1-14.4-.11,47.7,47.7,0,0,1-10.83-2c-7.53-2.44-11.73-6.75-14.12-12.75.81-.27,1.61-.52,2.42-.75,3.43-.94,10.08-1.78,16.32-2.43,3.95-.42,7.76-.74,10.49-.95,2.52-.21,4.13-.32,4.13-.32,2.81-4,8.32-17.38,11.13-30.55,3.23-15.17,15.32-17.47,21.74-9,2.41,3.17,4,7.84,4.09,13.9.07,7.54.19,16.73.26,22.24.05,3,.08,4.87.08,4.87a63.64,63.64,0,0,1,8.29-2.24c2.72-.58,6.06-1.15,9.93-1.59a113.13,113.13,0,0,1,11.3-.7A17.28,17.28,0,0,1,548.08,332.52Z"/><path class="cls-32" d="M508.07,328.76c-9.61-.57-17.8-8.36-15.77-18.28,2.27-11.09,6.59-16.36,11.42-17.86,2.41,3.17,4,7.84,4.09,13.9C507.88,314.06,508,323.25,508.07,328.76Z"/><path class="cls-13" d="M526.37,329.8A58.8,58.8,0,0,0,525,340.22c-3.34,1.25-6.88,2.54-10.62,3.78a51.39,51.39,0,0,1,2.07-12.61C519.16,330.81,522.5,330.24,526.37,329.8Z"/><path class="cls-13" d="M466.72,332.5a94.09,94.09,0,0,0-4.28,18.89,47.7,47.7,0,0,1-10.83-2,87.81,87.81,0,0,1,4.62-15.93C460.18,333,464,332.71,466.72,332.5Z"/></g><g id="upper_hand-3" data-name="upper hand"><path class="cls-27" d="M557.1,453.07c-1.06,10.26-3,20.46-6.37,27.59v0c-2.08,4.39-4.71,7.6-8.05,8.94-6.71,2.71-12.48,2-17.08-.55h0c-8.24-4.55-12.7-14.9-12-21.61,0-.32.06-.68.1-1,.08-1,.15-2.07.22-3.27,0-.39,0-.8.08-1.22,0-.08,0-.16,0-.25,0-.3,0-.61,0-.92,0-.55.06-1.13.08-1.7s0-.9.06-1.37c0-.16,0-.32,0-.48q0-.7.06-1.44c0-.5,0-1,.07-1.53,0-1.14.08-2.29.12-3.49s.07-2.13.11-3.22c0-.47,0-.94,0-1.4.09-2.53.16-5.16.24-7.83.05-1.68.1-3.38.16-5.09l.06-2.11.09-2.89.06-2c0-1.16.09-2.3.12-3.44.06-1.65.12-3.29.18-4.9,0-1.06.09-2.11.13-3.15.08-1.95.17-3.82.26-5.63L558.1,415A285.57,285.57,0,0,1,557.1,453.07Z"/><path class="cls-33" d="M515.87,409c-1,19.22-1.31,48-2.33,58.42"/><path class="cls-30" d="M557.1,453.07c-1.06,10.26-3,20.46-6.37,27.59v0c-2.08,4.39-4.71,7.6-8.05,8.94-6.71,2.71-12.48,2-17.08-.55a29.63,29.63,0,0,1,7.45-2.21c11.23-1.91,7.69-15.72,12.57-25.31C547.59,457.7,550.92,454.53,557.1,453.07Z"/></g><g id="hand-3" data-name="hand"><path class="cls-28" d="M453.1,510.15c-2.86,2.5-4.75,13,2.14,21.38s13.63,3,13.63,3,9.88-8.51,3-21.17S453.1,510.15,453.1,510.15Z"/><path class="cls-31" d="M468.08,508.13c-7.24,3.49-12.39,5.84-13.69,5.75s-13.43,1.4-16.92,2.45-11.42,9.41-10.64,10.63,3.84,1,3.84,1-12,8.81-13.17,12,2.45,2.44,2.45,2.44c-1.87,1-4.44,6.34,2.09,4.36-1.57,1-2.52,3.95,1.92,2.88,6.45-1.57,17-5.93,17-5.93s-7.33,5.49-10.29,6.89-3.14,4.62,3.23,2.79,18.74-10.46,23-13.52,8.37-5.66,9.33-6.27,10.12-4.8,10.12-4.8S485.25,506.39,468.08,508.13Z"/><path class="cls-34" d="M430.67,528c4.45-3.14,10.64-7.72,11.95-7.87"/><path class="cls-34" d="M420,542.48c.18-.49,17.94-11.89,17.94-11.89"/><path class="cls-34" d="M422,546.84c.09-.56,18.2-9.68,18.2-9.68"/><path class="cls-34" d="M437.47,516.33c-3.49,1-11.42,9.41-10.64,10.63s3.84,1,3.84,1-12,8.81-13.17,12,2.45,2.44,2.45,2.44c-1.87,1-4.44,6.34,2.09,4.36-1.57,1-2.52,3.95,1.92,2.88,6.45-1.57,17-5.93,17-5.93s-7.33,5.49-10.29,6.89-3.14,4.62,3.23,2.79a28.1,28.1,0,0,0,4.5-1.86"/><path class="cls-27" d="M550.73,480.66v0c-1.65,7.58-20.25,20.14-39.3,31.23-20.7,12-41.93,22.35-42.56,22.65,4.52-7.21,3.57-26.71-15.76-24.42,0,0,50.81-36,60.36-43.8a1.33,1.33,0,0,1,.19-.14c10.88-8.76,24.41-10.36,32-4.65C550.31,465.09,552.7,471.45,550.73,480.66Z"/><path class="cls-30" d="M550.73,480.66v0c-1.65,7.58-20.25,20.14-39.3,31.23,2.37-11,5.5-18.88,14.15-22.84h0a29.63,29.63,0,0,1,7.45-2.21c11.23-1.91,7.69-15.72,12.57-25.31C550.31,465.09,552.7,471.45,550.73,480.66Z"/><path class="cls-33" d="M496.72,478.87c7.59-5.53,13.95-10.25,16.76-12.53a37.2,37.2,0,0,1,13.77-7.16"/></g><g id="upper_hand-4" data-name="upper hand"><path class="cls-27" d="M448.25,369.83a166.12,166.12,0,0,1-6.08,18.05,224.69,224.69,0,0,1-9.5,20.67h0q-1.25,2.43-2.59,4.85h0c-.13.25-.27.51-.42.76-1.13,2.06-2.32,4.12-3.53,6.16q-4.92,8.28-9.43,15.23a181.76,181.76,0,0,1-15.13,20.52c-10.14,11.61-19,16.64-27.67,15a20.13,20.13,0,0,1-4.82-1.58,13.55,13.55,0,0,1-7.18-8h0a20.42,20.42,0,0,1-1.08-5s0,0,0,0c-.65-6.75,1.19-15.45,5.16-25.4a150.48,150.48,0,0,1,7.78-16.26c.84-1.52,1.71-3,2.6-4.58,2.88-4.92,6.13-10,9.7-15.16.37-.52.72-1,1.07-1.55q1.77-2.55,3.44-5l3.41-5c.26-.38.51-.76.77-1.13,4.08-6,7.78-11.53,11.24-16.49l.16-.24,2-2.81c11.53-16.2,20.48-25.78,31.78-27h0C452.19,334.59,453.74,349.35,448.25,369.83Z"/><path class="cls-29" d="M448.25,369.83c-11.92-5.46-26.91-6.55-42.12-4.15l2-2.81c11.53-16.2,20.48-25.78,31.78-27h0C452.19,334.59,453.74,349.35,448.25,369.83Z"/><path class="cls-33" d="M439.61,381.81c3.2-12.57,3.78-17.29,3.78-17.29"/><path class="cls-28" d="M442.17,387.88a224.69,224.69,0,0,1-9.5,20.67h0s-24.67-3.09-37.93-26.14c4.08-6,7.78-11.53,11.24-16.49C409.9,372.21,419.76,383.25,442.17,387.88Z"/><path class="cls-33" d="M432.19,408.44c2.75-9.55,5-17.57,6.23-22.23l.36-1.33c.54-2,.83-3.07.83-3.07"/><path class="cls-28" d="M430.07,413.4v0l-.42.74-3.53,6.16s-29.66-5.86-39-26.76q1.77-2.55,3.44-5C404.05,409.93,430.07,413.4,430.07,413.4Z"/></g><g id="hand-4" data-name="hand"><path class="cls-27" d="M410.54,421.15s-1.53,12.39-7.8,31.66c-.36,1.12-.75,2.2-1.18,3.27-5,12.69-13.92,22.15-22.74,25.38a16.9,16.9,0,0,1-9.71.83c-11.92-2.74-17.27-12.52-14.05-29.48,1.44-7.6,5.4-14.92,10.9-21.69a92.06,92.06,0,0,1,10.3-10.66,130.23,130.23,0,0,1,15-11.42Z"/><path class="cls-30" d="M378.82,481.46a16.9,16.9,0,0,1-9.71.83c-11.92-2.74-17.27-12.52-14.05-29.48,1.44-7.6,5.4-14.92,10.9-21.69a92.06,92.06,0,0,1,10.3-10.66,18.12,18.12,0,0,1-3.89,17.79c-5.35,6-10.9,12.71-11.57,18.27,0,0,0,0,0,0a7.16,7.16,0,0,0,1.08,5h0a9.67,9.67,0,0,0,3.77,3.18,28.62,28.62,0,0,1,8.23,6.41C376.72,474.33,378.55,478,378.82,481.46Z"/><path class="cls-33" d="M402.74,452.82c1.48-4.56,2.7-8.72,3.69-12.44"/><path class="cls-33" d="M381.08,416.41c-12.93,10.3-23.47,22.89-26,36.41"/><path class="cls-28" d="M387.37,419.2c-3,5.21-7.27,14-3.67,19.71s11.42,7,17.39,1.48,9-11,9.45-16.92Z"/><path class="cls-31" d="M396.43,407.67c-1.29-1.57,2-3.68,4.39-2.2a30.6,30.6,0,0,0,7.73,3.57c2,.44,3.26,5.56,2.34,6.5C410.89,415.54,398,409.53,396.43,407.67Z"/><path class="cls-34" d="M408.55,409c2,.44,3.26,5.56,2.34,6.5"/><path class="cls-21" d="M369.21,396c-2.7-1.69.11-6.59,2.82-5.46S415.18,418,415.18,418l3,5-6-.8S371.46,397.45,369.21,396Z"/><path class="cls-31" d="M387.24,411.79c-.64-3.84,4.4-4.86,6.89-3.07s11.28,5.87,14.15,6.82,4.67,4.53,2.88,5.78c0,0,1.79,2.55-.31,3.72a11,11,0,0,1-3,1.32s.86,2.75-5.67,5.62c0,0-1,4-4.51,5s-10,.23-11.51-1-2.26-5-.78-6.38c0,0-3.75-1.76-3.08-4.52.9-3.72,3.46-2.64,2.69-4.11s-2-4.24-.08-5.39S387.59,413.85,387.24,411.79Z"/><path class="cls-34" d="M408.28,415.54c2.88.95,4.67,4.53,2.88,5.78,0,0,1.79,2.55-.31,3.72a11,11,0,0,1-3,1.32s.86,2.75-5.67,5.62c0,0-1,4-4.51,5"/><path class="cls-34" d="M388.35,422.93a68.74,68.74,0,0,0,15.38,3.8,24.65,24.65,0,0,0,4.16-.37"/><path class="cls-34" d="M411.16,421.32s-7.3.21-8.85,0c-1.37-.19-11.82-4.32-11.82-4.32"/><path class="cls-34" d="M390.29,431.12s7.71,1.55,11.93.86"/></g><g id="head-2" data-name="head"><path class="cls-35" d="M483.69,272.39a28.06,28.06,0,0,1-9.82,10.22c-6.95,4.34-12.82,1.08-15.32-2.24-.92-1.24-.9-4.61-.19-8.41,1.21-6.43,4.39-14.13,8.3-15a15.62,15.62,0,0,1,13.16,2.82,9.32,9.32,0,0,1,1.69,1.69C484.14,264.83,484.22,265,483.69,272.39Z"/><path class="cls-36" d="M483.69,272.39a28.06,28.06,0,0,1-9.82,10.22c-6.95,4.34-12.82,1.08-15.32-2.24-.92-1.24-.9-4.61-.19-8.41,3.39,6,9.36,8.39,11.71,6.47,3.34-2.75-1.74-16.14,9.75-18.69a9.32,9.32,0,0,1,1.69,1.69C484.14,264.83,484.22,265,483.69,272.39Z"/><path class="cls-37" d="M475,274c1.92-.5,2.35-4.84.5-5.12s-3.29,2.77-2.84,5.12c.28,1.49,1.41,2.52,4.9,1.68"/><path class="cls-37" d="M473,278.69c-7.83-.18-10.74-1.66-11.33-5.16s-.94-9.4-.94-9.4"/><path class="cls-37" d="M468.89,278.42a12,12,0,0,1-4-6.71c-.64-4,2.55-9.34,4.71-9.59,3.73-.42,12,2.78,11.34,9.25"/><path class="cls-31" d="M513.4,315.65c-7.48,3.52-21.08,0-28.85-8.44-9.72-10.57-1.38-34,9.72-37.32s16.85,8.43,20.1,17.86l.06.2a69.52,69.52,0,0,1,2.1,7.56C518.28,303.49,518.86,313.08,513.4,315.65Z"/><path class="cls-38" d="M484.23,291.5c-.59,2.06,2.4,4.73,6.69,6s8.23.54,8.82-1.53-2.4-4.74-6.68-6S484.82,289.43,484.23,291.5Z"/><path class="cls-38" d="M516.53,295.51c-2.15.91-4.06.94-4.95-.11-1.27-1.52,0-4.71,2.85-7.45A69.52,69.52,0,0,1,516.53,295.51Z"/><path class="cls-21" d="M507.14,285.7a1.46,1.46,0,1,0,1.45-1.45A1.46,1.46,0,0,0,507.14,285.7Z"/><path class="cls-21" d="M499,287.76a1.46,1.46,0,1,0,1.45-1.46A1.45,1.45,0,0,0,499,287.76Z"/><path class="cls-32" d="M495.34,294a.69.69,0,1,0,.69-.69A.69.69,0,0,0,495.34,294Z"/><circle class="cls-32" cx="498.32" cy="291.21" r="0.69"/><circle class="cls-32" cx="499.01" cy="293.71" r="0.69"/><path class="cls-32" d="M500.86,291.9a.69.69,0,1,0,.69-.69A.69.69,0,0,0,500.86,291.9Z"/><path class="cls-32" d="M512.16,289.32a.69.69,0,1,0,.69-.69A.69.69,0,0,0,512.16,289.32Z"/><circle class="cls-32" cx="510.37" cy="288.29" r="0.69"/><path class="cls-35" d="M520.94,287.36c-.84,1-1.86,1.5-2.31,1-.88-.94,1.65-2.42,0-4.12s-5.84-.69-5.84-.69c-6.09-15.92-15.32-15.42-20.8-12.68s-6,7.53-6.08,10.4-.1,3.85,4,6.15.28,5.9-.38,8.75,2.36,2,4,4.84-1.65,4.23-1.51,3-1-2.81-2.17-2.54-3.52-.6-3.63-2-1-4.67-2.48-5.15c-5.17-1.7-7.86,3.29-7.15,7.19a7.73,7.73,0,0,0,4.16,5.42s-3,1.48-8.05-4.7a11.25,11.25,0,0,1-2.23-4.58C469,291.51,472,284,474.86,279.52c3.63-5.72,5.06-6,5.06-6a28.3,28.3,0,0,1,7.4-10.06c5.47-4.89,10.31-.77,10.31-.77,5.27-3.68,11.55-2.2,13.35,1.22s1.11,8.79,1.39,10.55,1.65,4.73,5,4.73,4.63,1.27,4.84,4.34A5.5,5.5,0,0,1,520.94,287.36Z"/><path class="cls-36" d="M520.94,287.36c-.84,1-1.86,1.5-2.31,1-.88-.94,1.65-2.42,0-4.12s-5.84-.69-5.84-.69c-6.09-15.92-15.32-15.42-20.8-12.68s-6,7.53-6.08,10.4-.1,3.85,4,6.15.28,5.9-.38,8.75,2.36,2,4,4.84-1.65,4.23-1.51,3-1-2.81-2.17-2.54-3.52-.6-3.63-2-.79-4.13-2.5-4.83c-5.27-2.17-7.59,3-6.88,6.87a7.6,7.6,0,0,0,4.46,5.35s-2.62,2.8-8.6-4.63a11.44,11.44,0,0,1-2.23-4.58c5.16-4.71,4.9-9.46,8.35-10.49,4.22-1.26,3.67-9.65,8.53-17.85s13.07-2.39,15.1-.45c0,0,5.87-3,7.62,4.66s5.69,8.83,8.35,8.57C520,281.93,521.31,284.67,520.94,287.36Z"/><path class="cls-37" d="M483.69,289.16c1.93.3,2.89,3.17,1.84,7.51"/><path class="cls-37" d="M486.39,276.06c2.77-7.89,4.06-8.49,4.89-9,1.51-.91,4.89.09,4.89.09"/><path class="cls-37" d="M497.63,262.69a52,52,0,0,1,4.79,4.67"/><path class="cls-37" d="M476.66,298c-2.77-4.08-5.54-13.09-.55-20.4"/><path class="cls-37" d="M479.42,294.56c-2-4.13-3.56-12.07.5-21"/><path class="cls-34" d="M504.83,282.09c-1.25,4.66.59,6.55,2.78,7.12s3.94,1.69,3.69,3.63"/><path class="cls-35" d="M492.36,284c1,1,7-2.92,5.46-5.23S490.9,282.6,492.36,284Z"/><path class="cls-35" d="M503.29,277.36c0,2.35,6,1.08,5.89.31C509,276.28,503.28,275.21,503.29,277.36Z"/><path class="cls-34" d="M503.12,296.35a6.72,6.72,0,0,0,6.93,1.5"/><path class="cls-31" d="M487.32,301v5.8a9.82,9.82,0,0,1-6,.08l-.1,0a7.11,7.11,0,0,1-4.78-6.51,6.06,6.06,0,0,1,2.07-5l0,0a5.38,5.38,0,0,1,1.59-.94,5.3,5.3,0,0,1,3.6.33c1.7.7,2.38,3.38,2.5,4.83A2,2,0,0,0,487.32,301Z"/><path class="cls-34" d="M478.79,299.69c.59-1.51,4.51-3.19,6.36.93"/><path class="cls-34" d="M484.85,300c-4.29-2.49-6.06,3.89-.5,3.5"/><path class="cls-34" d="M487.32,306.78a9.5,9.5,0,0,1-6.76-.2"/></g></g><g id="Girl_L" data-name="Girl L"><g id="hair"><path class="cls-39" d="M699.29,332.34c-.73,4.65-3.93,8.75-8.2,11.64-8.17,5.57-20.3,6.77-26.63-.74-7.91-9.37-27.78-53.45-34.71-69.07-1.51-3.43-2.41-5.5-2.41-5.5.58-20.65,15.89-29.59,31.23-28.88s25.8,11.62,26.61,28.06-5.81,40.63-1.25,45.64S701.43,318.76,699.29,332.34Z"/><path class="cls-40" d="M693.77,337.11a22.1,22.1,0,0,1-2.68,6.87c-8.17,5.57-20.3,6.77-26.63-.74-7.91-9.37-27.78-53.45-34.71-69.07,4.82-22.45,16.64-29.43,29.83-27.25,13.37,2.22,19.1,20.25,14.85,28.13s-15.08,23.4-9.56,33.18,4.56,11.63,11,13.17S695.75,326.14,693.77,337.11Z"/><path class="cls-41" d="M632.41,265.11c2.61-14.25,16-16.85,21.88-15.46"/><path class="cls-41" d="M642.22,263.29c7.48-6.31,18.33-4.18,18.26,1.24S660,274,663.12,276.2s7.77,6.87,5.13,13.44"/><path class="cls-41" d="M674.72,296.83c-2,11.77-3.24,17.54,2.07,19.16s7.08,3.39,5.93,5.93-2.62,3.61.85,4.92,3.77,5.7,3.77,5.7"/></g><g id="upper_hand-5" data-name="upper hand"><path class="cls-30" d="M638.25,406.37c-6.15,30.57-16.79,62.43-27.46,77.51-3.07,4.33-6.12,7.28-9.08,8.42-25.8,10-36.32-2.06-33.37-38.42,1.7-21,12.89-59.48,28-87.45,10.83-20,23.66-34.6,36.49-33.5h0C646.55,334.13,645.7,369.31,638.25,406.37Z"/><path class="cls-27" d="M638.25,406.37A21.8,21.8,0,0,1,625,393.73a57.24,57.24,0,0,0-5.66-11c-5.55-8.32-13.27-14.57-23-16.35,10.83-20,23.66-34.6,36.49-33.5h0C646.55,334.13,645.7,369.31,638.25,406.37Z"/><path class="cls-42" d="M619.36,385.58c-12.45,1.44-15.12,5.28-13.64,13.95s-16.44-.73-21.27,9.51,18.9,48.48,19.33,48.7l7.25,3.7,13.74-16L633.91,423l.15-20.53Z"/></g><g id="body-3" data-name="body"><path class="cls-30" d="M729.27,392.58c-.2,4.48-1.79,19.94-3.79,38.42-3.45,31.73-8.14,72.35-9.21,81.64l-3.67-.95c-14.89-3.84-31-7.28-48.16-10.38s-35.23-5.83-54.13-8.23c.15-2.69.31-5.81.48-9.2.86-17.54,1.86-42.34,1.06-52.45-1.29-16.25-2.06-27.86,3.35-38.18a60.11,60.11,0,0,0,4.16-10.47c2.79-9.17,4.28-19.63,4.1-26.49-.22-8.09-4.86-20.55,9.4-23.36h0a42.82,42.82,0,0,1,11.21-.39c27.54,2,33.17,0,33.17,0,17.78-3.17,32.53.74,36.65,2.18l.38.14c6,2.22,11.64,10.52,14,28.08A169,169,0,0,1,729.27,392.58Z"/><path class="cls-42" d="M692.42,407.87c-19.69-9.24-33.29,12-32.27,28.82,1.31,21.39-23.67-4.75-34.27,18.47-8.42,18.45,33.29,35,55.23,17S719,420.33,692.42,407.87Z"/><path class="cls-27" d="M728.31,362.94c-13.44-2.17-30.4,4.22-40.68,13.5-4.3,3.9-7.43,8.31-8.64,12.81-4.1,15.34-25.67,22.68-40.74,17.12A21.8,21.8,0,0,1,625,393.73a57.24,57.24,0,0,0-5.66-11c2.79-9.17,4.28-19.63,4.1-26.49-.22-8.09-4.86-20.55,9.4-23.36h0a42.82,42.82,0,0,1,11.21-.39c27.54,2,33.17,0,33.17,0,17.78-3.17,32.53.74,36.65,2.18l.38.14C720.27,337.08,725.92,345.38,728.31,362.94Z"/><path class="cls-33" d="M610.31,493.08c.15-2.69.31-5.81.48-9.2.86-17.54,1.86-42.34,1.06-52.45-1.29-16.25-2.06-27.86,3.35-38.18a60.11,60.11,0,0,0,4.16-10.47,102,102,0,0,0,3.79-19.11"/><path class="cls-12" d="M672.35,332.54c.43,3.16-19.16,25.69-27.35,23.62s-4-23.33-4-23.33-.5-1.44-1.27-3.56c-1.89-5.26-5.35-14.78-6.61-17.38a50.38,50.38,0,0,1-3.45-9.18c-6.24-23.77,13.78-32.94,24.6-8.85C665.21,318.15,671.91,329.37,672.35,332.54Z"/><path class="cls-18" d="M639.75,329.27c-1.89-5.26-5.35-14.78-6.61-17.38a50.38,50.38,0,0,1-3.45-9.18c7.13-4.64,17.11-.48,21,7.67C654.45,318.3,649.5,327.62,639.75,329.27Z"/><path class="cls-21" d="M640.31,330.81c1.76,3.59,1.48,4.29,1.48,6.25s.45,11.86-.44,15.67c0,0-4.37-4.66-6.73-3.89s-6.12,3.89-6.12,3.89l6.71-17C636.62,332.07,638.55,330.74,640.31,330.81Z"/><path class="cls-21" d="M677.25,332.54c.08-2-5.5-5.75-6.33-3.88-4.56,10.32-16.39,23.6-20.49,26.45a16,16,0,0,1,5,2.19c2.29,1.65,6.53,9.11,6.53,9.11S676.42,352.73,677.25,332.54Z"/><path class="cls-17" d="M640.3,365.1a3.28,3.28,0,1,0,3.28-3.28A3.28,3.28,0,0,0,640.3,365.1Z"/><path class="cls-17" d="M638.62,377.19a3.29,3.29,0,1,0,3.29-3.28A3.28,3.28,0,0,0,638.62,377.19Z"/><path class="cls-42" d="M712.6,511.69c-14.89-3.84-31-7.28-48.16-10.38a12.09,12.09,0,0,1,1.71-3.32c9.77-14.1,17.12-29.71,40.15-22.88,9.36,2.78,4.58,18.5,0,24C701.53,504.77,714.65,504.92,712.6,511.69Z"/></g><g id="hand-5" data-name="hand"><path class="cls-30" d="M582.12,495.17c-21-3.34-27.12-34.8-30.34-50.91-2.39-12-7.2-42.51-9.5-57.37-.8-5.12-1.3-8.38-1.3-8.38s10.62,1.89,21.42-8.15c.66,1.65,1.73,3.94,3.09,6.73,9.85,20.3,35.51,66.87,40.23,82.71C611.08,477.82,602.86,498.48,582.12,495.17Z"/><path class="cls-33" d="M551.78,444.26c-1.11-5.59-2.75-15.21-4.42-25.39-1.91-11.66-3.85-24.05-5.08-32-.8-5.12-1.3-8.38-1.3-8.38"/><path class="cls-12" d="M562.4,370.36c-2.49-5-8.66-14.51-14.52-18.9-3.14-2.34-7-2.32-8.33-1.38,0,0-10.7-1.59-18.83.39s-9.42,6.45-6.05,6.84,9.12-1.58,13.29-1.68c0,0-4.21,1-4.12,4.88-1-.59-3.35.95-2.85,4.12,0,0-1.68-1.76-2.35,1.5s2.17,8.06,5.43,8.24,2.9-2.17,2.9-2.17,2.66,4.88,14,6.31c0,0,2,3.47,2,3.29S562.74,383.64,562.4,370.36Z"/><path class="cls-22" d="M547.88,351.46c-3.14-2.34-7-2.32-8.33-1.38,0,0-10.7-1.59-18.83.39s-9.42,6.45-6.05,6.84,9.12-1.58,13.29-1.68c0,0-4.21,1-4.12,4.88-1-.59-3.35.95-2.85,4.12,0,0-1.68-1.76-2.35,1.5s2.17,8.06,5.43,8.24,2.9-2.17,2.9-2.17"/><path class="cls-22" d="M528,355.63a27.84,27.84,0,0,1,6,0"/><path class="cls-22" d="M521,364.63c1.42,3.67,3.3,6.18,6,7.57s6.24-2.66,6.06-3.79c1.36-.94,2.24-3.06-.49-4.72"/><path class="cls-22" d="M523.84,360.51c.75,3.93,3.31,8.87,9.19,7.9"/><path class="cls-22" d="M549.18,369c-6.7-3-7.87-7.11-8.2-10.22,0,0-9.4,6.86-11.57,5.11-2.7-2.19,8-12.56,10.14-13.81"/><path class="cls-21" d="M565.49,377.09c-5.91,5.47-13.16,10.11-23.21,9.8-.8-5.12-1.3-8.38-1.3-8.38s10.62,1.89,21.42-8.15C563.06,372,564.13,374.3,565.49,377.09Z"/><path class="cls-17" d="M559.58,375.74a1.85,1.85,0,1,0,1.84-1.85A1.84,1.84,0,0,0,559.58,375.74Z"/></g><g id="upper_hand-6" data-name="upper hand"><path class="cls-30" d="M725.48,431c-5.47,18.93-11.8,37.48-15.24,47.61-8.48,25.06-39.85,40-43.45,17.06-4.28-27.28,14-76.5,20.55-117.14.11-.65.2-1.35.29-2.09,1.78-14.35,1.57-43.85,20.46-42.78a23.58,23.58,0,0,1,5.81,1.06l.38.14c10.86,3.74,16.74,15.57,19.45,29.51a106,106,0,0,1,1.74,14.86C736.05,390.66,731.25,411.05,725.48,431Z"/><path class="cls-27" d="M733.73,364.37a27.69,27.69,0,0,0-5.42-1.43c-13.44-2.17-30.4,4.22-40.68,13.5,1.78-14.35,1.57-43.85,20.46-42.78a23.58,23.58,0,0,1,5.81,1.06l.38.14C725.14,338.6,731,350.43,733.73,364.37Z"/><path class="cls-33" d="M668.63,463c4-22.52,11.9-49.16,16.78-73.75"/><path class="cls-33" d="M721.2,445.26c-4.23,13.57-8.4,25.8-11,33.35A47.32,47.32,0,0,1,697.47,498"/><path class="cls-33" d="M685.4,389.25c2-7.88,6.46-13,9.22-13.41"/></g><g id="hand-6" data-name="hand"><path class="cls-2" d="M499.42,381.24c4.65-3.25,13-1.93,23,9a85.22,85.22,0,0,1,14.84,23.18,56,56,0,0,1,24-9.92c14.14-2.11,31.69,4.21,31.69,4.21l2.73,7.65L537.67,423Z"/><polygon class="cls-3" points="540.98 416.09 599.17 411.44 622.24 474.57 566.52 479.07 540.98 416.09"/><polygon class="cls-3" points="496.87 377.19 534.32 415.4 559.73 475.22 523.46 440.92 496.87 377.19"/><polygon class="cls-3" points="534.32 415.4 540.98 416.09 566.52 479.07 559.73 475.22 534.32 415.4"/><path class="cls-4" d="M522.79,396.45c5.47,5.53,11,15.07,11,15.07"/><path class="cls-4" d="M541,413.4a54.22,54.22,0,0,1,15.51-6"/><path class="cls-4" d="M541.68,414.5c5-2.19,15.18-4.11,15.18-4.11"/><path class="cls-3" d="M531.12,413.57c1.49-2.94,9.91-5,11.56,4a10,10,0,0,1-6.21,1.2C534.68,418.43,531.12,413.57,531.12,413.57Z"/><path class="cls-12" d="M596.49,446.69a66,66,0,0,1-14.68-11.1c-4.1-4-14.77-9.31-15.77-8.69s-1.78,3.36,3.85,8.32a17.42,17.42,0,0,1,4.26,5,12.57,12.57,0,0,1-6.29.6c-3.6-.55-18.79-1.55-20.62-1.74s-2.2,2.29.54,3.39c-4.4-.66-5.61,1.95-1.64,4.37,0,0-3.44.92.58,3.91A80.88,80.88,0,0,0,557.46,457s-8.18-2.37-9.24-2.22-1.65,1.84,1.16,3.34,22.47,9.1,25.87,10.1c4.17,1.21,12.57,2.65,12.57,2.65S597.94,456.27,596.49,446.69Z"/><path class="cls-30" d="M678.17,507c-19.07,1.3-66.87-21.33-85.55-30.24-3.82-1.81-6.42-3-7.31-3.4,0,0,.38-22.73,12.51-27.28a21.31,21.31,0,0,0,5,2,39,39,0,0,0,6.93,1.35c8,.89,32.94,4.59,46.52,5.69s30.75,10.39,36.89,21.43C697.37,484.12,697,505.74,678.17,507Z"/><path class="cls-33" d="M678.17,507c-19.07,1.3-66.87-21.33-85.55-30.24-3.82-1.81-6.42-3-7.31-3.4"/><path class="cls-33" d="M597.82,446.1a21.31,21.31,0,0,0,5,2,39,39,0,0,0,6.93,1.35c8,.89,32.94,4.59,46.52,5.69,9,.73,19.49,5,27.38,11"/><path class="cls-22" d="M576.1,431.42c-4.45-2.71-9.4-4.93-10.06-4.52-1,.62-1.78,3.36,3.85,8.32a17.42,17.42,0,0,1,4.26,5,12.57,12.57,0,0,1-6.29.6c-3.6-.55-18.79-1.55-20.62-1.74s-2.2,2.29.54,3.39c-4.4-.66-5.61,1.95-1.64,4.37,0,0-3.44.92.58,3.91A80.88,80.88,0,0,0,557.46,457s-8.18-2.37-9.24-2.22-1.65,1.84,1.16,3.34c.83.44,3.17,1.43,6.13,2.63"/><path class="cls-21" d="M602.86,448.15c-5.85,4.42-9.93,17.34-10.24,28.63-3.82-1.81-6.42-3-7.31-3.4,0,0,.38-22.73,12.51-27.28A21.31,21.31,0,0,0,602.86,448.15Z"/><path class="cls-17" d="M587.37,469.54a2.09,2.09,0,1,0,2.09-2.08A2.09,2.09,0,0,0,587.37,469.54Z"/><path class="cls-22" d="M557.46,457c2.59.8,4.53,1.57,4.53,1.57"/><line class="cls-22" x1="546.14" y1="446.8" x2="563.43" y2="452.82"/><line class="cls-22" x1="547.78" y1="442.43" x2="564" y2="446.8"/></g><g id="head-3" data-name="head"><path class="cls-12" d="M655.37,299c-4.28,10.44-15.27,28.45-28.44,19.63a26.67,26.67,0,0,1-7-7,36.23,36.23,0,0,1-5.3-11.8,42.61,42.61,0,0,1-.65-18.21,32.32,32.32,0,0,1,1.75-6.09c5.41-13.31,22.92-12.25,29.37-5.79.18.18.38.38.58.6a43.59,43.59,0,0,1,7.53,13q.39,1,.72,2C655.82,290.67,656.6,296,655.37,299Z"/><path class="cls-21" d="M617.86,296.41a1.46,1.46,0,1,0,1.45-1.46A1.45,1.45,0,0,0,617.86,296.41Z"/><path class="cls-21" d="M625.88,293.86a1.46,1.46,0,1,0,1.46-1.46A1.45,1.45,0,0,0,625.88,293.86Z"/><path class="cls-12" d="M652.21,298.45c6.12,1.63,13.17-6,9.61-12.32s-10.54-2.32-11.39,2.17Z"/><path class="cls-22" d="M652.21,298.45a6.87,6.87,0,0,0,3.34,0"/><path class="cls-22" d="M653.21,291.93c.56-5.13,5.19-5.38,6.38-3.07"/><path class="cls-22" d="M653.36,291c3.94-4.28,8.89,2.88,1.11,3.51"/><path class="cls-39" d="M653.93,285.27a4.44,4.44,0,0,1-.12.55c-.89,3.15-4.21,1.58-5.56-1.41-1.56-3.54-10.69-16.28-18.92-7.55-6.1,6.46-11.12,7.33-15.35,4.76a31,31,0,0,1,1.64-5.77,3,3,0,0,1,.11-.32c5.41-13.31,22.92-12.25,29.37-5.79.18.18.38.38.58.6a43.59,43.59,0,0,1,7.53,13Q653.6,284.28,653.93,285.27Z"/><path class="cls-40" d="M653.81,285.82c-.89,3.15-4.21,1.58-5.56-1.41-1.56-3.54-10.69-16.28-18.92-7.55-6.1,6.46-11.12,7.33-15.35,4.76a31,31,0,0,1,1.64-5.77c5.19,2.16,10-.91,13.17-3.51,4-3.21,8.86-2.95,13.87.55C647.08,276,650.83,286.36,653.81,285.82Z"/><path class="cls-41" d="M619.21,282.87c-.81-9,2.94-14.8,6-16.54"/><path class="cls-41" d="M621.61,282.42c.38-3.66,6.94-17,14.36-17"/><path class="cls-41" d="M630,276.24c2.33-5.66,5.2-9.28,8.62-10.19"/><path class="cls-41" d="M643.88,268.68c.55,4.63.11,7.69-1.24,8.44"/><path class="cls-41" d="M646.7,271.54c1.53,5.95.25,8.63-.64,9.32"/><path class="cls-22" d="M620,291.37c2.73,1.1,4,3,3.32,4.74-.84,2.16-2.22,6,.42,7.68"/><path class="cls-39" d="M623.35,286.32c.28,2.19,8.09,0,8.39-1.29C632.14,283.28,622.86,282.46,623.35,286.32Z"/><path class="cls-39" d="M619,288.29c1,1.79-6,4.33-7,3.49C610.84,290.68,617.36,285.13,619,288.29Z"/><path class="cls-26" d="M627.92,306.43a10.19,10.19,0,0,0,5.67-5.66s2.6,4.54-.47,6.89C630.77,309.45,627.92,306.43,627.92,306.43Z"/><circle class="cls-19" cx="640.65" cy="294.13" r="6.76"/><path class="cls-19" d="M622.28,306.52a6.66,6.66,0,0,1-2.35,5.11,36.23,36.23,0,0,1-5.3-11.8,6.3,6.3,0,0,1,.89-.07A6.76,6.76,0,0,1,622.28,306.52Z"/></g></g></svg>